<svg xmlns="http://www.w3.org/2000/svg" xmlns:xlink="http://www.w3.org/1999/xlink" width="40" zoomAndPan="magnify" viewBox="0 0 30 30.000001" height="40" preserveAspectRatio="xMidYMid meet" version="1.0"><defs><clipPath id="6fe34ae7c1"><path d="M 3 15 L 27 15 L 27 28.015625 L 3 28.015625 Z M 3 15 " clip-rule="nonzero"/></clipPath><clipPath id="e1be5f7188"><path d="M 1.644531 11 L 7 11 L 7 17 L 1.644531 17 Z M 1.644531 11 " clip-rule="nonzero"/></clipPath><clipPath id="2115a0e926"><path d="M 1.644531 7 L 9 7 L 9 13 L 1.644531 13 Z M 1.644531 7 " clip-rule="nonzero"/></clipPath><clipPath id="6715c60f2e"><path d="M 22 7 L 28.5 7 L 28.5 13 L 22 13 Z M 22 7 " clip-rule="nonzero"/></clipPath><clipPath id="d025171549"><path d="M 23 11 L 28.5 11 L 28.5 17 L 23 17 Z M 23 11 " clip-rule="nonzero"/></clipPath><clipPath id="c6f45282c9"><path d="M 3 1.160156 L 27 1.160156 L 27 8 L 3 8 Z M 3 1.160156 " clip-rule="nonzero"/></clipPath><clipPath id="2b06285bc7"><path d="M 18 16 L 26 16 L 26 28.015625 L 18 28.015625 Z M 18 16 " clip-rule="nonzero"/></clipPath></defs><g clip-path="url(#6fe34ae7c1)"><path fill="#7453fc" d="M 26.414062 28.015625 L 3.726562 28.015625 C 3.582031 28.015625 3.464844 27.898438 3.464844 27.753906 L 3.464844 15.753906 C 3.464844 15.609375 3.582031 15.492188 3.726562 15.492188 C 3.875 15.492188 3.992188 15.609375 3.992188 15.753906 L 3.992188 27.488281 L 26.152344 27.488281 L 26.152344 15.753906 C 26.152344 15.609375 26.269531 15.492188 26.414062 15.492188 C 26.5625 15.492188 26.679688 15.609375 26.679688 15.753906 L 26.679688 27.753906 C 26.679688 27.898438 26.5625 28.015625 26.414062 28.015625 " fill-opacity="1" fill-rule="nonzero"/></g><path fill="#7453fc" d="M 5.574219 25.910156 L 17.222656 25.910156 L 17.222656 17.308594 L 5.574219 17.308594 Z M 17.484375 26.4375 L 5.308594 26.4375 C 5.164062 26.4375 5.046875 26.320312 5.046875 26.175781 L 5.046875 17.046875 C 5.046875 16.902344 5.164062 16.785156 5.308594 16.785156 L 17.484375 16.785156 C 17.632812 16.785156 17.75 16.902344 17.75 17.046875 L 17.75 26.175781 C 17.75 26.320312 17.632812 26.4375 17.484375 26.4375 " fill-opacity="1" fill-rule="nonzero"/><g clip-path="url(#e1be5f7188)"><path fill="#7453fc" d="M 2.171875 12.449219 L 2.171875 13.59375 C 2.171875 14.65625 3.039062 15.523438 4.101562 15.523438 C 5.167969 15.523438 6.03125 14.65625 6.03125 13.59375 L 6.03125 12.449219 Z M 4.101562 16.050781 C 2.746094 16.050781 1.644531 14.945312 1.644531 13.59375 L 1.644531 12.1875 C 1.644531 12.042969 1.761719 11.925781 1.90625 11.925781 L 6.296875 11.925781 C 6.441406 11.925781 6.558594 12.042969 6.558594 12.1875 L 6.558594 13.59375 C 6.558594 14.945312 5.457031 16.050781 4.101562 16.050781 " fill-opacity="1" fill-rule="nonzero"/></g><g clip-path="url(#2115a0e926)"><path fill="#7453fc" d="M 2.316406 11.925781 L 6.097656 11.925781 L 7.40625 7.578125 L 4.273438 7.578125 Z M 6.296875 12.449219 L 1.90625 12.449219 C 1.820312 12.449219 1.734375 12.40625 1.6875 12.328125 C 1.640625 12.253906 1.632812 12.160156 1.667969 12.078125 L 3.863281 7.207031 C 3.90625 7.113281 4 7.050781 4.101562 7.050781 L 7.757812 7.050781 C 7.84375 7.050781 7.921875 7.09375 7.972656 7.160156 C 8.019531 7.226562 8.035156 7.3125 8.011719 7.390625 L 6.546875 12.261719 C 6.515625 12.375 6.410156 12.449219 6.296875 12.449219 " fill-opacity="1" fill-rule="nonzero"/></g><path fill="#7453fc" d="M 6.558594 12.449219 L 6.558594 13.59375 C 6.558594 14.65625 7.425781 15.523438 8.492188 15.523438 C 9.554688 15.523438 10.421875 14.65625 10.421875 13.59375 L 10.421875 12.449219 Z M 8.492188 16.050781 C 7.136719 16.050781 6.03125 14.945312 6.03125 13.59375 L 6.03125 12.1875 C 6.03125 12.042969 6.148438 11.925781 6.296875 11.925781 L 10.6875 11.925781 C 10.832031 11.925781 10.949219 12.042969 10.949219 12.1875 L 10.949219 13.59375 C 10.949219 14.945312 9.847656 16.050781 8.492188 16.050781 " fill-opacity="1" fill-rule="nonzero"/><path fill="#7453fc" d="M 6.652344 11.925781 L 10.457031 11.925781 L 11.109375 7.578125 L 7.957031 7.578125 Z M 10.6875 12.449219 L 6.296875 12.449219 C 6.210938 12.449219 6.136719 12.410156 6.085938 12.34375 C 6.035156 12.277344 6.019531 12.191406 6.042969 12.109375 L 7.507812 7.242188 C 7.539062 7.128906 7.644531 7.050781 7.757812 7.050781 L 11.414062 7.050781 C 11.492188 7.050781 11.566406 7.085938 11.613281 7.144531 C 11.664062 7.203125 11.6875 7.277344 11.675781 7.355469 L 10.945312 12.226562 C 10.925781 12.355469 10.816406 12.449219 10.6875 12.449219 " fill-opacity="1" fill-rule="nonzero"/><path fill="#7453fc" d="M 10.988281 11.925781 L 14.808594 11.925781 L 14.808594 7.578125 L 11.640625 7.578125 Z M 15.074219 12.449219 L 10.6875 12.449219 C 10.609375 12.449219 10.535156 12.417969 10.484375 12.359375 C 10.4375 12.300781 10.414062 12.222656 10.421875 12.148438 L 11.15625 7.277344 C 11.175781 7.148438 11.285156 7.050781 11.414062 7.050781 L 15.074219 7.050781 C 15.21875 7.050781 15.335938 7.171875 15.335938 7.316406 L 15.335938 12.1875 C 15.335938 12.332031 15.21875 12.449219 15.074219 12.449219 " fill-opacity="1" fill-rule="nonzero"/><path fill="#7453fc" d="M 10.949219 12.449219 L 10.949219 13.59375 C 10.949219 14.65625 11.8125 15.523438 12.878906 15.523438 C 13.945312 15.523438 14.808594 14.65625 14.808594 13.59375 L 14.808594 12.449219 Z M 12.878906 16.050781 C 11.523438 16.050781 10.421875 14.945312 10.421875 13.59375 L 10.421875 12.1875 C 10.421875 12.042969 10.539062 11.925781 10.6875 11.925781 L 15.074219 11.925781 C 15.21875 11.925781 15.335938 12.042969 15.335938 12.1875 L 15.335938 13.59375 C 15.335938 14.945312 14.234375 16.050781 12.878906 16.050781 " fill-opacity="1" fill-rule="nonzero"/><path fill="#7453fc" d="M 15.335938 11.925781 L 19.152344 11.925781 L 18.503906 7.578125 L 15.335938 7.578125 Z M 19.460938 12.449219 L 15.074219 12.449219 C 14.929688 12.449219 14.808594 12.332031 14.808594 12.1875 L 14.808594 7.316406 C 14.808594 7.171875 14.929688 7.050781 15.074219 7.050781 L 18.730469 7.050781 C 18.859375 7.050781 18.972656 7.148438 18.988281 7.277344 L 19.722656 12.148438 C 19.730469 12.222656 19.710938 12.300781 19.660156 12.359375 C 19.609375 12.417969 19.539062 12.449219 19.460938 12.449219 " fill-opacity="1" fill-rule="nonzero"/><path fill="#7453fc" d="M 15.335938 12.449219 L 15.335938 13.59375 C 15.335938 14.65625 16.203125 15.523438 17.265625 15.523438 C 18.332031 15.523438 19.199219 14.65625 19.199219 13.59375 L 19.199219 12.449219 Z M 17.265625 16.050781 C 15.910156 16.050781 14.808594 14.945312 14.808594 13.59375 L 14.808594 12.1875 C 14.808594 12.042969 14.929688 11.925781 15.074219 11.925781 L 19.460938 11.925781 C 19.605469 11.925781 19.722656 12.042969 19.722656 12.1875 L 19.722656 13.59375 C 19.722656 14.945312 18.621094 16.050781 17.265625 16.050781 " fill-opacity="1" fill-rule="nonzero"/><path fill="#7453fc" d="M 19.6875 11.925781 L 23.492188 11.925781 L 22.191406 7.578125 L 19.035156 7.578125 Z M 23.847656 12.449219 L 19.460938 12.449219 C 19.328125 12.449219 19.21875 12.355469 19.199219 12.226562 L 18.46875 7.355469 C 18.457031 7.277344 18.480469 7.203125 18.53125 7.144531 C 18.582031 7.085938 18.652344 7.050781 18.730469 7.050781 L 22.386719 7.050781 C 22.5 7.050781 22.605469 7.128906 22.636719 7.242188 L 24.101562 12.109375 C 24.125 12.191406 24.109375 12.277344 24.0625 12.34375 C 24.011719 12.410156 23.933594 12.449219 23.847656 12.449219 " fill-opacity="1" fill-rule="nonzero"/><path fill="#7453fc" d="M 19.722656 12.449219 L 19.722656 13.59375 C 19.722656 14.65625 20.589844 15.523438 21.652344 15.523438 C 22.71875 15.523438 23.585938 14.65625 23.585938 13.59375 L 23.585938 12.449219 Z M 21.652344 16.050781 C 20.296875 16.050781 19.199219 14.945312 19.199219 13.59375 L 19.199219 12.1875 C 19.199219 12.042969 19.316406 11.925781 19.460938 11.925781 L 23.847656 11.925781 C 23.992188 11.925781 24.113281 12.042969 24.113281 12.1875 L 24.113281 13.59375 C 24.113281 14.945312 23.007812 16.050781 21.652344 16.050781 " fill-opacity="1" fill-rule="nonzero"/><g clip-path="url(#6715c60f2e)"><path fill="#7453fc" d="M 24.046875 11.925781 L 27.832031 11.925781 L 25.871094 7.578125 L 22.742188 7.578125 Z M 28.238281 12.449219 L 23.847656 12.449219 C 23.734375 12.449219 23.628906 12.375 23.597656 12.261719 L 22.132812 7.390625 C 22.109375 7.3125 22.125 7.226562 22.175781 7.160156 C 22.226562 7.09375 22.300781 7.050781 22.386719 7.050781 L 26.042969 7.050781 C 26.144531 7.050781 26.242188 7.113281 26.28125 7.207031 L 28.476562 12.078125 C 28.511719 12.160156 28.507812 12.253906 28.457031 12.328125 C 28.410156 12.40625 28.324219 12.449219 28.238281 12.449219 " fill-opacity="1" fill-rule="nonzero"/></g><g clip-path="url(#d025171549)"><path fill="#7453fc" d="M 24.113281 12.449219 L 24.113281 13.59375 C 24.113281 14.65625 24.976562 15.523438 26.042969 15.523438 C 27.105469 15.523438 27.972656 14.65625 27.972656 13.59375 L 27.972656 12.449219 Z M 26.042969 16.050781 C 24.6875 16.050781 23.585938 14.945312 23.585938 13.59375 L 23.585938 12.1875 C 23.585938 12.042969 23.703125 11.925781 23.847656 11.925781 L 28.238281 11.925781 C 28.382812 11.925781 28.5 12.042969 28.5 12.1875 L 28.5 13.59375 C 28.5 14.945312 27.398438 16.050781 26.042969 16.050781 " fill-opacity="1" fill-rule="nonzero"/></g><g clip-path="url(#c6f45282c9)"><path fill="#7453fc" d="M 4.367188 7.050781 L 25.777344 7.050781 L 25.777344 1.6875 L 4.367188 1.6875 Z M 26.042969 7.578125 L 4.101562 7.578125 C 3.957031 7.578125 3.839844 7.460938 3.839844 7.316406 L 3.839844 1.421875 C 3.839844 1.277344 3.957031 1.160156 4.101562 1.160156 L 26.042969 1.160156 C 26.1875 1.160156 26.304688 1.277344 26.304688 1.421875 L 26.304688 7.316406 C 26.304688 7.460938 26.1875 7.578125 26.042969 7.578125 " fill-opacity="1" fill-rule="nonzero"/></g><path fill="#7453fc" d="M 9.316406 3.167969 C 8.785156 3.167969 8.351562 3.597656 8.351562 4.132812 L 8.351562 4.609375 C 8.351562 5.140625 8.785156 5.574219 9.316406 5.574219 C 9.851562 5.574219 10.28125 5.140625 10.28125 4.609375 L 10.28125 4.132812 C 10.28125 3.597656 9.851562 3.167969 9.316406 3.167969 Z M 9.316406 6.101562 C 8.496094 6.101562 7.824219 5.429688 7.824219 4.609375 L 7.824219 4.132812 C 7.824219 3.308594 8.496094 2.640625 9.316406 2.640625 C 10.140625 2.640625 10.808594 3.308594 10.808594 4.132812 L 10.808594 4.609375 C 10.808594 5.429688 10.140625 6.101562 9.316406 6.101562 " fill-opacity="1" fill-rule="nonzero"/><path fill="#7453fc" d="M 6.503906 6.101562 C 6.367188 6.101562 6.226562 6.082031 6.089844 6.046875 C 5.46875 5.886719 4.941406 5.167969 4.941406 4.476562 L 4.941406 4.261719 C 4.941406 3.5625 5.453125 2.859375 6.082031 2.695312 C 6.574219 2.566406 7.082031 2.667969 7.472656 2.980469 C 7.585938 3.074219 7.605469 3.238281 7.511719 3.351562 C 7.421875 3.464844 7.257812 3.484375 7.144531 3.394531 C 6.886719 3.1875 6.546875 3.117188 6.214844 3.203125 C 5.824219 3.308594 5.46875 3.8125 5.46875 4.261719 L 5.46875 4.476562 C 5.46875 4.929688 5.828125 5.433594 6.222656 5.539062 C 6.558594 5.625 6.898438 5.550781 7.15625 5.339844 C 7.265625 5.246094 7.433594 5.261719 7.527344 5.375 C 7.617188 5.488281 7.601562 5.652344 7.492188 5.746094 C 7.207031 5.976562 6.859375 6.101562 6.503906 6.101562 " fill-opacity="1" fill-rule="nonzero"/><path fill="#7453fc" d="M 17.425781 6.101562 L 15.789062 6.101562 C 15.640625 6.101562 15.527344 5.984375 15.527344 5.835938 L 15.527344 2.90625 C 15.527344 2.757812 15.640625 2.640625 15.789062 2.640625 L 17.351562 2.640625 C 17.496094 2.640625 17.617188 2.757812 17.617188 2.90625 C 17.617188 3.050781 17.496094 3.167969 17.351562 3.167969 L 16.050781 3.167969 L 16.050781 5.574219 L 17.425781 5.574219 C 17.570312 5.574219 17.6875 5.691406 17.6875 5.835938 C 17.6875 5.984375 17.570312 6.101562 17.425781 6.101562 " fill-opacity="1" fill-rule="nonzero"/><path fill="#7453fc" d="M 17.28125 4.558594 L 15.789062 4.558594 C 15.640625 4.558594 15.527344 4.441406 15.527344 4.296875 C 15.527344 4.152344 15.640625 4.035156 15.789062 4.035156 L 17.28125 4.035156 C 17.425781 4.035156 17.542969 4.152344 17.542969 4.296875 C 17.542969 4.441406 17.425781 4.558594 17.28125 4.558594 " fill-opacity="1" fill-rule="nonzero"/><path fill="#7453fc" d="M 19.832031 6.101562 L 18.191406 6.101562 C 18.046875 6.101562 17.929688 5.984375 17.929688 5.835938 L 17.929688 2.90625 C 17.929688 2.757812 18.046875 2.640625 18.191406 2.640625 L 19.757812 2.640625 C 19.902344 2.640625 20.019531 2.757812 20.019531 2.90625 C 20.019531 3.050781 19.902344 3.167969 19.757812 3.167969 L 18.457031 3.167969 L 18.457031 5.574219 L 19.832031 5.574219 C 19.976562 5.574219 20.09375 5.691406 20.09375 5.835938 C 20.09375 5.984375 19.976562 6.101562 19.832031 6.101562 " fill-opacity="1" fill-rule="nonzero"/><path fill="#7453fc" d="M 19.683594 4.558594 L 18.191406 4.558594 C 18.046875 4.558594 17.929688 4.441406 17.929688 4.296875 C 17.929688 4.152344 18.046875 4.035156 18.191406 4.035156 L 19.683594 4.035156 C 19.828125 4.035156 19.945312 4.152344 19.945312 4.296875 C 19.945312 4.441406 19.828125 4.558594 19.683594 4.558594 " fill-opacity="1" fill-rule="nonzero"/><path fill="#7453fc" d="M 11.3125 6.101562 C 11.167969 6.101562 11.050781 5.984375 11.050781 5.835938 L 11.050781 2.90625 C 11.050781 2.757812 11.167969 2.640625 11.3125 2.640625 L 12.785156 2.640625 C 12.929688 2.640625 13.046875 2.757812 13.046875 2.90625 C 13.046875 3.050781 12.929688 3.167969 12.785156 3.167969 L 11.578125 3.167969 L 11.578125 5.835938 C 11.578125 5.984375 11.460938 6.101562 11.3125 6.101562 " fill-opacity="1" fill-rule="nonzero"/><path fill="#7453fc" d="M 12.6875 4.53125 L 11.3125 4.53125 C 11.167969 4.53125 11.050781 4.414062 11.050781 4.269531 C 11.050781 4.125 11.167969 4.003906 11.3125 4.003906 L 12.6875 4.003906 C 12.832031 4.003906 12.949219 4.125 12.949219 4.269531 C 12.949219 4.414062 12.832031 4.53125 12.6875 4.53125 " fill-opacity="1" fill-rule="nonzero"/><path fill="#7453fc" d="M 13.550781 6.101562 C 13.40625 6.101562 13.289062 5.984375 13.289062 5.835938 L 13.289062 2.90625 C 13.289062 2.757812 13.40625 2.640625 13.550781 2.640625 L 15.019531 2.640625 C 15.167969 2.640625 15.285156 2.757812 15.285156 2.90625 C 15.285156 3.050781 15.167969 3.167969 15.019531 3.167969 L 13.8125 3.167969 L 13.8125 5.835938 C 13.8125 5.984375 13.695312 6.101562 13.550781 6.101562 " fill-opacity="1" fill-rule="nonzero"/><path fill="#7453fc" d="M 14.921875 4.53125 L 13.550781 4.53125 C 13.40625 4.53125 13.289062 4.414062 13.289062 4.269531 C 13.289062 4.125 13.40625 4.003906 13.550781 4.003906 L 14.921875 4.003906 C 15.070312 4.003906 15.1875 4.125 15.1875 4.269531 C 15.1875 4.414062 15.070312 4.53125 14.921875 4.53125 " fill-opacity="1" fill-rule="nonzero"/><path fill="#7453fc" d="M 22.785156 4.058594 L 22.792969 4.058594 Z M 23.546875 2.792969 C 23.457031 2.792969 23.355469 2.804688 23.25 2.835938 C 22.898438 2.929688 22.527344 3.15625 22.207031 3.476562 C 21.789062 3.894531 21.570312 4.347656 21.527344 4.699219 C 21.816406 4.296875 22.226562 3.980469 22.695312 3.808594 C 23.164062 3.640625 23.566406 3.277344 23.785156 2.832031 C 23.714844 2.804688 23.636719 2.792969 23.546875 2.792969 Z M 21.460938 5.648438 C 21.390625 5.648438 21.324219 5.621094 21.273438 5.570312 C 20.738281 5.035156 20.988281 3.953125 21.835938 3.105469 C 22.21875 2.71875 22.671875 2.441406 23.113281 2.324219 C 23.601562 2.195312 24.019531 2.273438 24.296875 2.546875 C 24.367188 2.621094 24.390625 2.730469 24.355469 2.824219 C 24.113281 3.503906 23.558594 4.054688 22.878906 4.304688 C 22.347656 4.496094 21.898438 4.945312 21.707031 5.476562 C 21.675781 5.558594 21.605469 5.621094 21.519531 5.640625 C 21.5 5.644531 21.480469 5.648438 21.460938 5.648438 " fill-opacity="1" fill-rule="nonzero"/><path fill="#7453fc" d="M 22.410156 5.910156 C 22.546875 5.964844 22.734375 5.960938 22.945312 5.90625 C 23.292969 5.8125 23.671875 5.578125 23.988281 5.261719 C 24.3125 4.941406 24.539062 4.570312 24.632812 4.21875 C 24.648438 4.15625 24.660156 4.097656 24.667969 4.039062 C 24.378906 4.441406 23.96875 4.757812 23.5 4.929688 C 23.035156 5.097656 22.632812 5.464844 22.410156 5.910156 Z M 22.640625 6.476562 C 22.339844 6.476562 22.085938 6.382812 21.898438 6.191406 C 21.824219 6.121094 21.800781 6.015625 21.835938 5.917969 C 22.082031 5.234375 22.636719 4.679688 23.320312 4.433594 C 23.851562 4.242188 24.296875 3.792969 24.484375 3.269531 C 24.515625 3.183594 24.585938 3.121094 24.675781 3.101562 C 24.761719 3.082031 24.855469 3.109375 24.917969 3.171875 C 25.195312 3.445312 25.269531 3.867188 25.140625 4.355469 C 25.023438 4.792969 24.75 5.246094 24.363281 5.632812 C 23.976562 6.019531 23.519531 6.296875 23.082031 6.414062 C 22.925781 6.453125 22.777344 6.476562 22.640625 6.476562 " fill-opacity="1" fill-rule="nonzero"/><g clip-path="url(#2b06285bc7)"><path fill="#7453fc" d="M 19.328125 27.488281 L 24.574219 27.488281 L 24.574219 17.308594 L 19.328125 17.308594 Z M 24.835938 28.015625 L 19.066406 28.015625 C 18.921875 28.015625 18.804688 27.898438 18.804688 27.753906 L 18.804688 17.046875 C 18.804688 16.902344 18.921875 16.785156 19.066406 16.785156 L 24.835938 16.785156 C 24.980469 16.785156 25.097656 16.902344 25.097656 17.046875 L 25.097656 27.753906 C 25.097656 27.898438 24.980469 28.015625 24.835938 28.015625 " fill-opacity="1" fill-rule="nonzero"/></g><path fill="#7453fc" d="M 14.0625 23.1875 L 8.734375 23.1875 C 8.585938 23.1875 8.46875 23.070312 8.46875 22.925781 C 8.46875 22.78125 8.585938 22.660156 8.734375 22.660156 L 14.0625 22.660156 C 14.207031 22.660156 14.324219 22.78125 14.324219 22.925781 C 14.324219 23.070312 14.207031 23.1875 14.0625 23.1875 " fill-opacity="1" fill-rule="nonzero"/><path fill="#7453fc" d="M 11.398438 26.4375 C 11.253906 26.4375 11.132812 26.320312 11.132812 26.175781 L 11.132812 22.925781 C 11.132812 22.78125 11.253906 22.660156 11.398438 22.660156 C 11.542969 22.660156 11.660156 22.78125 11.660156 22.925781 L 11.660156 26.175781 C 11.660156 26.320312 11.542969 26.4375 11.398438 26.4375 " fill-opacity="1" fill-rule="nonzero"/><path fill="#7453fc" d="M 15.074219 24.8125 L 13.214844 24.8125 C 13.066406 24.8125 12.949219 24.695312 12.949219 24.550781 C 12.949219 24.402344 13.066406 24.285156 13.214844 24.285156 L 14.847656 24.285156 C 14.941406 23.746094 15.222656 22.398438 15.832031 21.832031 C 15.9375 21.734375 16.105469 21.742188 16.203125 21.847656 C 16.300781 21.953125 16.296875 22.121094 16.1875 22.21875 C 15.679688 22.691406 15.398438 24.085938 15.332031 24.582031 C 15.316406 24.714844 15.203125 24.8125 15.074219 24.8125 " fill-opacity="1" fill-rule="nonzero"/><path fill="#7453fc" d="M 15.269531 26.4375 C 15.15625 26.4375 15.050781 26.363281 15.019531 26.246094 L 14.539062 24.625 C 14.5 24.484375 14.578125 24.339844 14.71875 24.296875 C 14.855469 24.257812 15.003906 24.335938 15.046875 24.476562 L 15.523438 26.097656 C 15.5625 26.238281 15.484375 26.382812 15.34375 26.425781 C 15.320312 26.433594 15.296875 26.4375 15.269531 26.4375 " fill-opacity="1" fill-rule="nonzero"/><path fill="#7453fc" d="M 13.015625 26.4375 C 12.992188 26.4375 12.964844 26.433594 12.941406 26.425781 C 12.800781 26.382812 12.722656 26.238281 12.761719 26.097656 L 13.242188 24.476562 C 13.28125 24.335938 13.425781 24.257812 13.566406 24.296875 C 13.707031 24.339844 13.785156 24.484375 13.746094 24.625 L 13.269531 26.246094 C 13.234375 26.363281 13.128906 26.4375 13.015625 26.4375 " fill-opacity="1" fill-rule="nonzero"/><path fill="#7453fc" d="M 9.582031 24.8125 L 7.722656 24.8125 C 7.589844 24.8125 7.476562 24.714844 7.460938 24.582031 C 7.394531 24.085938 7.113281 22.691406 6.605469 22.21875 C 6.496094 22.121094 6.492188 21.953125 6.59375 21.847656 C 6.691406 21.742188 6.859375 21.734375 6.964844 21.832031 C 7.570312 22.398438 7.855469 23.746094 7.949219 24.285156 L 9.582031 24.285156 C 9.726562 24.285156 9.84375 24.402344 9.84375 24.550781 C 9.84375 24.695312 9.726562 24.8125 9.582031 24.8125 " fill-opacity="1" fill-rule="nonzero"/><path fill="#7453fc" d="M 7.527344 26.4375 C 7.5 26.4375 7.476562 26.433594 7.449219 26.425781 C 7.308594 26.382812 7.230469 26.238281 7.273438 26.097656 L 7.75 24.476562 C 7.789062 24.335938 7.9375 24.257812 8.074219 24.296875 C 8.214844 24.339844 8.296875 24.484375 8.253906 24.625 L 7.777344 26.246094 C 7.746094 26.363281 7.640625 26.4375 7.527344 26.4375 " fill-opacity="1" fill-rule="nonzero"/><path fill="#7453fc" d="M 9.777344 26.4375 C 9.664062 26.4375 9.558594 26.363281 9.527344 26.246094 L 9.050781 24.625 C 9.007812 24.484375 9.085938 24.339844 9.226562 24.296875 C 9.367188 24.257812 9.515625 24.335938 9.554688 24.476562 L 10.03125 26.097656 C 10.074219 26.238281 9.992188 26.382812 9.851562 26.425781 C 9.828125 26.433594 9.804688 26.4375 9.777344 26.4375 " fill-opacity="1" fill-rule="nonzero"/><path fill="#7453fc" d="M 20.964844 22.660156 L 20.171875 22.660156 C 20.027344 22.660156 19.910156 22.542969 19.910156 22.398438 C 19.910156 22.253906 20.027344 22.136719 20.171875 22.136719 L 20.964844 22.136719 C 21.109375 22.136719 21.226562 22.253906 21.226562 22.398438 C 21.226562 22.542969 21.109375 22.660156 20.964844 22.660156 " fill-opacity="1" fill-rule="nonzero"/></svg>