<svg xmlns="http://www.w3.org/2000/svg" xmlns:xlink="http://www.w3.org/1999/xlink" width="40" zoomAndPan="magnify" viewBox="0 0 30 30.000001" height="40" preserveAspectRatio="xMidYMid meet" version="1.0"><defs><clipPath id="471ee31b1f"><path d="M 1.957031 4.734375 L 28.085938 4.734375 L 28.085938 24.332031 L 1.957031 24.332031 Z M 1.957031 4.734375 " clip-rule="nonzero"/></clipPath></defs><g clip-path="url(#471ee31b1f)"><path fill="#7453fc" d="M 26.777344 22.996094 L 26.777344 11.558594 C 26.777344 10.90625 26.246094 10.375 25.59375 10.375 L 21.722656 10.375 L 21.722656 22.996094 L 21.207031 22.996094 L 21.207031 5.910156 C 21.207031 5.257812 20.671875 4.726562 20.023438 4.726562 L 10.023438 4.726562 C 9.375 4.726562 8.839844 5.257812 8.839844 5.910156 L 8.839844 22.996094 L 8.324219 22.996094 L 8.324219 10.375 L 4.453125 10.375 C 3.800781 10.375 3.269531 10.90625 3.269531 11.558594 L 3.269531 22.996094 L 1.960938 22.996094 L 1.960938 24.339844 L 28.085938 24.339844 L 28.085938 22.996094 Z M 23.285156 13.738281 C 23.285156 13.636719 23.367188 13.550781 23.46875 13.550781 L 25.03125 13.550781 C 25.136719 13.550781 25.21875 13.636719 25.21875 13.738281 L 25.21875 16.25 C 25.21875 16.351562 25.136719 16.4375 25.03125 16.4375 L 23.46875 16.4375 C 23.367188 16.4375 23.285156 16.351562 23.285156 16.25 Z M 23.285156 18.539062 C 23.285156 18.4375 23.367188 18.351562 23.46875 18.351562 L 25.03125 18.351562 C 25.136719 18.351562 25.21875 18.4375 25.21875 18.539062 L 25.21875 21.050781 C 25.21875 21.152344 25.136719 21.234375 25.03125 21.234375 L 23.46875 21.234375 C 23.367188 21.234375 23.285156 21.152344 23.285156 21.050781 Z M 4.828125 13.738281 C 4.828125 13.636719 4.910156 13.550781 5.015625 13.550781 L 6.574219 13.550781 C 6.679688 13.550781 6.761719 13.636719 6.761719 13.738281 L 6.761719 16.25 C 6.761719 16.351562 6.679688 16.4375 6.574219 16.4375 L 5.015625 16.4375 C 4.910156 16.4375 4.828125 16.351562 4.828125 16.25 Z M 4.828125 18.539062 C 4.828125 18.4375 4.910156 18.351562 5.015625 18.351562 L 6.574219 18.351562 C 6.679688 18.351562 6.761719 18.4375 6.761719 18.539062 L 6.761719 21.050781 C 6.761719 21.152344 6.679688 21.234375 6.574219 21.234375 L 5.015625 21.234375 C 4.910156 21.234375 4.828125 21.152344 4.828125 21.050781 Z M 12.507812 21.050781 C 12.507812 21.152344 12.421875 21.234375 12.320312 21.234375 L 10.757812 21.234375 C 10.65625 21.234375 10.570312 21.152344 10.570312 21.050781 L 10.570312 18.539062 C 10.570312 18.4375 10.65625 18.351562 10.757812 18.351562 L 12.320312 18.351562 C 12.421875 18.351562 12.507812 18.4375 12.507812 18.539062 Z M 12.507812 16.25 C 12.507812 16.351562 12.421875 16.4375 12.320312 16.4375 L 10.757812 16.4375 C 10.65625 16.4375 10.570312 16.351562 10.570312 16.25 L 10.570312 13.738281 C 10.570312 13.636719 10.65625 13.550781 10.757812 13.550781 L 12.320312 13.550781 C 12.421875 13.550781 12.507812 13.636719 12.507812 13.738281 Z M 16.296875 22.996094 L 13.746094 22.996094 L 13.746094 18.597656 C 13.746094 18.460938 13.859375 18.351562 13.996094 18.351562 L 16.050781 18.351562 C 16.1875 18.351562 16.296875 18.460938 16.296875 18.597656 Z M 14.054688 16.25 L 14.054688 13.738281 C 14.054688 13.636719 14.140625 13.550781 14.242188 13.550781 L 15.804688 13.550781 C 15.90625 13.550781 15.992188 13.636719 15.992188 13.738281 L 15.992188 16.25 C 15.992188 16.351562 15.90625 16.4375 15.804688 16.4375 L 14.242188 16.4375 C 14.140625 16.4375 14.054688 16.351562 14.054688 16.25 Z M 16.414062 9.953125 C 16.230469 9.953125 16.078125 10.105469 16.078125 10.289062 L 16.078125 11.351562 C 16.078125 11.535156 15.929688 11.683594 15.742188 11.683594 L 14.304688 11.683594 C 14.117188 11.683594 13.96875 11.535156 13.96875 11.351562 L 13.96875 10.289062 C 13.96875 10.105469 13.816406 9.953125 13.632812 9.953125 L 12.550781 9.953125 C 12.367188 9.953125 12.214844 9.800781 12.214844 9.617188 L 12.214844 8.257812 C 12.214844 8.074219 12.367188 7.921875 12.550781 7.921875 L 13.632812 7.921875 C 13.816406 7.921875 13.96875 7.773438 13.96875 7.589844 L 13.96875 6.535156 C 13.96875 6.351562 14.117188 6.199219 14.304688 6.199219 L 15.742188 6.199219 C 15.929688 6.199219 16.078125 6.351562 16.078125 6.535156 L 16.078125 7.589844 C 16.078125 7.773438 16.230469 7.921875 16.414062 7.921875 L 17.496094 7.921875 C 17.679688 7.921875 17.832031 8.074219 17.832031 8.257812 L 17.832031 9.617188 C 17.832031 9.800781 17.679688 9.953125 17.496094 9.953125 Z M 19.476562 21.050781 C 19.476562 21.152344 19.390625 21.234375 19.289062 21.234375 L 17.726562 21.234375 C 17.625 21.234375 17.539062 21.152344 17.539062 21.050781 L 17.539062 18.539062 C 17.539062 18.4375 17.625 18.351562 17.726562 18.351562 L 19.289062 18.351562 C 19.390625 18.351562 19.476562 18.4375 19.476562 18.539062 Z M 19.476562 16.25 C 19.476562 16.351562 19.390625 16.4375 19.289062 16.4375 L 17.726562 16.4375 C 17.625 16.4375 17.539062 16.351562 17.539062 16.25 L 17.539062 13.738281 C 17.539062 13.636719 17.625 13.550781 17.726562 13.550781 L 19.289062 13.550781 C 19.390625 13.550781 19.476562 13.636719 19.476562 13.738281 Z M 19.476562 16.25 " fill-opacity="1" fill-rule="nonzero"/></g></svg>