<svg xmlns="http://www.w3.org/2000/svg" xmlns:xlink="http://www.w3.org/1999/xlink" width="40" zoomAndPan="magnify" viewBox="0 0 30 30.000001" height="40" preserveAspectRatio="xMidYMid meet" version="1.0"><defs><clipPath id="630ef3cd7a"><path d="M 2.363281 1.851562 L 27.710938 1.851562 L 27.710938 27.242188 L 2.363281 27.242188 Z M 2.363281 1.851562 " clip-rule="nonzero"/></clipPath></defs><g clip-path="url(#630ef3cd7a)"><path fill="#7453fc" d="M 19.550781 19.046875 L 25.648438 19.046875 C 24.125 22.664062 20.863281 25.253906 17 25.921875 C 18.214844 23.78125 19.074219 21.460938 19.550781 19.046875 Z M 11.695312 19.046875 L 18.375 19.046875 C 17.945312 21.105469 17.222656 23.085938 16.230469 24.9375 C 15.875 25.59375 15.054688 25.84375 14.394531 25.488281 C 14.160156 25.363281 13.96875 25.171875 13.84375 24.9375 C 12.851562 23.085938 12.125 21.105469 11.695312 19.046875 Z M 4.421875 19.046875 L 10.519531 19.046875 C 11 21.460938 11.863281 23.78125 13.070312 25.921875 C 9.207031 25.253906 5.949219 22.664062 4.421875 19.046875 Z M 19.75 11.242188 L 26.066406 11.242188 C 26.71875 13.410156 26.71875 15.726562 26.066406 17.898438 L 19.75 17.898438 C 20.070312 15.691406 20.070312 13.449219 19.75 11.242188 Z M 11.488281 11.242188 L 18.585938 11.242188 C 18.925781 13.445312 18.925781 15.691406 18.585938 17.898438 L 11.488281 17.898438 C 11.148438 15.691406 11.148438 13.445312 11.488281 11.242188 Z M 4.007812 11.242188 L 10.324219 11.242188 C 10 13.449219 10 15.691406 10.324219 17.898438 L 4.007812 17.898438 C 3.351562 15.726562 3.351562 13.410156 4.007812 11.242188 Z M 15.007812 3.488281 C 15.515625 3.476562 15.984375 3.753906 16.230469 4.203125 C 17.222656 6.050781 17.945312 8.035156 18.375 10.089844 L 11.695312 10.089844 C 12.125 8.035156 12.851562 6.050781 13.84375 4.203125 C 14.074219 3.773438 14.519531 3.5 15.007812 3.488281 Z M 17 3.214844 C 20.863281 3.886719 24.125 6.476562 25.648438 10.089844 L 19.550781 10.089844 C 19.074219 7.675781 18.214844 5.355469 17 3.214844 Z M 13.070312 3.214844 C 11.863281 5.355469 11 7.675781 10.519531 10.089844 L 4.421875 10.089844 C 5.949219 6.476562 9.207031 3.886719 13.070312 3.214844 Z M 14.707031 1.859375 C 7.824219 2.035156 2.339844 7.679688 2.363281 14.570312 C 2.363281 21.570312 8.039062 27.242188 15.035156 27.242188 C 22.035156 27.242188 27.710938 21.570312 27.710938 14.570312 C 27.734375 7.570312 22.078125 1.878906 15.078125 1.851562 C 14.957031 1.851562 14.832031 1.855469 14.707031 1.859375 " fill-opacity="1" fill-rule="nonzero"/></g></svg>