<svg xmlns="http://www.w3.org/2000/svg" xmlns:xlink="http://www.w3.org/1999/xlink" width="40" zoomAndPan="magnify" viewBox="0 0 30 30.000001" height="40" preserveAspectRatio="xMidYMid meet" version="1.0"><defs><clipPath id="0875bbf737"><path d="M 6 5 L 24 5 L 24 25.507812 L 6 25.507812 Z M 6 5 " clip-rule="nonzero"/></clipPath><clipPath id="8733571103"><path d="M 1.332031 4 L 14 4 L 14 25 L 1.332031 25 Z M 1.332031 4 " clip-rule="nonzero"/></clipPath><clipPath id="2800e50030"><path d="M 17 4 L 28.910156 4 L 28.910156 25 L 17 25 Z M 17 4 " clip-rule="nonzero"/></clipPath></defs><path fill="#7453fc" d="M 4.84375 16.488281 L 4.414062 16.488281 C 4.179688 16.488281 3.984375 16.683594 3.984375 16.917969 C 3.984375 17.15625 4.179688 17.347656 4.414062 17.347656 L 4.84375 17.347656 C 5.082031 17.347656 5.273438 17.15625 5.273438 16.917969 C 5.273438 16.683594 5.082031 16.488281 4.84375 16.488281 Z M 4.84375 16.488281 " fill-opacity="1" fill-rule="nonzero"/><path fill="#7453fc" d="M 4.84375 18.207031 L 4.414062 18.207031 C 4.179688 18.207031 3.984375 18.402344 3.984375 18.636719 C 3.984375 18.875 4.179688 19.066406 4.414062 19.066406 L 4.84375 19.066406 C 5.082031 19.066406 5.273438 18.875 5.273438 18.636719 C 5.273438 18.402344 5.082031 18.207031 4.84375 18.207031 Z M 4.84375 18.207031 " fill-opacity="1" fill-rule="nonzero"/><path fill="#7453fc" d="M 4.84375 19.925781 L 4.414062 19.925781 C 4.179688 19.925781 3.984375 20.117188 3.984375 20.355469 C 3.984375 20.589844 4.179688 20.785156 4.414062 20.785156 L 4.84375 20.785156 C 5.082031 20.785156 5.273438 20.589844 5.273438 20.355469 C 5.273438 20.117188 5.082031 19.925781 4.84375 19.925781 Z M 4.84375 19.925781 " fill-opacity="1" fill-rule="nonzero"/><path fill="#7453fc" d="M 25.417969 17.347656 L 25.847656 17.347656 C 26.085938 17.347656 26.277344 17.15625 26.277344 16.917969 C 26.277344 16.683594 26.085938 16.488281 25.847656 16.488281 L 25.417969 16.488281 C 25.183594 16.488281 24.992188 16.683594 24.992188 16.917969 C 24.992188 17.15625 25.183594 17.347656 25.417969 17.347656 Z M 25.417969 17.347656 " fill-opacity="1" fill-rule="nonzero"/><path fill="#7453fc" d="M 25.417969 19.066406 L 25.847656 19.066406 C 26.085938 19.066406 26.277344 18.875 26.277344 18.636719 C 26.277344 18.402344 26.085938 18.207031 25.847656 18.207031 L 25.417969 18.207031 C 25.183594 18.207031 24.992188 18.402344 24.992188 18.636719 C 24.992188 18.875 25.183594 19.066406 25.417969 19.066406 Z M 25.417969 19.066406 " fill-opacity="1" fill-rule="nonzero"/><path fill="#7453fc" d="M 25.417969 20.785156 L 25.847656 20.785156 C 26.085938 20.785156 26.277344 20.589844 26.277344 20.355469 C 26.277344 20.117188 26.085938 19.925781 25.847656 19.925781 L 25.417969 19.925781 C 25.183594 19.925781 24.992188 20.117188 24.992188 20.355469 C 24.992188 20.589844 25.183594 20.785156 25.417969 20.785156 Z M 25.417969 20.785156 " fill-opacity="1" fill-rule="nonzero"/><path fill="#7453fc" d="M 10.1875 11.550781 C 10.359375 11.550781 10.507812 11.660156 10.574219 11.789062 L 11.257812 11.25 C 11.023438 10.90625 10.636719 10.671875 10.1875 10.671875 C 9.480469 10.671875 8.898438 11.25 8.898438 11.960938 C 8.898438 12.195312 8.964844 12.410156 9.070312 12.601562 L 9.5 12.601562 L 9.90625 12.28125 C 9.820312 12.21875 9.757812 12.109375 9.757812 11.980469 C 9.757812 11.746094 9.949219 11.550781 10.1875 11.550781 Z M 10.1875 11.550781 " fill-opacity="1" fill-rule="nonzero"/><path fill="#7453fc" d="M 15.121094 12.195312 C 14.414062 12.195312 13.835938 12.773438 13.835938 13.484375 C 13.835938 14.191406 14.414062 14.773438 15.121094 14.773438 C 15.828125 14.773438 16.410156 14.191406 16.410156 13.484375 C 16.410156 12.773438 15.828125 12.195312 15.121094 12.195312 Z M 15.121094 13.914062 C 14.886719 13.914062 14.691406 13.71875 14.691406 13.484375 C 14.691406 13.246094 14.886719 13.054688 15.121094 13.054688 C 15.359375 13.054688 15.550781 13.246094 15.550781 13.484375 C 15.550781 13.71875 15.359375 13.914062 15.121094 13.914062 Z M 15.121094 13.914062 " fill-opacity="1" fill-rule="nonzero"/><path fill="#7453fc" d="M 9.777344 17.992188 L 9.351562 17.992188 C 9.113281 17.992188 8.921875 18.1875 8.921875 18.421875 C 8.921875 18.660156 9.113281 18.851562 9.351562 18.851562 L 9.777344 18.851562 C 10.015625 18.851562 10.207031 18.660156 10.207031 18.421875 C 10.207031 18.1875 10.015625 17.992188 9.777344 17.992188 Z M 9.777344 17.992188 " fill-opacity="1" fill-rule="nonzero"/><path fill="#7453fc" d="M 9.777344 19.710938 L 9.351562 19.710938 C 9.113281 19.710938 8.921875 19.90625 8.921875 20.140625 C 8.921875 20.375 9.113281 20.570312 9.351562 20.570312 L 9.777344 20.570312 C 10.015625 20.570312 10.207031 20.375 10.207031 20.140625 C 10.207031 19.90625 10.015625 19.710938 9.777344 19.710938 Z M 9.777344 19.710938 " fill-opacity="1" fill-rule="nonzero"/><path fill="#7453fc" d="M 9.777344 21.429688 L 9.351562 21.429688 C 9.113281 21.429688 8.921875 21.621094 8.921875 21.859375 C 8.921875 22.09375 9.113281 22.289062 9.351562 22.289062 L 9.777344 22.289062 C 10.015625 22.289062 10.207031 22.09375 10.207031 21.859375 C 10.207031 21.621094 10.015625 21.429688 9.777344 21.429688 Z M 9.777344 21.429688 " fill-opacity="1" fill-rule="nonzero"/><path fill="#7453fc" d="M 11.902344 17.992188 L 11.472656 17.992188 C 11.238281 17.992188 11.046875 18.1875 11.046875 18.421875 C 11.046875 18.660156 11.238281 18.851562 11.472656 18.851562 L 11.902344 18.851562 C 12.140625 18.851562 12.332031 18.660156 12.332031 18.421875 C 12.332031 18.1875 12.140625 17.992188 11.902344 17.992188 Z M 11.902344 17.992188 " fill-opacity="1" fill-rule="nonzero"/><path fill="#7453fc" d="M 11.902344 19.710938 L 11.472656 19.710938 C 11.238281 19.710938 11.046875 19.90625 11.046875 20.140625 C 11.046875 20.375 11.238281 20.570312 11.472656 20.570312 L 11.902344 20.570312 C 12.140625 20.570312 12.332031 20.375 12.332031 20.140625 C 12.332031 19.90625 12.140625 19.710938 11.902344 19.710938 Z M 11.902344 19.710938 " fill-opacity="1" fill-rule="nonzero"/><path fill="#7453fc" d="M 11.902344 21.429688 L 11.472656 21.429688 C 11.238281 21.429688 11.046875 21.621094 11.046875 21.859375 C 11.046875 22.09375 11.238281 22.289062 11.472656 22.289062 L 11.902344 22.289062 C 12.140625 22.289062 12.332031 22.09375 12.332031 21.859375 C 12.332031 21.621094 12.140625 21.429688 11.902344 21.429688 Z M 11.902344 21.429688 " fill-opacity="1" fill-rule="nonzero"/><path fill="#7453fc" d="M 18.359375 18.851562 L 18.789062 18.851562 C 19.027344 18.851562 19.21875 18.660156 19.21875 18.421875 C 19.21875 18.1875 19.027344 17.992188 18.789062 17.992188 L 18.359375 17.992188 C 18.125 17.992188 17.933594 18.1875 17.933594 18.421875 C 17.933594 18.660156 18.125 18.851562 18.359375 18.851562 Z M 18.359375 18.851562 " fill-opacity="1" fill-rule="nonzero"/><path fill="#7453fc" d="M 18.359375 20.570312 L 18.789062 20.570312 C 19.027344 20.570312 19.21875 20.375 19.21875 20.140625 C 19.21875 19.90625 19.027344 19.710938 18.789062 19.710938 L 18.359375 19.710938 C 18.125 19.710938 17.933594 19.90625 17.933594 20.140625 C 17.933594 20.375 18.125 20.570312 18.359375 20.570312 Z M 18.359375 20.570312 " fill-opacity="1" fill-rule="nonzero"/><path fill="#7453fc" d="M 18.359375 22.289062 L 18.789062 22.289062 C 19.027344 22.289062 19.21875 22.09375 19.21875 21.859375 C 19.21875 21.621094 19.027344 21.429688 18.789062 21.429688 L 18.359375 21.429688 C 18.125 21.429688 17.933594 21.621094 17.933594 21.859375 C 17.933594 22.09375 18.125 22.289062 18.359375 22.289062 Z M 18.359375 22.289062 " fill-opacity="1" fill-rule="nonzero"/><path fill="#7453fc" d="M 20.484375 18.851562 L 20.914062 18.851562 C 21.148438 18.851562 21.34375 18.660156 21.34375 18.421875 C 21.34375 18.1875 21.148438 17.992188 20.914062 17.992188 L 20.484375 17.992188 C 20.25 17.992188 20.054688 18.1875 20.054688 18.421875 C 20.054688 18.660156 20.25 18.851562 20.484375 18.851562 Z M 20.484375 18.851562 " fill-opacity="1" fill-rule="nonzero"/><path fill="#7453fc" d="M 20.484375 20.570312 L 20.914062 20.570312 C 21.148438 20.570312 21.34375 20.375 21.34375 20.140625 C 21.34375 19.90625 21.148438 19.710938 20.914062 19.710938 L 20.484375 19.710938 C 20.25 19.710938 20.054688 19.90625 20.054688 20.140625 C 20.054688 20.375 20.25 20.570312 20.484375 20.570312 Z M 20.484375 20.570312 " fill-opacity="1" fill-rule="nonzero"/><path fill="#7453fc" d="M 20.484375 22.289062 L 20.914062 22.289062 C 21.148438 22.289062 21.34375 22.09375 21.34375 21.859375 C 21.34375 21.621094 21.148438 21.429688 20.914062 21.429688 L 20.484375 21.429688 C 20.25 21.429688 20.054688 21.621094 20.054688 21.859375 C 20.054688 22.09375 20.25 22.289062 20.484375 22.289062 Z M 20.484375 22.289062 " fill-opacity="1" fill-rule="nonzero"/><g clip-path="url(#0875bbf737)"><path fill="#7453fc" d="M 23.058594 22.996094 L 23.058594 14.277344 C 23.058594 13.828125 22.695312 13.484375 22.179688 13.484375 C 22.179688 13.484375 20.441406 13.484375 20.441406 13.484375 C 20.421875 13.460938 15.570312 9.746094 15.550781 9.726562 L 15.550781 8.542969 C 15.59375 8.542969 15.613281 8.542969 15.65625 8.542969 C 16.023438 8.542969 16.367188 8.351562 16.625 8.222656 C 17.136719 7.945312 17.222656 7.945312 17.375 8.136719 C 17.503906 8.265625 17.675781 8.308594 17.847656 8.246094 C 18.019531 8.179688 18.125 8.03125 18.125 7.835938 L 18.125 6.246094 C 18.125 6.140625 18.082031 6.03125 18.019531 5.96875 C 17.351562 5.238281 16.644531 5.644531 16.195312 5.882812 C 15.679688 6.160156 15.59375 6.160156 15.441406 5.96875 C 15.316406 5.839844 15.144531 5.796875 14.972656 5.859375 C 14.800781 5.925781 14.691406 6.074219 14.691406 6.269531 L 14.691406 9.746094 C 14.671875 9.746094 9.777344 13.484375 9.777344 13.484375 L 8.042969 13.484375 C 7.570312 13.484375 7.160156 13.871094 7.160156 14.34375 L 7.160156 23.019531 C 6.667969 23.191406 6.304688 23.664062 6.304688 24.21875 L 6.304688 25.078125 C 6.304688 25.316406 6.496094 25.507812 6.734375 25.507812 L 23.46875 25.507812 C 23.703125 25.507812 23.898438 25.316406 23.898438 25.078125 L 23.898438 24.21875 C 23.917969 23.664062 23.554688 23.191406 23.058594 22.996094 Z M 15.550781 6.933594 C 15.957031 6.976562 16.34375 6.761719 16.625 6.613281 C 17.007812 6.398438 17.160156 6.355469 17.265625 6.417969 L 17.265625 7.128906 C 16.859375 7.085938 16.472656 7.300781 16.195312 7.449219 C 15.808594 7.664062 15.65625 7.707031 15.550781 7.644531 Z M 8.0625 14.34375 L 9.886719 14.34375 C 10.101562 14.34375 10.25 14.214844 10.335938 14.148438 C 10.335938 14.148438 15.121094 10.476562 15.121094 10.476562 C 15.121094 10.476562 19.90625 14.148438 19.90625 14.148438 C 19.992188 14.214844 20.140625 14.34375 20.355469 14.34375 L 22.179688 14.34375 C 22.179688 14.34375 22.179688 14.34375 22.203125 14.34375 L 22.203125 15.632812 L 8.0625 15.632812 Z M 8.042969 16.488281 L 22.203125 16.488281 L 22.203125 22.933594 L 17.050781 22.933594 L 17.050781 19.28125 C 17.050781 18.207031 16.195312 17.347656 15.121094 17.347656 C 14.046875 17.347656 13.191406 18.207031 13.191406 19.28125 L 13.191406 22.933594 L 8.042969 22.933594 Z M 16.195312 19.28125 L 16.195312 22.933594 L 14.046875 22.933594 L 14.046875 19.28125 C 14.046875 18.679688 14.519531 18.207031 15.121094 18.207031 C 15.722656 18.207031 16.195312 18.679688 16.195312 19.28125 Z M 23.058594 24.648438 L 7.183594 24.648438 L 7.183594 24.21875 C 7.183594 23.984375 7.375 23.792969 7.613281 23.792969 L 22.628906 23.792969 C 22.867188 23.792969 23.058594 23.984375 23.058594 24.21875 Z M 23.058594 24.648438 " fill-opacity="1" fill-rule="nonzero"/></g><g clip-path="url(#8733571103)"><path fill="#7453fc" d="M 2.25 22.71875 C 2.25 22.480469 2.441406 22.289062 2.675781 22.289062 L 6.324219 22.289062 L 6.324219 21.429688 L 3.105469 21.429688 L 3.105469 14.988281 L 6.324219 14.988281 L 6.324219 14.34375 C 6.324219 14.277344 6.324219 14.191406 6.347656 14.128906 L 3.128906 14.128906 L 3.128906 12.839844 L 4.953125 12.839844 C 5.167969 12.839844 5.316406 12.710938 5.402344 12.644531 C 5.402344 12.644531 10.1875 8.972656 10.1875 8.972656 L 12.203125 10.519531 L 12.910156 9.984375 C 12.910156 9.984375 10.617188 8.246094 10.59375 8.222656 L 10.59375 7.042969 C 10.636719 7.042969 10.660156 7.042969 10.703125 7.042969 C 11.066406 7.042969 11.410156 6.847656 11.667969 6.71875 C 12.183594 6.441406 12.269531 6.441406 12.417969 6.632812 C 12.546875 6.761719 12.71875 6.804688 12.890625 6.742188 C 13.0625 6.675781 13.167969 6.527344 13.167969 6.332031 L 13.167969 4.742188 C 13.167969 4.636719 13.125 4.53125 13.0625 4.464844 C 12.398438 3.734375 11.6875 4.144531 11.238281 4.378906 C 10.722656 4.65625 10.636719 4.65625 10.488281 4.464844 C 10.359375 4.335938 10.1875 4.292969 10.015625 4.359375 C 9.84375 4.421875 9.734375 4.570312 9.734375 4.765625 L 9.734375 8.246094 C 9.734375 8.246094 4.84375 11.980469 4.84375 11.980469 L 3.128906 11.980469 C 2.632812 11.980469 2.25 12.367188 2.25 12.839844 L 2.25 21.515625 C 1.753906 21.6875 1.390625 22.160156 1.390625 22.71875 L 1.390625 23.578125 C 1.390625 23.8125 1.582031 24.003906 1.820312 24.003906 L 5.488281 24.003906 C 5.507812 23.707031 5.617188 23.40625 5.765625 23.148438 L 2.25 23.148438 Z M 10.617188 5.429688 C 11.023438 5.472656 11.410156 5.257812 11.6875 5.109375 C 12.074219 4.894531 12.226562 4.851562 12.332031 4.914062 L 12.332031 5.625 C 11.925781 5.582031 11.539062 5.796875 11.257812 5.945312 C 10.875 6.160156 10.722656 6.203125 10.617188 6.140625 Z M 10.617188 5.429688 " fill-opacity="1" fill-rule="nonzero"/></g><g clip-path="url(#2800e50030)"><path fill="#7453fc" d="M 27.996094 21.492188 L 27.996094 12.773438 C 27.996094 12.324219 27.628906 11.980469 27.113281 11.980469 C 27.113281 11.980469 25.378906 11.980469 25.378906 11.980469 C 25.355469 11.960938 20.507812 8.246094 20.484375 8.246094 L 20.484375 7.042969 C 20.527344 7.042969 20.550781 7.042969 20.59375 7.042969 C 20.957031 7.042969 21.300781 6.847656 21.558594 6.71875 C 22.074219 6.441406 22.160156 6.441406 22.308594 6.632812 C 22.4375 6.761719 22.609375 6.804688 22.78125 6.742188 C 22.953125 6.675781 23.058594 6.527344 23.058594 6.332031 L 23.058594 4.742188 C 23.058594 4.636719 23.015625 4.53125 22.953125 4.464844 C 22.289062 3.734375 21.578125 4.144531 21.128906 4.378906 C 20.613281 4.65625 20.527344 4.65625 20.378906 4.464844 C 20.25 4.335938 20.078125 4.292969 19.90625 4.359375 C 19.734375 4.421875 19.628906 4.570312 19.628906 4.765625 L 19.628906 8.246094 C 19.605469 8.265625 17.308594 10.003906 17.308594 10.003906 L 18.019531 10.542969 L 20.054688 8.972656 C 20.054688 8.972656 24.839844 12.644531 24.839844 12.644531 C 24.925781 12.710938 25.097656 12.839844 25.292969 12.839844 C 25.292969 12.839844 27.113281 12.839844 27.113281 12.839844 L 27.113281 14.128906 L 23.898438 14.128906 C 23.898438 14.171875 23.898438 14.988281 23.898438 14.988281 L 27.113281 14.988281 L 27.113281 21.429688 L 23.898438 21.429688 L 23.898438 22.289062 L 27.542969 22.289062 C 27.78125 22.289062 27.972656 22.480469 27.972656 22.71875 L 27.972656 23.148438 L 24.453125 23.148438 C 24.605469 23.40625 24.710938 23.707031 24.734375 24.003906 L 28.421875 24.003906 C 28.660156 24.003906 28.851562 23.8125 28.851562 23.578125 L 28.851562 22.71875 C 28.851562 22.160156 28.488281 21.6875 27.996094 21.492188 Z M 20.484375 5.429688 C 20.894531 5.472656 21.277344 5.257812 21.558594 5.109375 C 21.945312 4.894531 22.09375 4.851562 22.203125 4.914062 L 22.203125 5.625 C 21.792969 5.582031 21.40625 5.796875 21.128906 5.945312 C 20.742188 6.160156 20.59375 6.203125 20.484375 6.140625 Z M 20.484375 5.429688 " fill-opacity="1" fill-rule="nonzero"/></g><path fill="#7453fc" d="M 20.742188 12.625 L 21.171875 12.625 C 21.277344 12.429688 21.34375 12.21875 21.34375 11.980469 C 21.34375 11.273438 20.765625 10.691406 20.054688 10.691406 C 19.605469 10.691406 19.21875 10.929688 18.984375 11.273438 L 19.667969 11.808594 C 19.734375 11.660156 19.882812 11.574219 20.054688 11.574219 C 20.292969 11.574219 20.484375 11.765625 20.484375 12.003906 C 20.484375 12.132812 20.421875 12.238281 20.335938 12.324219 Z M 20.742188 12.625 " fill-opacity="1" fill-rule="nonzero"/></svg>