<svg xmlns="http://www.w3.org/2000/svg" xmlns:xlink="http://www.w3.org/1999/xlink" width="40" zoomAndPan="magnify" viewBox="0 0 30 30.000001" height="40" preserveAspectRatio="xMidYMid meet" version="1.0"><defs><clipPath id="a6b170ebbf"><path d="M 5.296875 1.136719 L 24.894531 1.136719 L 24.894531 27.988281 L 5.296875 27.988281 Z M 5.296875 1.136719 " clip-rule="nonzero"/></clipPath></defs><g clip-path="url(#a6b170ebbf)"><path fill="#7453fc" d="M 13.53125 22.980469 C 13.148438 21.867188 12.445312 20.890625 11.511719 20.171875 L 9.214844 18.402344 C 6.859375 16.585938 5.425781 13.828125 5.300781 10.863281 C 5.300781 5.492188 9.6875 1.136719 15.097656 1.136719 C 20.507812 1.136719 24.890625 5.492188 24.890625 10.863281 C 24.769531 13.828125 23.335938 16.585938 20.980469 18.402344 L 18.683594 20.171875 C 17.75 20.890625 17.046875 21.867188 16.664062 22.980469 L 16.394531 23.761719 C 16.203125 24.3125 15.683594 24.679688 15.097656 24.679688 C 14.511719 24.679688 13.988281 24.3125 13.800781 23.761719 Z M 15.097656 27.988281 C 12.933594 27.988281 11.179688 27.726562 11.179688 27.40625 C 11.179688 27.082031 12.933594 26.820312 15.097656 26.820312 C 17.261719 26.820312 19.015625 27.082031 19.015625 27.40625 C 19.015625 27.726562 17.261719 27.988281 15.097656 27.988281 Z M 15.097656 18.453125 C 19.425781 18.453125 22.933594 14.96875 22.933594 10.671875 C 22.933594 6.371094 19.425781 2.886719 15.097656 2.886719 C 10.769531 2.886719 7.261719 6.371094 7.261719 10.671875 C 7.261719 14.96875 10.769531 18.453125 15.097656 18.453125 Z M 13.667969 10 L 14.023438 16.09375 C 14.046875 16.457031 13.652344 16.765625 13.207031 16.785156 C 12.761719 16.804688 12.335938 16.527344 12.316406 16.167969 C 12.3125 16.140625 12.3125 16.117188 12.316406 16.09375 L 12.671875 10 C 12.042969 9.859375 11.765625 9.304688 11.765625 8.640625 L 11.765625 5.472656 C 11.765625 5.335938 11.878906 5.222656 12.019531 5.222656 C 12.160156 5.222656 12.277344 5.335938 12.277344 5.472656 L 12.277344 8.054688 C 12.277344 8.125 12.332031 8.179688 12.402344 8.179688 C 12.476562 8.179688 12.53125 8.125 12.53125 8.054688 L 12.53125 5.472656 C 12.53125 5.335938 12.648438 5.222656 12.789062 5.222656 C 12.925781 5.222656 13.042969 5.335938 13.042969 5.472656 L 13.042969 8.054688 C 13.042969 8.125 13.097656 8.179688 13.171875 8.179688 C 13.242188 8.179688 13.296875 8.125 13.296875 8.054688 L 13.296875 5.472656 C 13.296875 5.335938 13.414062 5.222656 13.554688 5.222656 C 13.691406 5.222656 13.808594 5.335938 13.808594 5.472656 L 13.808594 8.054688 C 13.808594 8.125 13.863281 8.179688 13.9375 8.179688 C 14.007812 8.179688 14.0625 8.125 14.0625 8.054688 L 14.0625 5.472656 C 14.0625 5.335938 14.179688 5.222656 14.320312 5.222656 C 14.460938 5.222656 14.574219 5.335938 14.574219 5.472656 L 14.574219 8.640625 C 14.574219 9.304688 14.296875 9.859375 13.667969 10 Z M 18.625 11.625 L 18.625 15.984375 C 18.625 16.429688 18.21875 16.789062 17.722656 16.789062 C 17.222656 16.789062 16.820312 16.429688 16.820312 15.984375 L 16.820312 11.980469 L 16.230469 11.789062 L 16.230469 7.527344 C 16.230469 6.253906 17.195312 5.222656 18.625 5.222656 Z M 18.625 11.625 " fill-opacity="1" fill-rule="nonzero"/></g></svg>