<svg xmlns="http://www.w3.org/2000/svg" xmlns:xlink="http://www.w3.org/1999/xlink" width="40" zoomAndPan="magnify" viewBox="0 0 30 30.000001" height="40" preserveAspectRatio="xMidYMid meet" version="1.0"><defs><clipPath id="c65fe01431"><path d="M 10 4.417969 L 21 4.417969 L 21 24.738281 L 10 24.738281 Z M 10 4.417969 " clip-rule="nonzero"/></clipPath><clipPath id="0ff425706f"><path d="M 17 10 L 28.242188 10 L 28.242188 24.738281 L 17 24.738281 Z M 17 10 " clip-rule="nonzero"/></clipPath><clipPath id="dd5ab66cb7"><path d="M 2.113281 10 L 13 10 L 13 24.738281 L 2.113281 24.738281 Z M 2.113281 10 " clip-rule="nonzero"/></clipPath></defs><g clip-path="url(#c65fe01431)"><path fill="#7453fc" d="M 15.34375 9.808594 L 15.34375 7.210938 C 15.828125 7.109375 16.328125 7.1875 16.851562 7.269531 C 17.210938 7.324219 17.578125 7.382812 17.949219 7.382812 C 18.242188 7.386719 18.527344 7.34375 18.804688 7.261719 L 18.996094 7.199219 L 18.996094 4.515625 L 18.640625 4.628906 C 18.09375 4.800781 17.53125 4.710938 16.9375 4.617188 C 16.308594 4.519531 15.65625 4.417969 14.988281 4.628906 L 14.796875 4.6875 L 14.796875 9.828125 L 10.273438 14.371094 L 10.273438 24.734375 L 12.949219 24.734375 L 12.949219 20.714844 C 12.949219 19.507812 13.910156 18.492188 15.125 18.464844 C 15.425781 18.457031 15.714844 18.507812 15.992188 18.617188 C 16.273438 18.726562 16.519531 18.886719 16.734375 19.09375 C 16.949219 19.300781 17.113281 19.542969 17.230469 19.816406 C 17.347656 20.089844 17.40625 20.378906 17.40625 20.675781 L 17.40625 24.734375 L 20.085938 24.734375 L 20.085938 14.375 Z M 15.179688 16.617188 C 14.859375 16.617188 14.550781 16.558594 14.253906 16.433594 C 13.957031 16.3125 13.695312 16.140625 13.472656 15.914062 C 13.246094 15.691406 13.070312 15.433594 12.945312 15.136719 C 12.824219 14.84375 12.761719 14.539062 12.761719 14.222656 C 12.761719 13.902344 12.824219 13.597656 12.945312 13.304688 C 13.070312 13.011719 13.246094 12.75 13.472656 12.527344 C 13.695312 12.300781 13.957031 12.128906 14.253906 12.007812 C 14.550781 11.886719 14.859375 11.824219 15.179688 11.824219 C 15.5 11.824219 15.808594 11.886719 16.101562 12.007812 C 16.398438 12.128906 16.660156 12.300781 16.886719 12.527344 C 17.113281 12.75 17.289062 13.011719 17.410156 13.304688 C 17.53125 13.597656 17.59375 13.902344 17.59375 14.222656 C 17.59375 14.539062 17.53125 14.84375 17.410156 15.136719 C 17.285156 15.429688 17.113281 15.691406 16.886719 15.914062 C 16.660156 16.140625 16.398438 16.3125 16.101562 16.433594 C 15.804688 16.554688 15.5 16.617188 15.179688 16.617188 Z M 15.179688 16.617188 " fill-opacity="1" fill-rule="nonzero"/></g><path fill="#7453fc" d="M 15.179688 12.546875 C 14.953125 12.546875 14.738281 12.589844 14.53125 12.675781 C 14.328125 12.761719 14.144531 12.882812 13.984375 13.039062 C 13.828125 13.195312 13.707031 13.375 13.621094 13.582031 C 13.535156 13.785156 13.492188 14 13.492188 14.222656 C 13.492188 14.445312 13.535156 14.65625 13.621094 14.863281 C 13.707031 15.066406 13.828125 15.246094 13.984375 15.40625 C 14.144531 15.5625 14.328125 15.683594 14.53125 15.765625 C 14.738281 15.851562 14.953125 15.894531 15.179688 15.894531 C 15.402344 15.894531 15.617188 15.851562 15.824219 15.765625 C 16.03125 15.683594 16.210938 15.5625 16.371094 15.40625 C 16.527344 15.246094 16.652344 15.066406 16.738281 14.863281 C 16.820312 14.65625 16.863281 14.445312 16.863281 14.222656 C 16.863281 14 16.820312 13.785156 16.734375 13.582031 C 16.648438 13.375 16.527344 13.195312 16.371094 13.039062 C 16.210938 12.882812 16.03125 12.761719 15.824219 12.675781 C 15.617188 12.589844 15.402344 12.546875 15.179688 12.546875 Z M 16.15625 14.460938 L 15.179688 14.460938 C 15.113281 14.460938 15.054688 14.4375 15.007812 14.390625 C 14.960938 14.34375 14.9375 14.289062 14.9375 14.222656 L 14.9375 13.253906 C 14.9375 13.1875 14.960938 13.128906 15.007812 13.082031 C 15.054688 13.035156 15.113281 13.011719 15.179688 13.011719 C 15.246094 13.011719 15.304688 13.035156 15.351562 13.082031 C 15.398438 13.128906 15.421875 13.1875 15.421875 13.253906 L 15.421875 13.980469 L 16.15625 13.980469 C 16.222656 13.980469 16.277344 14.003906 16.324219 14.050781 C 16.375 14.097656 16.398438 14.15625 16.398438 14.222656 C 16.398438 14.289062 16.375 14.34375 16.324219 14.390625 C 16.277344 14.4375 16.222656 14.460938 16.15625 14.460938 Z M 16.15625 14.460938 " fill-opacity="1" fill-rule="nonzero"/><g clip-path="url(#0ff425706f)"><path fill="#7453fc" d="M 27.859375 24.011719 L 26.574219 24.011719 L 26.574219 14.582031 L 27.769531 14.582031 C 27.871094 14.582031 27.957031 14.546875 28.027344 14.476562 C 28.097656 14.40625 28.132812 14.320312 28.132812 14.222656 L 28.132812 13.429688 C 28.132812 13.320312 28.089844 13.230469 28.007812 13.15625 L 25.234375 10.734375 C 25.164062 10.675781 25.082031 10.644531 24.992188 10.644531 L 17.257812 10.644531 L 20.597656 13.859375 L 20.703125 13.960938 C 20.777344 14.03125 20.8125 14.121094 20.8125 14.222656 L 20.8125 24.734375 L 27.859375 24.734375 C 27.960938 24.734375 28.046875 24.703125 28.117188 24.628906 C 28.191406 24.558594 28.226562 24.472656 28.226562 24.375 C 28.226562 24.273438 28.191406 24.1875 28.117188 24.117188 C 28.046875 24.046875 27.960938 24.011719 27.859375 24.011719 Z M 24.671875 21.898438 C 24.671875 22 24.636719 22.085938 24.566406 22.15625 C 24.496094 22.226562 24.410156 22.261719 24.308594 22.261719 L 22.445312 22.261719 C 22.34375 22.261719 22.257812 22.226562 22.1875 22.15625 C 22.117188 22.085938 22.082031 22 22.082031 21.898438 L 22.082031 20.050781 C 22.082031 19.949219 22.117188 19.867188 22.1875 19.796875 C 22.257812 19.722656 22.34375 19.6875 22.445312 19.6875 L 24.308594 19.6875 C 24.410156 19.6875 24.496094 19.722656 24.566406 19.796875 C 24.636719 19.867188 24.671875 19.949219 24.671875 20.050781 Z M 24.671875 18.496094 C 24.671875 18.597656 24.636719 18.679688 24.566406 18.75 C 24.496094 18.820312 24.410156 18.859375 24.308594 18.855469 L 22.445312 18.855469 C 22.34375 18.855469 22.257812 18.820312 22.1875 18.75 C 22.117188 18.679688 22.082031 18.597656 22.082031 18.496094 L 22.082031 16.648438 C 22.082031 16.546875 22.117188 16.460938 22.1875 16.390625 C 22.257812 16.320312 22.34375 16.285156 22.445312 16.285156 L 24.308594 16.285156 C 24.410156 16.285156 24.496094 16.320312 24.566406 16.390625 C 24.636719 16.460938 24.671875 16.546875 24.671875 16.648438 Z M 24.671875 18.496094 " fill-opacity="1" fill-rule="nonzero"/></g><g clip-path="url(#dd5ab66cb7)"><path fill="#7453fc" d="M 12.957031 10.644531 L 5.363281 10.644531 C 5.273438 10.644531 5.191406 10.675781 5.125 10.734375 L 2.347656 13.15625 C 2.265625 13.230469 2.222656 13.320312 2.222656 13.429688 L 2.222656 14.222656 C 2.222656 14.320312 2.257812 14.40625 2.332031 14.476562 C 2.402344 14.546875 2.488281 14.582031 2.589844 14.582031 L 3.785156 14.582031 L 3.785156 24.011719 L 2.5 24.011719 C 2.398438 24.011719 2.3125 24.046875 2.238281 24.117188 C 2.167969 24.1875 2.132812 24.273438 2.132812 24.375 C 2.132812 24.472656 2.167969 24.558594 2.238281 24.628906 C 2.3125 24.703125 2.398438 24.734375 2.5 24.734375 L 9.542969 24.734375 L 9.542969 14.222656 C 9.542969 14.121094 9.578125 14.039062 9.648438 13.96875 L 9.753906 13.859375 Z M 8.277344 21.898438 C 8.277344 22 8.242188 22.085938 8.167969 22.15625 C 8.097656 22.226562 8.011719 22.261719 7.910156 22.261719 L 6.046875 22.261719 C 5.949219 22.261719 5.863281 22.226562 5.789062 22.15625 C 5.71875 22.085938 5.683594 22 5.683594 21.898438 L 5.683594 20.050781 C 5.683594 19.949219 5.71875 19.867188 5.789062 19.796875 C 5.863281 19.722656 5.949219 19.6875 6.046875 19.6875 L 7.910156 19.6875 C 8.011719 19.6875 8.097656 19.722656 8.167969 19.796875 C 8.242188 19.867188 8.277344 19.949219 8.277344 20.050781 Z M 8.277344 18.496094 C 8.277344 18.597656 8.242188 18.679688 8.167969 18.75 C 8.097656 18.820312 8.011719 18.855469 7.910156 18.855469 L 6.046875 18.855469 C 5.949219 18.855469 5.863281 18.820312 5.789062 18.75 C 5.71875 18.679688 5.683594 18.597656 5.683594 18.496094 L 5.683594 16.648438 C 5.683594 16.546875 5.71875 16.460938 5.789062 16.390625 C 5.863281 16.320312 5.949219 16.285156 6.046875 16.285156 L 7.910156 16.285156 C 8.011719 16.285156 8.097656 16.320312 8.167969 16.390625 C 8.242188 16.460938 8.277344 16.546875 8.277344 16.648438 Z M 8.277344 18.496094 " fill-opacity="1" fill-rule="nonzero"/></g></svg>