<svg xmlns="http://www.w3.org/2000/svg" xmlns:xlink="http://www.w3.org/1999/xlink" width="80" zoomAndPan="magnify" viewBox="0 0 60 30.000001" height="40" preserveAspectRatio="xMidYMid meet" version="1.0"><defs><g/></defs><g fill="#161512" fill-opacity="1"><g transform="translate(3.500214, 16.028084)"><g><path d="M 0.828125 -6.71875 L 3.265625 -6.71875 C 3.929688 -6.71875 4.429688 -6.582031 4.765625 -6.3125 C 5.097656 -6.039062 5.265625 -5.609375 5.265625 -5.015625 C 5.265625 -4.597656 5.191406 -4.269531 5.046875 -4.03125 C 4.898438 -3.789062 4.6875 -3.601562 4.40625 -3.46875 C 5.113281 -3.21875 5.46875 -2.691406 5.46875 -1.890625 C 5.46875 -1.210938 5.289062 -0.726562 4.9375 -0.4375 C 4.582031 -0.144531 4.066406 0 3.390625 0 L 0.828125 0 Z M 3.3125 -3.09375 L 1.578125 -3.09375 L 1.578125 -0.65625 L 3.359375 -0.65625 C 3.804688 -0.65625 4.144531 -0.75 4.375 -0.9375 C 4.601562 -1.125 4.71875 -1.453125 4.71875 -1.921875 C 4.71875 -2.160156 4.671875 -2.363281 4.578125 -2.53125 C 4.484375 -2.707031 4.359375 -2.828125 4.203125 -2.890625 C 3.910156 -3.023438 3.613281 -3.09375 3.3125 -3.09375 Z M 3.234375 -6.0625 L 1.578125 -6.0625 L 1.578125 -3.734375 L 3.296875 -3.734375 C 3.710938 -3.734375 4.015625 -3.832031 4.203125 -4.03125 C 4.398438 -4.226562 4.5 -4.523438 4.5 -4.921875 C 4.5 -5.328125 4.394531 -5.617188 4.1875 -5.796875 C 3.988281 -5.972656 3.671875 -6.0625 3.234375 -6.0625 Z M 3.234375 -6.0625 "/></g></g></g><g fill="#161512" fill-opacity="1"><g transform="translate(10.967235, 16.028084)"><g><path d="M 0.828125 0 L 0.828125 -6.71875 L 4.921875 -6.71875 L 4.921875 -6.0625 L 1.578125 -6.0625 L 1.578125 -3.734375 L 4.328125 -3.734375 L 4.328125 -3.09375 L 1.578125 -3.09375 L 1.578125 -0.65625 L 4.921875 -0.65625 L 4.921875 0 Z M 0.828125 0 "/></g></g></g><g fill="#161512" fill-opacity="1"><g transform="translate(17.821784, 16.028084)"><g><path d="M 2.6875 -6.171875 C 1.707031 -6.171875 1.21875 -5.804688 1.21875 -5.078125 C 1.21875 -4.660156 1.328125 -4.375 1.546875 -4.21875 C 1.773438 -4.070312 2.234375 -3.921875 2.921875 -3.765625 C 3.609375 -3.617188 4.09375 -3.421875 4.375 -3.171875 C 4.65625 -2.929688 4.796875 -2.535156 4.796875 -1.984375 C 4.796875 -0.597656 4.082031 0.09375 2.65625 0.09375 C 2.175781 0.09375 1.582031 0.0351562 0.875 -0.078125 L 0.53125 -0.125 L 0.609375 -0.75 C 1.484375 -0.632812 2.148438 -0.578125 2.609375 -0.578125 C 3.566406 -0.578125 4.046875 -1.023438 4.046875 -1.921875 C 4.046875 -2.285156 3.941406 -2.546875 3.734375 -2.703125 C 3.523438 -2.859375 3.132812 -2.992188 2.5625 -3.109375 C 1.800781 -3.273438 1.257812 -3.484375 0.9375 -3.734375 C 0.625 -3.992188 0.46875 -4.425781 0.46875 -5.03125 C 0.46875 -6.226562 1.191406 -6.828125 2.640625 -6.828125 C 3.109375 -6.828125 3.671875 -6.78125 4.328125 -6.6875 L 4.671875 -6.640625 L 4.59375 -6 C 3.695312 -6.113281 3.0625 -6.171875 2.6875 -6.171875 Z M 2.6875 -6.171875 "/></g></g></g><g fill="#161512" fill-opacity="1"><g transform="translate(24.569393, 16.028084)"><g><path d="M 0.125 -6.0625 L 0.125 -6.71875 L 4.984375 -6.71875 L 4.984375 -6.0625 L 2.9375 -6.0625 L 2.9375 0 L 2.203125 0 L 2.203125 -6.0625 Z M 0.125 -6.0625 "/></g></g></g><g fill="#161512" fill-opacity="1"><g transform="translate(31.161457, 16.028084)"><g><path d="M 0.234375 0 L 2.078125 -6.71875 L 3.71875 -6.71875 L 5.5625 0 L 4.828125 0 L 4.328125 -1.734375 L 1.453125 -1.734375 L 0.96875 0 Z M 2.640625 -6.078125 L 1.625 -2.40625 L 4.171875 -2.40625 L 3.15625 -6.078125 Z M 1.546875 -7.859375 L 1.546875 -8.734375 L 2.25 -8.734375 L 2.25 -7.859375 Z M 3.53125 -7.859375 L 3.53125 -8.734375 L 4.234375 -8.734375 L 4.234375 -7.859375 Z M 3.53125 -7.859375 "/></g></g></g><g fill="#161512" fill-opacity="1"><g transform="translate(38.434043, 16.028084)"><g><path d="M 4.53125 0 L 0.828125 0 L 0.828125 -6.71875 L 1.578125 -6.71875 L 1.578125 -0.671875 L 4.53125 -0.671875 Z M 4.53125 0 "/></g></g></g><g fill="#161512" fill-opacity="1"><g transform="translate(44.569185, 16.028084)"><g><path d="M 4.53125 0 L 0.828125 0 L 0.828125 -6.71875 L 1.578125 -6.71875 L 1.578125 -0.671875 L 4.53125 -0.671875 Z M 4.53125 0 "/></g></g></g><g fill="#161512" fill-opacity="1"><g transform="translate(50.704327, 16.028084)"><g><path d="M 0.234375 0 L 2.078125 -6.71875 L 3.71875 -6.71875 L 5.5625 0 L 4.828125 0 L 4.328125 -1.734375 L 1.453125 -1.734375 L 0.96875 0 Z M 2.640625 -6.078125 L 1.625 -2.40625 L 4.171875 -2.40625 L 3.15625 -6.078125 Z M 2.640625 -6.078125 "/></g></g></g><g fill="#663503" fill-opacity="1"><g transform="translate(20.595381, 21.129297)"><g><path d="M 0.3125 -2.15625 L 1.3125 -2.15625 C 1.519531 -2.15625 1.664062 -2.109375 1.75 -2.015625 C 1.84375 -1.921875 1.890625 -1.785156 1.890625 -1.609375 C 1.890625 -1.460938 1.859375 -1.347656 1.796875 -1.265625 C 1.734375 -1.179688 1.640625 -1.128906 1.515625 -1.109375 L 1.515625 -1.09375 C 1.660156 -1.0625 1.757812 -1 1.8125 -0.90625 C 1.875 -0.820312 1.90625 -0.707031 1.90625 -0.5625 C 1.90625 -0.382812 1.859375 -0.242188 1.765625 -0.140625 C 1.679688 -0.046875 1.523438 0 1.296875 0 L 0.3125 0 Z M 1.21875 -1.21875 C 1.351562 -1.21875 1.453125 -1.242188 1.515625 -1.296875 C 1.578125 -1.347656 1.609375 -1.4375 1.609375 -1.5625 C 1.609375 -1.644531 1.597656 -1.707031 1.578125 -1.75 C 1.554688 -1.800781 1.515625 -1.835938 1.453125 -1.859375 C 1.398438 -1.890625 1.320312 -1.90625 1.21875 -1.90625 L 0.578125 -1.90625 L 0.578125 -1.21875 Z M 1.234375 -0.25 C 1.335938 -0.25 1.414062 -0.257812 1.46875 -0.28125 C 1.53125 -0.300781 1.570312 -0.335938 1.59375 -0.390625 C 1.625 -0.441406 1.640625 -0.515625 1.640625 -0.609375 C 1.640625 -0.734375 1.609375 -0.820312 1.546875 -0.875 C 1.484375 -0.9375 1.378906 -0.96875 1.234375 -0.96875 L 0.578125 -0.96875 L 0.578125 -0.25 Z M 1.234375 -0.25 "/></g></g></g><g fill="#663503" fill-opacity="1"><g transform="translate(22.728802, 21.129297)"><g><path d="M 0.3125 0 L 0.3125 -2.15625 L 1.71875 -2.15625 L 1.71875 -1.90625 L 0.578125 -1.90625 L 0.578125 -1.203125 L 1.5625 -1.203125 L 1.5625 -0.953125 L 0.578125 -0.953125 L 0.578125 -0.25 L 1.71875 -0.25 L 1.71875 0 Z M 0.3125 0 "/></g></g></g><g fill="#663503" fill-opacity="1"><g transform="translate(24.618225, 21.129297)"><g><path d="M 1.03125 0.03125 C 0.914062 0.03125 0.785156 0.0234375 0.640625 0.015625 C 0.503906 0.00390625 0.378906 -0.00390625 0.265625 -0.015625 L 0.265625 -0.265625 C 0.535156 -0.234375 0.765625 -0.21875 0.953125 -0.21875 C 1.066406 -0.21875 1.15625 -0.222656 1.21875 -0.234375 C 1.28125 -0.242188 1.335938 -0.265625 1.390625 -0.296875 C 1.429688 -0.316406 1.457031 -0.347656 1.46875 -0.390625 C 1.476562 -0.441406 1.484375 -0.507812 1.484375 -0.59375 C 1.484375 -0.695312 1.476562 -0.765625 1.46875 -0.796875 C 1.457031 -0.835938 1.429688 -0.867188 1.390625 -0.890625 C 1.359375 -0.910156 1.296875 -0.925781 1.203125 -0.9375 L 0.671875 -1 C 0.535156 -1.007812 0.4375 -1.035156 0.375 -1.078125 C 0.3125 -1.128906 0.265625 -1.191406 0.234375 -1.265625 C 0.210938 -1.347656 0.203125 -1.445312 0.203125 -1.5625 C 0.203125 -1.738281 0.234375 -1.867188 0.296875 -1.953125 C 0.359375 -2.046875 0.441406 -2.101562 0.546875 -2.125 C 0.648438 -2.15625 0.796875 -2.171875 0.984375 -2.171875 C 1.097656 -2.171875 1.21875 -2.164062 1.34375 -2.15625 C 1.46875 -2.144531 1.566406 -2.132812 1.640625 -2.125 L 1.640625 -1.890625 C 1.566406 -1.898438 1.46875 -1.90625 1.34375 -1.90625 C 1.226562 -1.914062 1.125 -1.921875 1.03125 -1.921875 C 0.914062 -1.921875 0.820312 -1.914062 0.75 -1.90625 C 0.675781 -1.894531 0.617188 -1.878906 0.578125 -1.859375 C 0.535156 -1.828125 0.507812 -1.789062 0.5 -1.75 C 0.488281 -1.707031 0.484375 -1.648438 0.484375 -1.578125 C 0.484375 -1.492188 0.488281 -1.429688 0.5 -1.390625 C 0.507812 -1.347656 0.53125 -1.316406 0.5625 -1.296875 C 0.601562 -1.285156 0.664062 -1.273438 0.75 -1.265625 L 1.265625 -1.203125 C 1.390625 -1.191406 1.484375 -1.171875 1.546875 -1.140625 C 1.617188 -1.109375 1.671875 -1.050781 1.703125 -0.96875 C 1.734375 -0.894531 1.75 -0.773438 1.75 -0.609375 C 1.75 -0.421875 1.71875 -0.28125 1.65625 -0.1875 C 1.601562 -0.09375 1.523438 -0.03125 1.421875 0 C 1.328125 0.0195312 1.195312 0.03125 1.03125 0.03125 Z M 1.03125 0.03125 "/></g></g></g><g fill="#663503" fill-opacity="1"><g transform="translate(26.585853, 21.129297)"><g><path d="M 0.78125 0 L 0.78125 -1.890625 L 0.09375 -1.890625 L 0.09375 -2.15625 L 1.71875 -2.15625 L 1.71875 -1.890625 L 1.046875 -1.890625 L 1.046875 0 Z M 0.78125 0 "/></g></g></g><g fill="#663503" fill-opacity="1"><g transform="translate(28.406458, 21.129297)"><g/></g></g><g fill="#663503" fill-opacity="1"><g transform="translate(29.141583, 21.129297)"><g><path d="M 1.125 0.03125 C 0.832031 0.03125 0.628906 0.00390625 0.515625 -0.046875 C 0.398438 -0.109375 0.320312 -0.207031 0.28125 -0.34375 C 0.25 -0.488281 0.234375 -0.734375 0.234375 -1.078125 C 0.234375 -1.410156 0.25 -1.644531 0.28125 -1.78125 C 0.320312 -1.925781 0.398438 -2.023438 0.515625 -2.078125 C 0.628906 -2.140625 0.832031 -2.171875 1.125 -2.171875 C 1.40625 -2.171875 1.601562 -2.140625 1.71875 -2.078125 C 1.84375 -2.023438 1.921875 -1.925781 1.953125 -1.78125 C 1.984375 -1.644531 2 -1.410156 2 -1.078125 C 2 -0.734375 1.984375 -0.488281 1.953125 -0.34375 C 1.921875 -0.207031 1.84375 -0.109375 1.71875 -0.046875 C 1.601562 0.00390625 1.40625 0.03125 1.125 0.03125 Z M 1.125 -0.21875 C 1.332031 -0.21875 1.472656 -0.234375 1.546875 -0.265625 C 1.628906 -0.296875 1.679688 -0.363281 1.703125 -0.46875 C 1.722656 -0.570312 1.734375 -0.773438 1.734375 -1.078125 C 1.734375 -1.367188 1.722656 -1.566406 1.703125 -1.671875 C 1.679688 -1.785156 1.628906 -1.851562 1.546875 -1.875 C 1.472656 -1.90625 1.332031 -1.921875 1.125 -1.921875 C 0.90625 -1.921875 0.757812 -1.90625 0.6875 -1.875 C 0.613281 -1.851562 0.5625 -1.785156 0.53125 -1.671875 C 0.507812 -1.566406 0.5 -1.367188 0.5 -1.078125 C 0.5 -0.773438 0.507812 -0.570312 0.53125 -0.46875 C 0.5625 -0.363281 0.613281 -0.296875 0.6875 -0.265625 C 0.757812 -0.234375 0.90625 -0.21875 1.125 -0.21875 Z M 1.125 -0.21875 "/></g></g></g><g fill="#663503" fill-opacity="1"><g transform="translate(31.38762, 21.129297)"><g><path d="M 0.3125 0 L 0.3125 -2.15625 L 1.65625 -2.15625 L 1.65625 -1.90625 L 0.578125 -1.90625 L 0.578125 -1.15625 L 1.53125 -1.15625 L 1.53125 -0.90625 L 0.578125 -0.90625 L 0.578125 0 Z M 0.3125 0 "/></g></g></g><g fill="#663503" fill-opacity="1"><g transform="translate(33.158174, 21.129297)"><g/></g></g><g fill="#663503" fill-opacity="1"><g transform="translate(33.893299, 21.129297)"><g><path d="M 1.765625 0 L 1.546875 -0.578125 L 0.578125 -0.578125 L 0.359375 0 L 0.09375 0 L 0.90625 -2.15625 L 1.234375 -2.15625 L 2.046875 0 Z M 1.078125 -1.859375 L 1.0625 -1.859375 L 0.65625 -0.828125 L 1.46875 -0.828125 Z M 1.078125 -1.859375 "/></g></g></g><g fill="#663503" fill-opacity="1"><g transform="translate(36.032977, 21.129297)"><g><path d="M 0.3125 0 L 0.3125 -2.15625 L 0.578125 -2.15625 L 0.578125 -0.265625 L 1.578125 -0.265625 L 1.578125 0 Z M 0.3125 0 "/></g></g></g><g fill="#663503" fill-opacity="1"><g transform="translate(37.715939, 21.129297)"><g><path d="M 0.3125 0 L 0.3125 -2.15625 L 0.578125 -2.15625 L 0.578125 -0.265625 L 1.578125 -0.265625 L 1.578125 0 Z M 0.3125 0 "/></g></g></g></svg>