<svg xmlns="http://www.w3.org/2000/svg" xmlns:xlink="http://www.w3.org/1999/xlink" width="80" zoomAndPan="magnify" viewBox="0 0 60 44.999999" height="60" preserveAspectRatio="xMidYMid meet" version="1.0"><defs><clipPath id="764da17ac9"><path d="M 11.007812 6.78125 L 49 6.78125 L 49 9 L 11.007812 9 Z M 11.007812 6.78125 " clip-rule="nonzero"/></clipPath><clipPath id="b4691019d3"><path d="M 11.007812 18 L 49 18 L 49 20 L 11.007812 20 Z M 11.007812 18 " clip-rule="nonzero"/></clipPath><clipPath id="e21ed8d57b"><path d="M 11.007812 36 L 49.257812 36 L 49.257812 38.28125 L 11.007812 38.28125 Z M 11.007812 36 " clip-rule="nonzero"/></clipPath></defs><path fill="#e7d0a6" d="M 12.832031 36.617188 L 47.441406 36.617188 L 47.441406 8.449219 L 12.832031 8.449219 Z M 12.832031 36.617188 " fill-opacity="1" fill-rule="nonzero"/><path fill="#ccad84" d="M 14.578125 36.617188 L 12.832031 36.617188 L 12.832031 8.449219 L 14.578125 8.449219 L 14.578125 36.617188 " fill-opacity="1" fill-rule="nonzero"/><path fill="#ac7d61" d="M 14.578125 36.617188 L 15.234375 36.617188 L 15.234375 8.449219 L 14.578125 8.449219 L 14.578125 36.617188 " fill-opacity="1" fill-rule="nonzero"/><path fill="#ccad84" d="M 45.695312 8.449219 L 47.441406 8.449219 L 47.441406 36.617188 L 45.695312 36.617188 L 45.695312 8.449219 " fill-opacity="1" fill-rule="nonzero"/><path fill="#ac7d61" d="M 45.695312 8.449219 L 45.042969 8.449219 L 45.042969 36.617188 L 45.695312 36.617188 L 45.695312 8.449219 " fill-opacity="1" fill-rule="nonzero"/><path fill="#ccad84" d="M 27.667969 19.011719 L 29.410156 19.011719 L 29.410156 36.617188 L 27.667969 36.617188 L 27.667969 19.011719 " fill-opacity="1" fill-rule="nonzero"/><path fill="#ac7d61" d="M 27.667969 19.011719 L 27.011719 19.011719 L 27.011719 36.617188 L 27.667969 36.617188 L 27.667969 19.011719 " fill-opacity="1" fill-rule="nonzero"/><path fill="#5a3114" d="M 43.5625 16.746094 L 16.710938 16.746094 L 16.710938 9.316406 L 43.5625 9.316406 L 43.5625 16.746094 " fill-opacity="1" fill-rule="nonzero"/><path fill="#bf935b" d="M 42.683594 15.683594 L 17.59375 15.683594 L 17.59375 10.378906 L 42.683594 10.378906 L 42.683594 15.683594 " fill-opacity="1" fill-rule="nonzero"/><g clip-path="url(#764da17ac9)"><path fill="#fde5c5" d="M 48.410156 6.808594 L 11.863281 6.808594 L 11.863281 8.449219 L 48.410156 8.449219 L 48.410156 6.808594 " fill-opacity="1" fill-rule="nonzero"/></g><g clip-path="url(#b4691019d3)"><path fill="#fde5c5" d="M 48.410156 18.191406 L 11.863281 18.191406 L 11.863281 19.832031 L 48.410156 19.832031 L 48.410156 18.191406 " fill-opacity="1" fill-rule="nonzero"/></g><g clip-path="url(#e21ed8d57b)"><path fill="#d8c28e" d="M 49.265625 36.617188 L 11.011719 36.617188 L 11.011719 38.257812 L 49.265625 38.257812 L 49.265625 36.617188 " fill-opacity="1" fill-rule="nonzero"/></g><path fill="#351f17" d="M 22.21875 13.484375 C 21.976562 14.097656 21.328125 14.335938 20.90625 14.335938 C 20.226562 14.335938 19.902344 14.035156 19.902344 13.210938 C 19.902344 12.382812 20.300781 10.832031 21.507812 10.832031 C 21.9375 10.832031 22.273438 11 22.273438 11.445312 C 22.273438 11.6875 22.1875 11.867188 21.953125 11.867188 C 21.878906 11.867188 21.777344 11.847656 21.691406 11.746094 C 21.800781 11.691406 21.902344 11.5 21.902344 11.324219 C 21.902344 11.179688 21.828125 11.046875 21.621094 11.046875 C 21.113281 11.046875 20.664062 12.25 20.664062 13.183594 C 20.664062 13.605469 20.773438 13.898438 21.214844 13.898438 C 21.574219 13.898438 21.902344 13.722656 22.113281 13.441406 L 22.21875 13.484375 " fill-opacity="1" fill-rule="nonzero"/><path fill="#351f17" d="M 23.488281 12.917969 C 23.390625 12.894531 23.363281 12.816406 23.363281 12.726562 C 23.363281 12.597656 23.421875 12.515625 23.503906 12.480469 C 23.496094 12.285156 23.449219 12.214844 23.332031 12.214844 C 23.003906 12.214844 22.71875 13.050781 22.71875 13.5 C 22.71875 13.800781 22.78125 13.871094 22.953125 13.871094 C 23.179688 13.871094 23.414062 13.457031 23.488281 12.917969 Z M 23.882812 12.667969 C 23.902344 12.675781 23.917969 12.675781 23.933594 12.675781 C 24.144531 12.675781 24.445312 12.539062 24.640625 12.402344 L 24.683594 12.523438 C 24.507812 12.710938 24.203125 12.851562 23.871094 12.90625 C 23.796875 13.75 23.335938 14.28125 22.769531 14.28125 C 22.34375 14.28125 22.035156 14.082031 22.035156 13.558594 C 22.035156 13.03125 22.347656 11.933594 23.292969 11.933594 C 23.691406 11.933594 23.882812 12.1875 23.882812 12.667969 " fill-opacity="1" fill-rule="nonzero"/><path fill="#351f17" d="M 25.488281 11.238281 C 25.386719 11.238281 25.242188 11.292969 25.175781 11.601562 L 25.09375 11.976562 L 25.546875 11.976562 L 25.652344 11.496094 C 25.664062 11.457031 25.664062 11.429688 25.664062 11.394531 C 25.664062 11.289062 25.578125 11.238281 25.488281 11.238281 Z M 24.644531 14.09375 L 25.121094 14.011719 L 25.511719 12.160156 L 25.054688 12.160156 Z M 24.714844 15 C 24.8125 15 24.925781 14.914062 24.984375 14.644531 L 25.097656 14.121094 L 24.621094 14.210938 L 24.535156 14.628906 C 24.511719 14.734375 24.480469 14.832031 24.449219 14.910156 C 24.488281 14.984375 24.59375 15 24.714844 15 Z M 23.621094 15 C 23.714844 15 23.832031 14.914062 23.890625 14.644531 L 23.945312 14.378906 C 23.65625 14.472656 23.4375 14.601562 23.4375 14.851562 C 23.4375 14.914062 23.519531 15 23.621094 15 Z M 23.15625 14.914062 C 23.15625 14.492188 23.515625 14.359375 23.953125 14.226562 L 24.503906 11.613281 C 24.640625 10.960938 25.035156 10.835938 25.339844 10.835938 C 25.546875 10.835938 25.746094 10.945312 25.832031 11.125 C 26.015625 10.890625 26.261719 10.835938 26.460938 10.835938 C 26.742188 10.835938 27.003906 11.03125 27.003906 11.332031 C 27.003906 11.402344 27 11.464844 26.992188 11.519531 L 26.773438 11.519531 C 26.78125 11.472656 26.785156 11.4375 26.785156 11.394531 C 26.785156 11.289062 26.703125 11.238281 26.609375 11.238281 C 26.507812 11.238281 26.367188 11.292969 26.296875 11.601562 L 26.214844 11.976562 L 26.675781 11.976562 L 26.632812 12.160156 L 26.175781 12.160156 L 25.65625 14.628906 C 25.519531 15.285156 25.125 15.40625 24.820312 15.40625 C 24.558594 15.40625 24.398438 15.292969 24.324219 15.121094 C 24.144531 15.351562 23.902344 15.40625 23.699219 15.40625 C 23.417969 15.40625 23.15625 15.210938 23.15625 14.914062 " fill-opacity="1" fill-rule="nonzero"/><path fill="#351f17" d="M 27.671875 12.175781 C 27.4375 12.175781 27.210938 12.667969 27.121094 13.121094 C 27.472656 13.097656 27.785156 12.746094 27.785156 12.363281 C 27.785156 12.25 27.757812 12.175781 27.671875 12.175781 Z M 27.40625 13.90625 C 27.769531 13.90625 27.988281 13.707031 28.21875 13.445312 L 28.375 13.445312 C 28.113281 13.867188 27.722656 14.292969 27.109375 14.292969 C 26.679688 14.292969 26.394531 14.082031 26.394531 13.5625 C 26.394531 13.039062 26.691406 11.933594 27.632812 11.933594 C 28.042969 11.933594 28.140625 12.144531 28.140625 12.375 C 28.140625 12.898438 27.632812 13.308594 27.082031 13.339844 C 27.078125 13.402344 27.074219 13.46875 27.074219 13.523438 C 27.074219 13.832031 27.183594 13.90625 27.40625 13.90625 " fill-opacity="1" fill-rule="nonzero"/><path fill="#351f17" d="M 29.433594 12.175781 C 29.203125 12.175781 28.972656 12.683594 28.875 13.121094 C 29.234375 13.101562 29.546875 12.75 29.546875 12.363281 C 29.546875 12.25 29.519531 12.175781 29.433594 12.175781 Z M 29.121094 13.855469 C 29.292969 13.855469 29.515625 13.742188 29.664062 13.613281 C 29.566406 14.136719 29.234375 14.292969 28.867188 14.292969 C 28.4375 14.292969 28.152344 14.082031 28.152344 13.5625 C 28.152344 13.039062 28.453125 11.933594 29.394531 11.933594 C 29.804688 11.933594 29.902344 12.144531 29.902344 12.375 C 29.902344 12.90625 29.394531 13.308594 28.84375 13.339844 C 28.839844 13.386719 28.835938 13.433594 28.835938 13.476562 C 28.835938 13.765625 28.957031 13.855469 29.121094 13.855469 " fill-opacity="1" fill-rule="nonzero"/><path fill="#351f17" d="M 33.023438 11.84375 C 32.941406 11.84375 32.871094 11.816406 32.8125 11.746094 C 32.9375 11.671875 33.019531 11.503906 33.019531 11.351562 C 33.019531 11.195312 32.929688 11.046875 32.679688 11.046875 C 32.425781 11.046875 32.253906 11.1875 32.253906 11.464844 C 32.253906 12.136719 33.289062 12.226562 33.289062 13.214844 C 33.289062 13.984375 32.664062 14.359375 31.996094 14.359375 C 31.472656 14.359375 31.023438 14.132812 31.023438 13.574219 C 31.023438 13.078125 31.378906 12.824219 31.699219 12.824219 C 31.859375 12.824219 32.089844 12.886719 32.105469 13.125 C 31.855469 13.125 31.566406 13.238281 31.566406 13.554688 C 31.566406 13.785156 31.710938 13.992188 32.007812 13.992188 C 32.316406 13.992188 32.539062 13.769531 32.539062 13.386719 C 32.539062 12.601562 31.597656 12.324219 31.597656 11.652344 C 31.597656 11.175781 32.066406 10.832031 32.660156 10.832031 C 32.875 10.832031 33.402344 10.878906 33.402344 11.378906 C 33.402344 11.644531 33.253906 11.84375 33.023438 11.84375 " fill-opacity="1" fill-rule="nonzero"/><path fill="#351f17" d="M 34.675781 12.375 C 34.496094 12.375 34.351562 12.652344 34.324219 12.777344 L 34.007812 14.265625 L 33.34375 14.265625 L 34.011719 11.152344 L 34.691406 11.058594 L 34.445312 12.214844 C 34.636719 11.992188 34.839844 11.957031 34.980469 11.957031 C 35.277344 11.957031 35.492188 12.109375 35.492188 12.476562 C 35.492188 12.84375 35.273438 13.398438 35.273438 13.65625 C 35.273438 13.769531 35.316406 13.847656 35.457031 13.847656 C 35.65625 13.847656 35.742188 13.683594 35.84375 13.445312 L 36.035156 13.445312 C 35.777344 14.195312 35.421875 14.292969 35.179688 14.292969 C 34.78125 14.292969 34.636719 14.035156 34.636719 13.773438 C 34.636719 13.464844 34.84375 12.898438 34.84375 12.609375 C 34.84375 12.457031 34.789062 12.375 34.675781 12.375 " fill-opacity="1" fill-rule="nonzero"/><path fill="#351f17" d="M 37.230469 12.917969 C 37.132812 12.894531 37.105469 12.816406 37.105469 12.726562 C 37.105469 12.597656 37.164062 12.515625 37.25 12.480469 C 37.238281 12.285156 37.191406 12.214844 37.074219 12.214844 C 36.746094 12.214844 36.460938 13.050781 36.460938 13.5 C 36.460938 13.800781 36.523438 13.871094 36.695312 13.871094 C 36.921875 13.871094 37.15625 13.457031 37.230469 12.917969 Z M 37.625 12.667969 C 37.644531 12.675781 37.664062 12.675781 37.675781 12.675781 C 37.886719 12.675781 38.1875 12.539062 38.382812 12.402344 L 38.425781 12.523438 C 38.25 12.710938 37.949219 12.851562 37.613281 12.90625 C 37.539062 13.75 37.078125 14.28125 36.511719 14.28125 C 36.085938 14.28125 35.777344 14.082031 35.777344 13.558594 C 35.777344 13.03125 36.089844 11.933594 37.039062 11.933594 C 37.433594 11.933594 37.625 12.1875 37.625 12.667969 " fill-opacity="1" fill-rule="nonzero"/><path fill="#351f17" d="M 39.265625 12.664062 C 39.265625 12.308594 39.121094 12.28125 39.039062 12.28125 C 38.9375 12.28125 38.808594 12.359375 38.71875 12.507812 L 38.449219 13.789062 C 38.464844 13.839844 38.519531 13.894531 38.625 13.894531 C 39.105469 13.894531 39.265625 13.09375 39.265625 12.664062 Z M 38.871094 11.804688 L 38.796875 12.148438 C 38.929688 12.035156 39.105469 11.953125 39.335938 11.953125 C 39.648438 11.953125 39.898438 12.132812 39.898438 12.675781 C 39.898438 13.292969 39.65625 14.292969 38.765625 14.292969 C 38.535156 14.292969 38.425781 14.214844 38.375 14.125 L 38.136719 15.242188 L 37.441406 15.40625 L 38.210938 11.804688 L 38.871094 11.804688 " fill-opacity="1" fill-rule="nonzero"/><path fill="#d1bc86" d="M 26.019531 20.699219 L 16.613281 20.699219 L 16.613281 36.617188 L 26.019531 36.617188 L 26.019531 20.699219 " fill-opacity="1" fill-rule="nonzero"/><path fill="#6f4323" d="M 25.242188 21.421875 L 17.390625 21.421875 L 17.390625 36.617188 L 25.242188 36.617188 L 25.242188 21.421875 " fill-opacity="1" fill-rule="nonzero"/><path fill="#d1bc86" d="M 30.671875 32.566406 L 44.242188 32.566406 L 44.242188 20.449219 L 30.671875 20.449219 Z M 30.671875 32.566406 " fill-opacity="1" fill-rule="nonzero"/><path fill="#d1bc86" d="M 44.246094 34.207031 L 30.671875 34.207031 L 30.671875 36.617188 L 44.246094 36.617188 L 44.246094 34.207031 " fill-opacity="1" fill-rule="nonzero"/><path fill="#e7d0a6" d="M 41.800781 35.074219 L 33.117188 35.074219 L 33.117188 36.617188 L 41.800781 36.617188 L 41.800781 35.074219 " fill-opacity="1" fill-rule="nonzero"/><path fill="#b42026" d="M 31.015625 31.988281 L 43.902344 31.988281 L 43.902344 20.808594 L 31.015625 20.808594 Z M 31.015625 31.988281 " fill-opacity="1" fill-rule="nonzero"/><path fill="#630f12" d="M 31.722656 31.375 L 43.195312 31.375 L 43.195312 21.421875 L 31.722656 21.421875 Z M 31.722656 31.375 " fill-opacity="1" fill-rule="nonzero"/><path fill="#6fc1c2" d="M 43.0625 21.539062 L 31.859375 21.539062 L 31.859375 31.257812 L 43.0625 31.257812 L 43.0625 21.539062 " fill-opacity="1" fill-rule="nonzero"/><path fill="#96d5d3" d="M 43.195312 21.421875 L 31.722656 21.421875 L 31.722656 31.375 Z M 43.195312 21.421875 " fill-opacity="1" fill-rule="nonzero"/><path fill="#351f17" d="M 24.03125 23.449219 L 18.601562 23.449219 L 18.601562 35.074219 L 24.03125 35.074219 L 24.03125 23.449219 " fill-opacity="1" fill-rule="nonzero"/><path fill="#6fc1c2" d="M 23.667969 23.738281 L 18.964844 23.738281 L 18.964844 34.785156 L 23.667969 34.785156 L 23.667969 23.738281 " fill-opacity="1" fill-rule="nonzero"/><path fill="#96d5d3" d="M 23.667969 23.738281 L 18.964844 23.738281 L 18.964844 34.785156 Z M 23.667969 23.738281 " fill-opacity="1" fill-rule="nonzero"/><path fill="#fbc313" d="M 24.871094 29.238281 C 24.691406 29.453125 24.371094 29.480469 24.15625 29.300781 C 23.941406 29.121094 23.914062 28.800781 24.09375 28.585938 C 24.273438 28.375 24.59375 28.347656 24.808594 28.523438 C 25.023438 28.703125 25.054688 29.023438 24.871094 29.238281 " fill-opacity="1" fill-rule="nonzero"/><path fill="#f8a118" d="M 24.503906 29.140625 C 24.265625 28.941406 24.207031 28.6875 24.261719 28.457031 C 24.199219 28.488281 24.140625 28.53125 24.09375 28.585938 C 23.914062 28.800781 23.941406 29.121094 24.15625 29.300781 C 24.347656 29.460938 24.625 29.453125 24.8125 29.296875 C 24.707031 29.273438 24.601562 29.222656 24.503906 29.140625 " fill-opacity="1" fill-rule="nonzero"/><path fill="#1f4c7f" d="M 42.785156 25.199219 L 30.671875 25.199219 L 30.671875 19.832031 L 42.785156 19.832031 L 42.785156 25.199219 " fill-opacity="1" fill-rule="nonzero"/><path fill="#ffffff" d="M 44.53125 25.199219 L 32.417969 25.199219 L 32.417969 19.832031 L 44.53125 19.832031 L 44.53125 25.199219 " fill-opacity="1" fill-rule="nonzero"/><path fill="#1f4c7f" d="M 42.808594 25.199219 L 34.136719 25.199219 L 34.136719 19.832031 L 42.808594 19.832031 L 42.808594 25.199219 " fill-opacity="1" fill-rule="nonzero"/><path fill="#ffffff" d="M 41.066406 25.199219 L 35.859375 25.199219 L 35.859375 19.832031 L 41.066406 19.832031 L 41.066406 25.199219 " fill-opacity="1" fill-rule="nonzero"/><path fill="#1f4c7f" d="M 39.347656 25.199219 L 37.601562 25.199219 L 37.601562 19.832031 L 39.347656 19.832031 L 39.347656 25.199219 " fill-opacity="1" fill-rule="nonzero"/><path fill="#1f4c7f" d="M 32.394531 25.199219 C 32.394531 25.671875 32.007812 26.054688 31.535156 26.054688 C 31.058594 26.054688 30.671875 25.671875 30.671875 25.199219 " fill-opacity="1" fill-rule="nonzero"/><path fill="#ffffff" d="M 34.136719 25.199219 C 34.136719 25.671875 33.753906 26.054688 33.277344 26.054688 C 32.804688 26.054688 32.417969 25.671875 32.417969 25.199219 " fill-opacity="1" fill-rule="nonzero"/><path fill="#1f4c7f" d="M 35.859375 25.199219 C 35.859375 25.671875 35.472656 26.054688 34.996094 26.054688 C 34.523438 26.054688 34.136719 25.671875 34.136719 25.199219 " fill-opacity="1" fill-rule="nonzero"/><path fill="#ffffff" d="M 37.601562 25.199219 C 37.601562 25.671875 37.214844 26.054688 36.742188 26.054688 C 36.265625 26.054688 35.882812 25.671875 35.882812 25.199219 " fill-opacity="1" fill-rule="nonzero"/><path fill="#1f4c7f" d="M 39.320312 25.199219 C 39.320312 25.671875 38.9375 26.054688 38.460938 26.054688 C 37.988281 26.054688 37.601562 25.671875 37.601562 25.199219 " fill-opacity="1" fill-rule="nonzero"/><path fill="#ffffff" d="M 41.066406 25.199219 C 41.066406 25.671875 40.679688 26.054688 40.207031 26.054688 C 39.730469 26.054688 39.347656 25.671875 39.347656 25.199219 " fill-opacity="1" fill-rule="nonzero"/><path fill="#1f4c7f" d="M 42.785156 25.199219 C 42.785156 25.671875 42.402344 26.054688 41.925781 26.054688 C 41.449219 26.054688 41.066406 25.671875 41.066406 25.199219 " fill-opacity="1" fill-rule="nonzero"/><path fill="#ffffff" d="M 44.53125 25.199219 C 44.53125 25.671875 44.144531 26.054688 43.667969 26.054688 C 43.195312 26.054688 42.808594 25.671875 42.808594 25.199219 " fill-opacity="1" fill-rule="nonzero"/></svg>