<svg xmlns="http://www.w3.org/2000/svg" xmlns:xlink="http://www.w3.org/1999/xlink" width="40" zoomAndPan="magnify" viewBox="0 0 30 30.000001" height="40" preserveAspectRatio="xMidYMid meet" version="1.0"><defs><clipPath id="aa668702ea"><path d="M 5.804688 9.5 L 23.949219 9.5 L 23.949219 19.660156 L 5.804688 19.660156 Z M 5.804688 9.5 " clip-rule="nonzero"/></clipPath><clipPath id="021d9825fd"><path d="M 5.804688 10 L 23.949219 10 L 23.949219 19 L 5.804688 19 Z M 5.804688 10 " clip-rule="nonzero"/></clipPath><clipPath id="beb688d85e"><path d="M 5.804688 9.5 L 14 9.5 L 14 15 L 5.804688 15 Z M 5.804688 9.5 " clip-rule="nonzero"/></clipPath><clipPath id="3e12a4df39"><path d="M 6 9.5 L 13 9.5 L 13 15 L 6 15 Z M 6 9.5 " clip-rule="nonzero"/></clipPath></defs><g clip-path="url(#aa668702ea)"><path fill="#e74b3c" d="M 23.933594 16.535156 L 5.816406 16.535156 L 5.816406 15.753906 L 23.933594 15.753906 Z M 23.933594 11.0625 L 5.816406 11.0625 L 5.816406 11.84375 L 23.933594 11.84375 Z M 23.933594 14.191406 L 5.816406 14.191406 L 5.816406 14.972656 L 23.933594 14.972656 Z M 23.933594 12.625 L 5.816406 12.625 L 5.816406 13.40625 L 23.933594 13.40625 Z M 23.933594 17.316406 L 5.816406 17.316406 L 5.816406 18.097656 L 23.933594 18.097656 Z M 5.816406 18.878906 L 5.816406 19.660156 L 23.933594 19.660156 L 23.933594 18.878906 Z M 23.933594 9.5 L 5.816406 9.5 L 5.816406 10.28125 L 23.933594 10.28125 Z M 23.933594 9.5 " fill-opacity="1" fill-rule="nonzero"/></g><g clip-path="url(#021d9825fd)"><path fill="#ffffff" d="M 23.933594 12.625 L 5.816406 12.625 L 5.816406 11.84375 L 23.933594 11.84375 Z M 23.933594 10.28125 L 5.816406 10.28125 L 5.816406 11.0625 L 23.933594 11.0625 Z M 23.933594 16.535156 L 5.816406 16.535156 L 5.816406 17.316406 L 23.933594 17.316406 Z M 23.933594 18.097656 L 5.816406 18.097656 L 5.816406 18.878906 L 23.933594 18.878906 Z M 23.933594 13.40625 L 5.816406 13.40625 L 5.816406 14.191406 L 23.933594 14.191406 Z M 23.933594 14.972656 L 5.816406 14.972656 L 5.816406 15.753906 L 23.933594 15.753906 Z M 23.933594 14.972656 " fill-opacity="1" fill-rule="nonzero"/></g><g clip-path="url(#beb688d85e)"><path fill="#297fb8" d="M 5.816406 9.5 L 13.339844 9.5 L 13.339844 14.972656 L 5.816406 14.972656 Z M 5.816406 9.5 " fill-opacity="1" fill-rule="nonzero"/></g><g clip-path="url(#3e12a4df39)"><path fill="#ffffff" d="M 6.5625 9.828125 L 6.632812 10.039062 L 6.84375 10.039062 L 6.671875 10.164062 L 6.738281 10.375 L 6.5625 10.242188 L 6.386719 10.367188 L 6.457031 10.15625 L 6.28125 10.03125 L 6.496094 10.03125 Z M 7.699219 10.03125 L 7.484375 10.03125 L 7.660156 10.15625 L 7.589844 10.367188 L 7.765625 10.242188 L 7.941406 10.367188 L 7.871094 10.164062 L 8.046875 10.039062 L 7.835938 10.039062 L 7.765625 9.828125 Z M 8.90625 10.03125 L 8.695312 10.03125 L 8.871094 10.15625 L 8.800781 10.367188 L 8.976562 10.242188 L 9.152344 10.367188 L 9.082031 10.15625 L 9.257812 10.03125 L 9.046875 10.03125 L 8.976562 9.820312 Z M 10.117188 10.03125 L 9.90625 10.03125 L 10.082031 10.15625 L 10.011719 10.367188 L 10.1875 10.242188 L 10.363281 10.367188 L 10.292969 10.15625 L 10.460938 10.03125 L 10.246094 10.03125 L 10.179688 9.820312 Z M 11.320312 10.03125 L 11.109375 10.03125 L 11.28125 10.15625 L 11.214844 10.367188 L 11.390625 10.242188 L 11.566406 10.367188 L 11.496094 10.15625 L 11.671875 10.03125 L 11.457031 10.03125 L 11.390625 9.820312 Z M 12.53125 10.03125 L 12.316406 10.03125 L 12.492188 10.15625 L 12.425781 10.367188 L 12.59375 10.242188 L 12.765625 10.367188 L 12.699219 10.15625 L 12.875 10.03125 L 12.660156 10.03125 L 12.59375 9.828125 Z M 7.097656 10.5625 L 6.882812 10.5625 L 7.058594 10.6875 L 6.988281 10.898438 L 7.164062 10.773438 L 7.339844 10.898438 L 7.273438 10.6875 L 7.445312 10.5625 L 7.234375 10.5625 L 7.164062 10.351562 Z M 8.308594 10.5625 L 8.09375 10.5625 L 8.269531 10.6875 L 8.199219 10.898438 L 8.375 10.773438 L 8.550781 10.898438 L 8.480469 10.6875 L 8.65625 10.5625 L 8.445312 10.5625 L 8.375 10.351562 Z M 9.507812 10.5625 L 9.296875 10.5625 L 9.472656 10.6875 L 9.402344 10.898438 L 9.578125 10.773438 L 9.753906 10.898438 L 9.683594 10.6875 L 9.859375 10.5625 L 9.644531 10.5625 L 9.578125 10.351562 Z M 10.71875 10.5625 L 10.507812 10.5625 L 10.679688 10.6875 L 10.613281 10.898438 L 10.789062 10.773438 L 10.964844 10.898438 L 10.894531 10.6875 L 11.070312 10.5625 L 10.855469 10.5625 L 10.789062 10.351562 Z M 11.921875 10.5625 L 11.710938 10.5625 L 11.882812 10.6875 L 11.816406 10.898438 L 11.992188 10.773438 L 12.164062 10.898438 L 12.097656 10.6875 L 12.273438 10.5625 L 12.058594 10.5625 L 11.992188 10.351562 Z M 6.496094 11.085938 L 6.28125 11.085938 L 6.457031 11.21875 L 6.386719 11.429688 L 6.5625 11.296875 L 6.738281 11.421875 L 6.671875 11.21875 L 6.84375 11.09375 L 6.632812 11.09375 L 6.5625 10.882812 Z M 7.699219 11.085938 L 7.484375 11.085938 L 7.660156 11.210938 L 7.589844 11.421875 L 7.765625 11.296875 L 7.941406 11.421875 L 7.871094 11.21875 L 8.046875 11.09375 L 7.835938 11.09375 L 7.765625 10.882812 Z M 8.90625 11.085938 L 8.695312 11.085938 L 8.871094 11.210938 L 8.800781 11.421875 L 8.976562 11.296875 L 9.152344 11.421875 L 9.082031 11.21875 L 9.257812 11.09375 L 9.046875 11.09375 L 8.976562 10.882812 Z M 10.117188 11.085938 L 9.90625 11.085938 L 10.082031 11.210938 L 10.011719 11.421875 L 10.1875 11.296875 L 10.363281 11.421875 L 10.285156 11.21875 L 10.460938 11.09375 L 10.246094 11.09375 L 10.179688 10.882812 Z M 11.320312 11.085938 L 11.109375 11.085938 L 11.28125 11.210938 L 11.214844 11.421875 L 11.390625 11.296875 L 11.566406 11.421875 L 11.496094 11.21875 L 11.671875 11.09375 L 11.457031 11.09375 L 11.390625 10.882812 Z M 12.53125 11.085938 L 12.316406 11.085938 L 12.492188 11.210938 L 12.425781 11.421875 L 12.59375 11.296875 L 12.765625 11.421875 L 12.699219 11.21875 L 12.875 11.09375 L 12.660156 11.09375 L 12.59375 10.875 Z M 7.097656 11.617188 L 6.882812 11.617188 L 7.058594 11.742188 L 6.988281 11.953125 L 7.164062 11.828125 L 7.339844 11.953125 L 7.273438 11.742188 L 7.445312 11.617188 L 7.234375 11.617188 L 7.164062 11.40625 Z M 8.308594 11.617188 L 8.09375 11.617188 L 8.269531 11.742188 L 8.199219 11.953125 L 8.375 11.828125 L 8.550781 11.953125 L 8.480469 11.742188 L 8.65625 11.617188 L 8.445312 11.617188 L 8.375 11.40625 Z M 9.507812 11.617188 L 9.296875 11.617188 L 9.472656 11.742188 L 9.402344 11.953125 L 9.578125 11.828125 L 9.753906 11.953125 L 9.683594 11.742188 L 9.859375 11.617188 L 9.644531 11.617188 L 9.578125 11.40625 Z M 10.71875 11.617188 L 10.507812 11.617188 L 10.679688 11.742188 L 10.613281 11.953125 L 10.789062 11.828125 L 10.964844 11.953125 L 10.894531 11.742188 L 11.070312 11.617188 L 10.855469 11.617188 L 10.789062 11.40625 Z M 11.921875 11.617188 L 11.710938 11.617188 L 11.882812 11.742188 L 11.816406 11.953125 L 11.992188 11.828125 L 12.164062 11.953125 L 12.097656 11.742188 L 12.273438 11.617188 L 12.058594 11.617188 L 11.992188 11.40625 Z M 6.496094 12.140625 L 6.28125 12.140625 L 6.457031 12.265625 L 6.386719 12.476562 L 6.5625 12.351562 L 6.738281 12.476562 L 6.671875 12.265625 L 6.84375 12.140625 L 6.632812 12.140625 L 6.5625 11.929688 Z M 7.699219 12.140625 L 7.484375 12.140625 L 7.660156 12.265625 L 7.589844 12.476562 L 7.765625 12.351562 L 7.941406 12.476562 L 7.871094 12.265625 L 8.046875 12.140625 L 7.835938 12.140625 L 7.765625 11.929688 Z M 8.90625 12.140625 L 8.695312 12.140625 L 8.871094 12.265625 L 8.800781 12.476562 L 8.976562 12.351562 L 9.152344 12.476562 L 9.082031 12.265625 L 9.257812 12.140625 L 9.046875 12.140625 L 8.976562 11.929688 Z M 10.117188 12.140625 L 9.90625 12.140625 L 10.082031 12.265625 L 10.011719 12.476562 L 10.1875 12.351562 L 10.363281 12.476562 L 10.292969 12.265625 L 10.46875 12.140625 L 10.253906 12.140625 L 10.1875 11.929688 Z M 11.320312 12.140625 L 11.109375 12.140625 L 11.28125 12.265625 L 11.214844 12.476562 L 11.390625 12.351562 L 11.566406 12.476562 L 11.496094 12.265625 L 11.671875 12.140625 L 11.457031 12.140625 L 11.390625 11.929688 Z M 12.53125 12.140625 L 12.316406 12.140625 L 12.492188 12.265625 L 12.425781 12.476562 L 12.601562 12.351562 L 12.773438 12.476562 L 12.707031 12.265625 L 12.882812 12.140625 L 12.667969 12.140625 L 12.59375 11.929688 Z M 7.097656 12.664062 L 6.882812 12.664062 L 7.058594 12.789062 L 6.988281 13 L 7.164062 12.875 L 7.339844 13 L 7.273438 12.789062 L 7.445312 12.664062 L 7.234375 12.664062 L 7.164062 12.453125 Z M 8.308594 12.664062 L 8.09375 12.664062 L 8.269531 12.789062 L 8.199219 13 L 8.375 12.875 L 8.550781 13 L 8.480469 12.789062 L 8.65625 12.664062 L 8.445312 12.664062 L 8.375 12.453125 Z M 9.507812 12.664062 L 9.296875 12.664062 L 9.472656 12.789062 L 9.402344 13 L 9.578125 12.875 L 9.753906 13 L 9.683594 12.789062 L 9.859375 12.664062 L 9.644531 12.664062 L 9.578125 12.453125 Z M 10.71875 12.664062 L 10.507812 12.664062 L 10.679688 12.789062 L 10.613281 13 L 10.789062 12.875 L 10.964844 13 L 10.894531 12.789062 L 11.070312 12.664062 L 10.855469 12.664062 L 10.789062 12.453125 Z M 11.921875 12.664062 L 11.710938 12.664062 L 11.882812 12.789062 L 11.816406 13 L 11.992188 12.875 L 12.164062 13 L 12.097656 12.789062 L 12.273438 12.664062 L 12.058594 12.664062 L 11.992188 12.453125 Z M 6.496094 13.195312 L 6.28125 13.195312 L 6.457031 13.320312 L 6.386719 13.53125 L 6.5625 13.40625 L 6.738281 13.53125 L 6.671875 13.320312 L 6.84375 13.195312 L 6.632812 13.195312 L 6.5625 12.984375 Z M 7.699219 13.195312 L 7.484375 13.195312 L 7.660156 13.320312 L 7.589844 13.53125 L 7.765625 13.40625 L 7.941406 13.53125 L 7.871094 13.320312 L 8.046875 13.195312 L 7.835938 13.195312 L 7.765625 12.984375 Z M 8.90625 13.195312 L 8.695312 13.195312 L 8.871094 13.320312 L 8.800781 13.53125 L 8.976562 13.40625 L 9.152344 13.53125 L 9.082031 13.320312 L 9.257812 13.195312 L 9.046875 13.195312 L 8.976562 12.984375 Z M 10.117188 13.195312 L 9.90625 13.195312 L 10.082031 13.320312 L 10.011719 13.53125 L 10.1875 13.40625 L 10.363281 13.53125 L 10.292969 13.320312 L 10.46875 13.195312 L 10.253906 13.195312 L 10.1875 12.984375 Z M 11.320312 13.195312 L 11.109375 13.195312 L 11.28125 13.320312 L 11.214844 13.53125 L 11.390625 13.40625 L 11.566406 13.53125 L 11.496094 13.320312 L 11.671875 13.195312 L 11.457031 13.195312 L 11.390625 12.984375 Z M 12.53125 13.195312 L 12.316406 13.195312 L 12.492188 13.320312 L 12.425781 13.53125 L 12.601562 13.40625 L 12.773438 13.53125 L 12.707031 13.320312 L 12.882812 13.195312 L 12.667969 13.195312 L 12.59375 12.984375 Z M 7.097656 13.71875 L 6.882812 13.71875 L 7.058594 13.84375 L 6.988281 14.054688 L 7.164062 13.929688 L 7.339844 14.054688 L 7.273438 13.84375 L 7.445312 13.71875 L 7.234375 13.71875 L 7.164062 13.507812 Z M 8.308594 13.71875 L 8.09375 13.71875 L 8.269531 13.84375 L 8.199219 14.054688 L 8.375 13.929688 L 8.550781 14.054688 L 8.480469 13.84375 L 8.65625 13.71875 L 8.445312 13.71875 L 8.375 13.507812 Z M 9.507812 13.71875 L 9.296875 13.71875 L 9.472656 13.84375 L 9.402344 14.054688 L 9.578125 13.929688 L 9.753906 14.054688 L 9.683594 13.84375 L 9.859375 13.71875 L 9.644531 13.71875 L 9.578125 13.507812 Z M 10.71875 13.71875 L 10.507812 13.71875 L 10.679688 13.84375 L 10.613281 14.054688 L 10.789062 13.929688 L 10.964844 14.054688 L 10.894531 13.84375 L 11.070312 13.71875 L 10.855469 13.71875 L 10.789062 13.507812 Z M 11.921875 13.71875 L 11.710938 13.71875 L 11.882812 13.84375 L 11.816406 14.054688 L 11.992188 13.929688 L 12.164062 14.054688 L 12.097656 13.84375 L 12.273438 13.71875 L 12.058594 13.71875 L 11.992188 13.507812 Z M 6.496094 14.253906 L 6.28125 14.253906 L 6.457031 14.378906 L 6.386719 14.589844 L 6.5625 14.464844 L 6.738281 14.589844 L 6.671875 14.378906 L 6.84375 14.253906 L 6.632812 14.253906 L 6.5625 14.039062 Z M 7.699219 14.253906 L 7.484375 14.253906 L 7.660156 14.378906 L 7.589844 14.589844 L 7.765625 14.464844 L 7.941406 14.589844 L 7.871094 14.378906 L 8.046875 14.253906 L 7.835938 14.253906 L 7.765625 14.039062 Z M 8.90625 14.253906 L 8.695312 14.253906 L 8.871094 14.378906 L 8.800781 14.589844 L 8.976562 14.464844 L 9.152344 14.589844 L 9.082031 14.378906 L 9.257812 14.253906 L 9.046875 14.253906 L 8.976562 14.039062 Z M 10.117188 14.253906 L 9.90625 14.253906 L 10.082031 14.378906 L 10.011719 14.589844 L 10.1875 14.464844 L 10.363281 14.589844 L 10.292969 14.378906 L 10.46875 14.253906 L 10.253906 14.253906 L 10.1875 14.039062 Z M 11.320312 14.253906 L 11.109375 14.253906 L 11.28125 14.378906 L 11.214844 14.589844 L 11.390625 14.464844 L 11.566406 14.589844 L 11.496094 14.378906 L 11.671875 14.253906 L 11.457031 14.253906 L 11.390625 14.039062 Z M 12.53125 14.253906 L 12.316406 14.253906 L 12.492188 14.378906 L 12.425781 14.589844 L 12.601562 14.464844 L 12.773438 14.589844 L 12.707031 14.378906 L 12.882812 14.253906 L 12.667969 14.253906 L 12.59375 14.039062 Z M 12.53125 14.253906 " fill-opacity="1" fill-rule="nonzero"/></g></svg>