<svg xmlns="http://www.w3.org/2000/svg" xmlns:xlink="http://www.w3.org/1999/xlink" width="80" zoomAndPan="magnify" viewBox="0 0 60 44.999999" height="60" preserveAspectRatio="xMidYMid meet" version="1.0"><defs><clipPath id="63e3e39688"><path d="M 11.757812 22.878906 L 48.464844 22.878906 L 48.464844 36.550781 L 11.757812 36.550781 Z M 11.757812 22.878906 " clip-rule="nonzero"/></clipPath><clipPath id="93e651271e"><path d="M 11.757812 21.773438 L 48.464844 21.773438 L 48.464844 22.953125 L 11.757812 22.953125 Z M 11.757812 21.773438 " clip-rule="nonzero"/></clipPath><clipPath id="041cbf0c6b"><path d="M 23.101562 11.011719 L 36.566406 11.011719 L 36.566406 36.550781 L 23.101562 36.550781 Z M 23.101562 11.011719 " clip-rule="nonzero"/></clipPath><clipPath id="06014b8fe6"><path d="M 27 8.800781 L 33 8.800781 L 33 10 L 27 10 Z M 27 8.800781 " clip-rule="nonzero"/></clipPath><clipPath id="ea7a3c859e"><path d="M 24.636719 25.828125 L 35 25.828125 L 35 36.550781 L 24.636719 36.550781 Z M 24.636719 25.828125 " clip-rule="nonzero"/></clipPath><clipPath id="c081b34a17"><path d="M 25.734375 27.007812 L 33.929688 27.007812 L 33.929688 36.550781 L 25.734375 36.550781 Z M 25.734375 27.007812 " clip-rule="nonzero"/></clipPath><clipPath id="ed6501effc"><path d="M 28.078125 30.324219 L 31.589844 30.324219 L 31.589844 36.550781 L 28.078125 36.550781 Z M 28.078125 30.324219 " clip-rule="nonzero"/></clipPath></defs><g clip-path="url(#63e3e39688)"><path fill="#cdccca" d="M 11.757812 36.550781 L 48.464844 36.550781 L 48.464844 22.941406 L 11.757812 22.941406 L 11.757812 36.550781 " fill-opacity="1" fill-rule="evenodd"/></g><g clip-path="url(#93e651271e)"><path fill="#c52024" d="M 11.757812 22.941406 L 48.464844 22.941406 L 48.464844 21.816406 L 11.757812 21.816406 L 11.757812 22.941406 " fill-opacity="1" fill-rule="evenodd"/></g><g clip-path="url(#041cbf0c6b)"><path fill="#e9e8e7" d="M 23.160156 36.550781 L 36.503906 36.550781 L 36.503906 11.035156 L 23.160156 11.035156 L 23.160156 36.550781 " fill-opacity="1" fill-rule="evenodd"/></g><path fill="#cc2c23" d="M 29.832031 14.886719 C 30.714844 14.886719 31.4375 14.160156 31.4375 13.269531 C 31.4375 12.378906 30.714844 11.652344 29.832031 11.652344 C 28.945312 11.652344 28.226562 12.378906 28.226562 13.269531 C 28.226562 14.160156 28.945312 14.886719 29.832031 14.886719 " fill-opacity="1" fill-rule="evenodd"/><path fill="#ffffff" d="M 28.753906 12.917969 L 29.480469 12.917969 L 29.480469 12.1875 L 30.179688 12.1875 L 30.179688 12.917969 L 30.90625 12.917969 L 30.90625 13.621094 L 30.179688 13.621094 L 30.179688 14.355469 L 29.480469 14.355469 L 29.480469 13.621094 L 28.753906 13.621094 L 28.753906 12.917969 " fill-opacity="1" fill-rule="evenodd"/><path fill="#2e2d2d" d="M 24.820312 11.050781 L 34.839844 11.050781 L 34.839844 9.921875 L 24.820312 9.921875 L 24.820312 11.050781 " fill-opacity="1" fill-rule="evenodd"/><g clip-path="url(#06014b8fe6)"><path fill="#5e6061" d="M 27.144531 9.929688 L 32.515625 9.929688 L 32.515625 8.800781 L 27.144531 8.800781 L 27.144531 9.929688 " fill-opacity="1" fill-rule="evenodd"/></g><g clip-path="url(#ea7a3c859e)"><path fill="#346264" d="M 24.679688 36.550781 L 34.980469 36.550781 L 34.980469 25.875 L 24.679688 25.875 L 24.679688 36.550781 " fill-opacity="1" fill-rule="evenodd"/></g><g clip-path="url(#c081b34a17)"><path fill="#e1671a" d="M 25.734375 36.550781 L 33.925781 36.550781 L 33.925781 27.066406 L 25.734375 27.066406 L 25.734375 36.550781 " fill-opacity="1" fill-rule="evenodd"/></g><g clip-path="url(#ed6501effc)"><path fill="#8bd6ae" d="M 28.097656 36.550781 L 31.5625 36.550781 L 31.5625 30.382812 L 28.097656 30.382812 L 28.097656 36.550781 " fill-opacity="1" fill-rule="evenodd"/></g><path fill="#2c5c8e" d="M 32.65625 16.597656 L 33.902344 16.597656 L 33.902344 15.339844 L 32.65625 15.339844 L 32.65625 16.597656 " fill-opacity="1" fill-rule="evenodd"/><path fill="#2c5c8e" d="M 34.046875 15.339844 L 34.046875 16.597656 L 35.292969 16.597656 L 35.292969 15.339844 L 34.046875 15.339844 " fill-opacity="1" fill-rule="evenodd"/><path fill="#2c5c8e" d="M 35.292969 16.714844 L 34.046875 16.714844 L 34.046875 17.96875 L 35.292969 17.96875 L 35.292969 16.714844 " fill-opacity="1" fill-rule="evenodd"/><path fill="#2c5c8e" d="M 33.902344 17.96875 L 33.902344 16.714844 L 32.65625 16.714844 L 32.65625 17.96875 L 33.902344 17.96875 " fill-opacity="1" fill-rule="evenodd"/><path fill="#2c5c8e" d="M 28.519531 16.597656 L 29.765625 16.597656 L 29.765625 15.339844 L 28.519531 15.339844 L 28.519531 16.597656 " fill-opacity="1" fill-rule="evenodd"/><path fill="#2c5c8e" d="M 29.910156 15.339844 L 29.910156 16.597656 L 31.152344 16.597656 L 31.152344 15.339844 L 29.910156 15.339844 " fill-opacity="1" fill-rule="evenodd"/><path fill="#2c5c8e" d="M 31.152344 16.714844 L 29.910156 16.714844 L 29.910156 17.96875 L 31.152344 17.96875 L 31.152344 16.714844 " fill-opacity="1" fill-rule="evenodd"/><path fill="#2c5c8e" d="M 29.765625 17.96875 L 29.765625 16.714844 L 28.519531 16.714844 L 28.519531 17.96875 L 29.765625 17.96875 " fill-opacity="1" fill-rule="evenodd"/><path fill="#2c5c8e" d="M 24.550781 16.597656 L 25.796875 16.597656 L 25.796875 15.339844 L 24.550781 15.339844 L 24.550781 16.597656 " fill-opacity="1" fill-rule="evenodd"/><path fill="#2c5c8e" d="M 25.9375 15.339844 L 25.9375 16.597656 L 27.1875 16.597656 L 27.1875 15.339844 L 25.9375 15.339844 " fill-opacity="1" fill-rule="evenodd"/><path fill="#2c5c8e" d="M 27.1875 16.714844 L 25.9375 16.714844 L 25.9375 17.96875 L 27.1875 17.96875 L 27.1875 16.714844 " fill-opacity="1" fill-rule="evenodd"/><path fill="#2c5c8e" d="M 25.796875 17.96875 L 25.796875 16.714844 L 24.550781 16.714844 L 24.550781 17.96875 L 25.796875 17.96875 " fill-opacity="1" fill-rule="evenodd"/><path fill="#2c5c8e" d="M 12.5 24.941406 L 13.742188 24.941406 L 13.742188 23.6875 L 12.5 23.6875 L 12.5 24.941406 " fill-opacity="1" fill-rule="evenodd"/><path fill="#2c5c8e" d="M 13.886719 23.6875 L 13.886719 24.941406 L 15.132812 24.941406 L 15.132812 23.6875 L 13.886719 23.6875 " fill-opacity="1" fill-rule="evenodd"/><path fill="#2c5c8e" d="M 15.132812 25.0625 L 13.886719 25.0625 L 13.886719 26.316406 L 15.132812 26.316406 L 15.132812 25.0625 " fill-opacity="1" fill-rule="evenodd"/><path fill="#2c5c8e" d="M 13.742188 26.316406 L 13.742188 25.0625 L 12.5 25.0625 L 12.5 26.316406 L 13.742188 26.316406 " fill-opacity="1" fill-rule="evenodd"/><path fill="#2c5c8e" d="M 15.902344 24.941406 L 17.148438 24.941406 L 17.148438 23.6875 L 15.902344 23.6875 L 15.902344 24.941406 " fill-opacity="1" fill-rule="evenodd"/><path fill="#2c5c8e" d="M 17.292969 23.6875 L 17.292969 24.941406 L 18.539062 24.941406 L 18.539062 23.6875 L 17.292969 23.6875 " fill-opacity="1" fill-rule="evenodd"/><path fill="#2c5c8e" d="M 18.539062 25.0625 L 17.292969 25.0625 L 17.292969 26.316406 L 18.539062 26.316406 L 18.539062 25.0625 " fill-opacity="1" fill-rule="evenodd"/><path fill="#2c5c8e" d="M 17.148438 26.316406 L 17.148438 25.0625 L 15.902344 25.0625 L 15.902344 26.316406 L 17.148438 26.316406 " fill-opacity="1" fill-rule="evenodd"/><path fill="#2c5c8e" d="M 19.421875 24.941406 L 20.664062 24.941406 L 20.664062 23.6875 L 19.421875 23.6875 L 19.421875 24.941406 " fill-opacity="1" fill-rule="evenodd"/><path fill="#2c5c8e" d="M 20.808594 23.6875 L 20.808594 24.941406 L 22.054688 24.941406 L 22.054688 23.6875 L 20.808594 23.6875 " fill-opacity="1" fill-rule="evenodd"/><path fill="#2c5c8e" d="M 22.054688 25.0625 L 20.808594 25.0625 L 20.808594 26.316406 L 22.054688 26.316406 L 22.054688 25.0625 " fill-opacity="1" fill-rule="evenodd"/><path fill="#2c5c8e" d="M 20.664062 26.316406 L 20.664062 25.0625 L 19.421875 25.0625 L 19.421875 26.316406 L 20.664062 26.316406 " fill-opacity="1" fill-rule="evenodd"/><path fill="#2c5c8e" d="M 12.5 29.445312 L 13.742188 29.445312 L 13.742188 28.191406 L 12.5 28.191406 L 12.5 29.445312 " fill-opacity="1" fill-rule="evenodd"/><path fill="#2c5c8e" d="M 13.886719 28.191406 L 13.886719 29.445312 L 15.132812 29.445312 L 15.132812 28.191406 L 13.886719 28.191406 " fill-opacity="1" fill-rule="evenodd"/><path fill="#2c5c8e" d="M 15.132812 29.566406 L 13.886719 29.566406 L 13.886719 30.820312 L 15.132812 30.820312 L 15.132812 29.566406 " fill-opacity="1" fill-rule="evenodd"/><path fill="#2c5c8e" d="M 13.742188 30.820312 L 13.742188 29.566406 L 12.5 29.566406 L 12.5 30.820312 L 13.742188 30.820312 " fill-opacity="1" fill-rule="evenodd"/><path fill="#2c5c8e" d="M 15.902344 29.445312 L 17.148438 29.445312 L 17.148438 28.191406 L 15.902344 28.191406 L 15.902344 29.445312 " fill-opacity="1" fill-rule="evenodd"/><path fill="#2c5c8e" d="M 17.292969 28.191406 L 17.292969 29.445312 L 18.539062 29.445312 L 18.539062 28.191406 L 17.292969 28.191406 " fill-opacity="1" fill-rule="evenodd"/><path fill="#2c5c8e" d="M 18.539062 29.566406 L 17.292969 29.566406 L 17.292969 30.820312 L 18.539062 30.820312 L 18.539062 29.566406 " fill-opacity="1" fill-rule="evenodd"/><path fill="#2c5c8e" d="M 17.148438 30.820312 L 17.148438 29.566406 L 15.902344 29.566406 L 15.902344 30.820312 L 17.148438 30.820312 " fill-opacity="1" fill-rule="evenodd"/><path fill="#2c5c8e" d="M 19.421875 29.445312 L 20.664062 29.445312 L 20.664062 28.191406 L 19.421875 28.191406 L 19.421875 29.445312 " fill-opacity="1" fill-rule="evenodd"/><path fill="#2c5c8e" d="M 20.808594 28.191406 L 20.808594 29.445312 L 22.054688 29.445312 L 22.054688 28.191406 L 20.808594 28.191406 " fill-opacity="1" fill-rule="evenodd"/><path fill="#2c5c8e" d="M 22.054688 29.566406 L 20.808594 29.566406 L 20.808594 30.820312 L 22.054688 30.820312 L 22.054688 29.566406 " fill-opacity="1" fill-rule="evenodd"/><path fill="#2c5c8e" d="M 20.664062 30.820312 L 20.664062 29.566406 L 19.421875 29.566406 L 19.421875 30.820312 L 20.664062 30.820312 " fill-opacity="1" fill-rule="evenodd"/><path fill="#2c5c8e" d="M 12.5 33.867188 L 13.742188 33.867188 L 13.742188 32.613281 L 12.5 32.613281 L 12.5 33.867188 " fill-opacity="1" fill-rule="evenodd"/><path fill="#2c5c8e" d="M 13.886719 32.613281 L 13.886719 33.867188 L 15.132812 33.867188 L 15.132812 32.613281 L 13.886719 32.613281 " fill-opacity="1" fill-rule="evenodd"/><path fill="#2c5c8e" d="M 15.132812 33.988281 L 13.886719 33.988281 L 13.886719 35.242188 L 15.132812 35.242188 L 15.132812 33.988281 " fill-opacity="1" fill-rule="evenodd"/><path fill="#2c5c8e" d="M 13.742188 35.242188 L 13.742188 33.988281 L 12.5 33.988281 L 12.5 35.242188 L 13.742188 35.242188 " fill-opacity="1" fill-rule="evenodd"/><path fill="#2c5c8e" d="M 15.902344 33.867188 L 17.148438 33.867188 L 17.148438 32.613281 L 15.902344 32.613281 L 15.902344 33.867188 " fill-opacity="1" fill-rule="evenodd"/><path fill="#2c5c8e" d="M 17.292969 32.613281 L 17.292969 33.867188 L 18.539062 33.867188 L 18.539062 32.613281 L 17.292969 32.613281 " fill-opacity="1" fill-rule="evenodd"/><path fill="#2c5c8e" d="M 18.539062 33.988281 L 17.292969 33.988281 L 17.292969 35.242188 L 18.539062 35.242188 L 18.539062 33.988281 " fill-opacity="1" fill-rule="evenodd"/><path fill="#2c5c8e" d="M 17.148438 35.242188 L 17.148438 33.988281 L 15.902344 33.988281 L 15.902344 35.242188 L 17.148438 35.242188 " fill-opacity="1" fill-rule="evenodd"/><path fill="#2c5c8e" d="M 19.421875 33.867188 L 20.664062 33.867188 L 20.664062 32.613281 L 19.421875 32.613281 L 19.421875 33.867188 " fill-opacity="1" fill-rule="evenodd"/><path fill="#2c5c8e" d="M 20.808594 32.613281 L 20.808594 33.867188 L 22.054688 33.867188 L 22.054688 32.613281 L 20.808594 32.613281 " fill-opacity="1" fill-rule="evenodd"/><path fill="#2c5c8e" d="M 22.054688 33.988281 L 20.808594 33.988281 L 20.808594 35.242188 L 22.054688 35.242188 L 22.054688 33.988281 " fill-opacity="1" fill-rule="evenodd"/><path fill="#2c5c8e" d="M 20.664062 35.242188 L 20.664062 33.988281 L 19.421875 33.988281 L 19.421875 35.242188 L 20.664062 35.242188 " fill-opacity="1" fill-rule="evenodd"/><path fill="#2c5c8e" d="M 37.71875 24.941406 L 38.964844 24.941406 L 38.964844 23.6875 L 37.71875 23.6875 L 37.71875 24.941406 " fill-opacity="1" fill-rule="evenodd"/><path fill="#2c5c8e" d="M 39.109375 23.6875 L 39.109375 24.941406 L 40.355469 24.941406 L 40.355469 23.6875 L 39.109375 23.6875 " fill-opacity="1" fill-rule="evenodd"/><path fill="#2c5c8e" d="M 40.355469 25.0625 L 39.109375 25.0625 L 39.109375 26.316406 L 40.355469 26.316406 L 40.355469 25.0625 " fill-opacity="1" fill-rule="evenodd"/><path fill="#2c5c8e" d="M 38.964844 26.316406 L 38.964844 25.0625 L 37.71875 25.0625 L 37.71875 26.316406 L 38.964844 26.316406 " fill-opacity="1" fill-rule="evenodd"/><path fill="#2c5c8e" d="M 41.125 24.941406 L 42.371094 24.941406 L 42.371094 23.6875 L 41.125 23.6875 L 41.125 24.941406 " fill-opacity="1" fill-rule="evenodd"/><path fill="#2c5c8e" d="M 42.515625 23.6875 L 42.515625 24.941406 L 43.761719 24.941406 L 43.761719 23.6875 L 42.515625 23.6875 " fill-opacity="1" fill-rule="evenodd"/><path fill="#2c5c8e" d="M 43.761719 25.0625 L 42.515625 25.0625 L 42.515625 26.316406 L 43.761719 26.316406 L 43.761719 25.0625 " fill-opacity="1" fill-rule="evenodd"/><path fill="#2c5c8e" d="M 42.371094 26.316406 L 42.371094 25.0625 L 41.125 25.0625 L 41.125 26.316406 L 42.371094 26.316406 " fill-opacity="1" fill-rule="evenodd"/><path fill="#2c5c8e" d="M 44.640625 24.941406 L 45.886719 24.941406 L 45.886719 23.6875 L 44.640625 23.6875 L 44.640625 24.941406 " fill-opacity="1" fill-rule="evenodd"/><path fill="#2c5c8e" d="M 46.03125 23.6875 L 46.03125 24.941406 L 47.277344 24.941406 L 47.277344 23.6875 L 46.03125 23.6875 " fill-opacity="1" fill-rule="evenodd"/><path fill="#2c5c8e" d="M 47.277344 25.0625 L 46.03125 25.0625 L 46.03125 26.316406 L 47.277344 26.316406 L 47.277344 25.0625 " fill-opacity="1" fill-rule="evenodd"/><path fill="#2c5c8e" d="M 45.886719 26.316406 L 45.886719 25.0625 L 44.640625 25.0625 L 44.640625 26.316406 L 45.886719 26.316406 " fill-opacity="1" fill-rule="evenodd"/><path fill="#2c5c8e" d="M 37.71875 29.445312 L 38.964844 29.445312 L 38.964844 28.191406 L 37.71875 28.191406 L 37.71875 29.445312 " fill-opacity="1" fill-rule="evenodd"/><path fill="#2c5c8e" d="M 39.109375 28.191406 L 39.109375 29.445312 L 40.355469 29.445312 L 40.355469 28.191406 L 39.109375 28.191406 " fill-opacity="1" fill-rule="evenodd"/><path fill="#2c5c8e" d="M 40.355469 29.566406 L 39.109375 29.566406 L 39.109375 30.820312 L 40.355469 30.820312 L 40.355469 29.566406 " fill-opacity="1" fill-rule="evenodd"/><path fill="#2c5c8e" d="M 38.964844 30.820312 L 38.964844 29.566406 L 37.71875 29.566406 L 37.71875 30.820312 L 38.964844 30.820312 " fill-opacity="1" fill-rule="evenodd"/><path fill="#2c5c8e" d="M 41.125 29.445312 L 42.371094 29.445312 L 42.371094 28.191406 L 41.125 28.191406 L 41.125 29.445312 " fill-opacity="1" fill-rule="evenodd"/><path fill="#2c5c8e" d="M 42.515625 28.191406 L 42.515625 29.445312 L 43.761719 29.445312 L 43.761719 28.191406 L 42.515625 28.191406 " fill-opacity="1" fill-rule="evenodd"/><path fill="#2c5c8e" d="M 43.761719 29.566406 L 42.515625 29.566406 L 42.515625 30.820312 L 43.761719 30.820312 L 43.761719 29.566406 " fill-opacity="1" fill-rule="evenodd"/><path fill="#2c5c8e" d="M 42.371094 30.820312 L 42.371094 29.566406 L 41.125 29.566406 L 41.125 30.820312 L 42.371094 30.820312 " fill-opacity="1" fill-rule="evenodd"/><path fill="#2c5c8e" d="M 44.640625 29.445312 L 45.886719 29.445312 L 45.886719 28.191406 L 44.640625 28.191406 L 44.640625 29.445312 " fill-opacity="1" fill-rule="evenodd"/><path fill="#2c5c8e" d="M 46.03125 28.191406 L 46.03125 29.445312 L 47.277344 29.445312 L 47.277344 28.191406 L 46.03125 28.191406 " fill-opacity="1" fill-rule="evenodd"/><path fill="#2c5c8e" d="M 47.277344 29.566406 L 46.03125 29.566406 L 46.03125 30.820312 L 47.277344 30.820312 L 47.277344 29.566406 " fill-opacity="1" fill-rule="evenodd"/><path fill="#2c5c8e" d="M 45.886719 30.820312 L 45.886719 29.566406 L 44.640625 29.566406 L 44.640625 30.820312 L 45.886719 30.820312 " fill-opacity="1" fill-rule="evenodd"/><path fill="#2c5c8e" d="M 37.71875 33.867188 L 38.964844 33.867188 L 38.964844 32.613281 L 37.71875 32.613281 L 37.71875 33.867188 " fill-opacity="1" fill-rule="evenodd"/><path fill="#2c5c8e" d="M 39.109375 32.613281 L 39.109375 33.867188 L 40.355469 33.867188 L 40.355469 32.613281 L 39.109375 32.613281 " fill-opacity="1" fill-rule="evenodd"/><path fill="#2c5c8e" d="M 40.355469 33.988281 L 39.109375 33.988281 L 39.109375 35.242188 L 40.355469 35.242188 L 40.355469 33.988281 " fill-opacity="1" fill-rule="evenodd"/><path fill="#2c5c8e" d="M 38.964844 35.242188 L 38.964844 33.988281 L 37.71875 33.988281 L 37.71875 35.242188 L 38.964844 35.242188 " fill-opacity="1" fill-rule="evenodd"/><path fill="#2c5c8e" d="M 41.125 33.867188 L 42.371094 33.867188 L 42.371094 32.613281 L 41.125 32.613281 L 41.125 33.867188 " fill-opacity="1" fill-rule="evenodd"/><path fill="#2c5c8e" d="M 42.515625 32.613281 L 42.515625 33.867188 L 43.761719 33.867188 L 43.761719 32.613281 L 42.515625 32.613281 " fill-opacity="1" fill-rule="evenodd"/><path fill="#2c5c8e" d="M 43.761719 33.988281 L 42.515625 33.988281 L 42.515625 35.242188 L 43.761719 35.242188 L 43.761719 33.988281 " fill-opacity="1" fill-rule="evenodd"/><path fill="#2c5c8e" d="M 42.371094 35.242188 L 42.371094 33.988281 L 41.125 33.988281 L 41.125 35.242188 L 42.371094 35.242188 " fill-opacity="1" fill-rule="evenodd"/><path fill="#2c5c8e" d="M 44.640625 33.867188 L 45.886719 33.867188 L 45.886719 32.613281 L 44.640625 32.613281 L 44.640625 33.867188 " fill-opacity="1" fill-rule="evenodd"/><path fill="#2c5c8e" d="M 46.03125 32.613281 L 46.03125 33.867188 L 47.277344 33.867188 L 47.277344 32.613281 L 46.03125 32.613281 " fill-opacity="1" fill-rule="evenodd"/><path fill="#2c5c8e" d="M 47.277344 33.988281 L 46.03125 33.988281 L 46.03125 35.242188 L 47.277344 35.242188 L 47.277344 33.988281 " fill-opacity="1" fill-rule="evenodd"/><path fill="#2c5c8e" d="M 45.886719 35.242188 L 45.886719 33.988281 L 44.640625 33.988281 L 44.640625 35.242188 L 45.886719 35.242188 " fill-opacity="1" fill-rule="evenodd"/><path fill="#2c5c8e" d="M 32.65625 22.257812 L 33.902344 22.257812 L 33.902344 21.003906 L 32.65625 21.003906 L 32.65625 22.257812 " fill-opacity="1" fill-rule="evenodd"/><path fill="#2c5c8e" d="M 34.046875 21.003906 L 34.046875 22.257812 L 35.292969 22.257812 L 35.292969 21.003906 L 34.046875 21.003906 " fill-opacity="1" fill-rule="evenodd"/><path fill="#2c5c8e" d="M 35.292969 22.378906 L 34.046875 22.378906 L 34.046875 23.636719 L 35.292969 23.636719 L 35.292969 22.378906 " fill-opacity="1" fill-rule="evenodd"/><path fill="#2c5c8e" d="M 33.902344 23.636719 L 33.902344 22.378906 L 32.65625 22.378906 L 32.65625 23.636719 L 33.902344 23.636719 " fill-opacity="1" fill-rule="evenodd"/><path fill="#2c5c8e" d="M 28.519531 22.257812 L 29.765625 22.257812 L 29.765625 21.003906 L 28.519531 21.003906 L 28.519531 22.257812 " fill-opacity="1" fill-rule="evenodd"/><path fill="#2c5c8e" d="M 29.910156 21.003906 L 29.910156 22.257812 L 31.152344 22.257812 L 31.152344 21.003906 L 29.910156 21.003906 " fill-opacity="1" fill-rule="evenodd"/><path fill="#2c5c8e" d="M 31.152344 22.378906 L 29.910156 22.378906 L 29.910156 23.636719 L 31.152344 23.636719 L 31.152344 22.378906 " fill-opacity="1" fill-rule="evenodd"/><path fill="#2c5c8e" d="M 29.765625 23.636719 L 29.765625 22.378906 L 28.519531 22.378906 L 28.519531 23.636719 L 29.765625 23.636719 " fill-opacity="1" fill-rule="evenodd"/><path fill="#2c5c8e" d="M 24.550781 22.257812 L 25.796875 22.257812 L 25.796875 21.003906 L 24.550781 21.003906 L 24.550781 22.257812 " fill-opacity="1" fill-rule="evenodd"/><path fill="#2c5c8e" d="M 25.9375 21.003906 L 25.9375 22.257812 L 27.1875 22.257812 L 27.1875 21.003906 L 25.9375 21.003906 " fill-opacity="1" fill-rule="evenodd"/><path fill="#2c5c8e" d="M 27.1875 22.378906 L 25.9375 22.378906 L 25.9375 23.636719 L 27.1875 23.636719 L 27.1875 22.378906 " fill-opacity="1" fill-rule="evenodd"/><path fill="#2c5c8e" d="M 25.796875 23.636719 L 25.796875 22.378906 L 24.550781 22.378906 L 24.550781 23.636719 L 25.796875 23.636719 " fill-opacity="1" fill-rule="evenodd"/></svg>