<svg xmlns="http://www.w3.org/2000/svg" xmlns:xlink="http://www.w3.org/1999/xlink" width="100" zoomAndPan="magnify" viewBox="0 0 75 74.999997" height="100" preserveAspectRatio="xMidYMid meet" version="1.0"><defs><g/></defs><g fill="#f1f1e1" fill-opacity="1"><g transform="translate(6.460667, 39.2425)"><g><path d="M 0.96875 -7.875 L 3.828125 -7.875 C 4.609375 -7.875 5.191406 -7.710938 5.578125 -7.390625 C 5.972656 -7.078125 6.171875 -6.570312 6.171875 -5.875 C 6.171875 -5.382812 6.082031 -5 5.90625 -4.71875 C 5.738281 -4.445312 5.488281 -4.226562 5.15625 -4.0625 C 5.988281 -3.78125 6.40625 -3.160156 6.40625 -2.203125 C 6.40625 -1.421875 6.195312 -0.859375 5.78125 -0.515625 C 5.363281 -0.171875 4.757812 0 3.96875 0 L 0.96875 0 Z M 3.890625 -3.625 L 1.84375 -3.625 L 1.84375 -0.78125 L 3.9375 -0.78125 C 4.457031 -0.78125 4.851562 -0.882812 5.125 -1.09375 C 5.394531 -1.3125 5.53125 -1.695312 5.53125 -2.25 C 5.53125 -2.53125 5.472656 -2.769531 5.359375 -2.96875 C 5.242188 -3.164062 5.097656 -3.304688 4.921875 -3.390625 C 4.585938 -3.546875 4.242188 -3.625 3.890625 -3.625 Z M 3.796875 -7.109375 L 1.84375 -7.109375 L 1.84375 -4.390625 L 3.875 -4.390625 C 4.363281 -4.390625 4.71875 -4.503906 4.9375 -4.734375 C 5.164062 -4.960938 5.28125 -5.3125 5.28125 -5.78125 C 5.28125 -6.25 5.160156 -6.585938 4.921875 -6.796875 C 4.679688 -7.003906 4.304688 -7.109375 3.796875 -7.109375 Z M 3.796875 -7.109375 "/></g></g></g><g fill="#f1f1e1" fill-opacity="1"><g transform="translate(15.206828, 39.2425)"><g><path d="M 0.96875 0 L 0.96875 -7.875 L 5.765625 -7.875 L 5.765625 -7.109375 L 1.84375 -7.109375 L 1.84375 -4.390625 L 5.078125 -4.390625 L 5.078125 -3.625 L 1.84375 -3.625 L 1.84375 -0.78125 L 5.765625 -0.78125 L 5.765625 0 Z M 0.96875 0 "/></g></g></g><g fill="#f1f1e1" fill-opacity="1"><g transform="translate(23.235596, 39.2425)"><g><path d="M 3.140625 -7.234375 C 2.003906 -7.234375 1.4375 -6.804688 1.4375 -5.953125 C 1.4375 -5.472656 1.566406 -5.140625 1.828125 -4.953125 C 2.085938 -4.773438 2.617188 -4.597656 3.421875 -4.421875 C 4.222656 -4.242188 4.789062 -4.007812 5.125 -3.71875 C 5.457031 -3.4375 5.625 -2.972656 5.625 -2.328125 C 5.625 -0.703125 4.785156 0.109375 3.109375 0.109375 C 2.554688 0.109375 1.863281 0.0390625 1.03125 -0.09375 L 0.609375 -0.140625 L 0.703125 -0.875 C 1.734375 -0.738281 2.519531 -0.671875 3.0625 -0.671875 C 4.1875 -0.671875 4.75 -1.195312 4.75 -2.25 C 4.75 -2.675781 4.625 -2.984375 4.375 -3.171875 C 4.132812 -3.359375 3.675781 -3.515625 3 -3.640625 C 2.101562 -3.835938 1.46875 -4.082031 1.09375 -4.375 C 0.726562 -4.675781 0.546875 -5.179688 0.546875 -5.890625 C 0.546875 -7.296875 1.394531 -8 3.09375 -8 C 3.644531 -8 4.304688 -7.945312 5.078125 -7.84375 L 5.46875 -7.78125 L 5.390625 -7.046875 C 4.328125 -7.171875 3.578125 -7.234375 3.140625 -7.234375 Z M 3.140625 -7.234375 "/></g></g></g><g fill="#f1f1e1" fill-opacity="1"><g transform="translate(31.139106, 39.2425)"><g><path d="M 0.140625 -7.09375 L 0.140625 -7.875 L 5.84375 -7.875 L 5.84375 -7.09375 L 3.4375 -7.09375 L 3.4375 0 L 2.578125 0 L 2.578125 -7.09375 Z M 0.140625 -7.09375 "/></g></g></g><g fill="#f1f1e1" fill-opacity="1"><g transform="translate(38.860424, 39.2425)"><g><path d="M 0.265625 0 L 2.4375 -7.875 L 4.34375 -7.875 L 6.515625 0 L 5.65625 0 L 5.078125 -2.03125 L 1.703125 -2.03125 L 1.140625 0 Z M 3.09375 -7.125 L 1.90625 -2.8125 L 4.890625 -2.8125 L 3.6875 -7.125 Z M 1.8125 -9.203125 L 1.8125 -10.234375 L 2.640625 -10.234375 L 2.640625 -9.203125 Z M 4.140625 -9.203125 L 4.140625 -10.234375 L 4.953125 -10.234375 L 4.953125 -9.203125 Z M 4.140625 -9.203125 "/></g></g></g><g fill="#f1f1e1" fill-opacity="1"><g transform="translate(47.378842, 39.2425)"><g><path d="M 5.3125 0 L 0.96875 0 L 0.96875 -7.875 L 1.84375 -7.875 L 1.84375 -0.78125 L 5.3125 -0.78125 Z M 5.3125 0 "/></g></g></g><g fill="#f1f1e1" fill-opacity="1"><g transform="translate(54.564966, 39.2425)"><g><path d="M 5.3125 0 L 0.96875 0 L 0.96875 -7.875 L 1.84375 -7.875 L 1.84375 -0.78125 L 5.3125 -0.78125 Z M 5.3125 0 "/></g></g></g><g fill="#f1f1e1" fill-opacity="1"><g transform="translate(61.75109, 39.2425)"><g><path d="M 0.265625 0 L 2.4375 -7.875 L 4.34375 -7.875 L 6.515625 0 L 5.65625 0 L 5.078125 -2.03125 L 1.703125 -2.03125 L 1.140625 0 Z M 3.09375 -7.125 L 1.90625 -2.8125 L 4.890625 -2.8125 L 3.6875 -7.125 Z M 3.09375 -7.125 "/></g></g></g><g fill="#fdc338" fill-opacity="1"><g transform="translate(26.517768, 45.429234)"><g><path d="M 0.390625 -2.515625 L 1.53125 -2.515625 C 1.769531 -2.515625 1.9375 -2.457031 2.03125 -2.34375 C 2.132812 -2.238281 2.1875 -2.085938 2.1875 -1.890625 C 2.1875 -1.722656 2.148438 -1.585938 2.078125 -1.484375 C 2.015625 -1.390625 1.910156 -1.328125 1.765625 -1.296875 L 1.765625 -1.28125 C 1.941406 -1.25 2.0625 -1.175781 2.125 -1.0625 C 2.1875 -0.957031 2.21875 -0.820312 2.21875 -0.65625 C 2.21875 -0.457031 2.164062 -0.296875 2.0625 -0.171875 C 1.96875 -0.0546875 1.785156 0 1.515625 0 L 0.390625 0 Z M 1.46875 -1.390625 C 1.789062 -1.390625 1.953125 -1.539062 1.953125 -1.84375 C 1.953125 -2 1.914062 -2.113281 1.84375 -2.1875 C 1.78125 -2.257812 1.65625 -2.296875 1.46875 -2.296875 L 0.625 -2.296875 L 0.625 -1.390625 Z M 1.484375 -0.21875 C 1.671875 -0.21875 1.800781 -0.253906 1.875 -0.328125 C 1.945312 -0.398438 1.984375 -0.519531 1.984375 -0.6875 C 1.984375 -0.851562 1.941406 -0.972656 1.859375 -1.046875 C 1.785156 -1.128906 1.660156 -1.171875 1.484375 -1.171875 L 0.625 -1.171875 L 0.625 -0.21875 Z M 1.484375 -0.21875 "/></g></g></g><g fill="#fdc338" fill-opacity="1"><g transform="translate(29.019322, 45.429234)"><g><path d="M 0.390625 0 L 0.390625 -2.515625 L 1.984375 -2.515625 L 1.984375 -2.296875 L 0.625 -2.296875 L 0.625 -1.375 L 1.8125 -1.375 L 1.8125 -1.15625 L 0.625 -1.15625 L 0.625 -0.21875 L 1.984375 -0.21875 L 1.984375 0 Z M 0.390625 0 "/></g></g></g><g fill="#fdc338" fill-opacity="1"><g transform="translate(31.220545, 45.429234)"><g><path d="M 1.203125 0.03125 C 1.066406 0.03125 0.914062 0.0234375 0.75 0.015625 C 0.59375 0.00390625 0.457031 -0.00390625 0.34375 -0.015625 L 0.34375 -0.234375 C 0.46875 -0.222656 0.601562 -0.210938 0.75 -0.203125 C 0.90625 -0.191406 1.035156 -0.1875 1.140625 -0.1875 C 1.273438 -0.1875 1.378906 -0.191406 1.453125 -0.203125 C 1.535156 -0.210938 1.609375 -0.238281 1.671875 -0.28125 C 1.722656 -0.3125 1.757812 -0.359375 1.78125 -0.421875 C 1.800781 -0.484375 1.8125 -0.570312 1.8125 -0.6875 C 1.8125 -0.820312 1.800781 -0.914062 1.78125 -0.96875 C 1.769531 -1.019531 1.738281 -1.054688 1.6875 -1.078125 C 1.632812 -1.109375 1.539062 -1.128906 1.40625 -1.140625 L 0.765625 -1.21875 C 0.617188 -1.226562 0.507812 -1.257812 0.4375 -1.3125 C 0.363281 -1.363281 0.316406 -1.429688 0.296875 -1.515625 C 0.273438 -1.597656 0.265625 -1.710938 0.265625 -1.859375 C 0.265625 -2.046875 0.296875 -2.1875 0.359375 -2.28125 C 0.421875 -2.382812 0.515625 -2.453125 0.640625 -2.484375 C 0.765625 -2.523438 0.9375 -2.546875 1.15625 -2.546875 C 1.289062 -2.546875 1.429688 -2.539062 1.578125 -2.53125 C 1.722656 -2.519531 1.835938 -2.503906 1.921875 -2.484375 L 1.921875 -2.28125 C 1.816406 -2.289062 1.695312 -2.300781 1.5625 -2.3125 C 1.425781 -2.320312 1.300781 -2.328125 1.1875 -2.328125 C 1.039062 -2.328125 0.921875 -2.316406 0.828125 -2.296875 C 0.742188 -2.285156 0.675781 -2.265625 0.625 -2.234375 C 0.570312 -2.203125 0.535156 -2.15625 0.515625 -2.09375 C 0.503906 -2.03125 0.5 -1.953125 0.5 -1.859375 C 0.5 -1.742188 0.503906 -1.660156 0.515625 -1.609375 C 0.535156 -1.554688 0.566406 -1.519531 0.609375 -1.5 C 0.660156 -1.476562 0.734375 -1.460938 0.828125 -1.453125 L 1.453125 -1.375 C 1.617188 -1.363281 1.742188 -1.335938 1.828125 -1.296875 C 1.910156 -1.265625 1.96875 -1.203125 2 -1.109375 C 2.03125 -1.023438 2.046875 -0.890625 2.046875 -0.703125 C 2.046875 -0.484375 2.007812 -0.320312 1.9375 -0.21875 C 1.875 -0.113281 1.785156 -0.046875 1.671875 -0.015625 C 1.554688 0.015625 1.398438 0.03125 1.203125 0.03125 Z M 1.203125 0.03125 "/></g></g></g><g fill="#fdc338" fill-opacity="1"><g transform="translate(33.531645, 45.429234)"><g><path d="M 0.9375 0 L 0.9375 -2.28125 L 0.125 -2.28125 L 0.125 -2.515625 L 2 -2.515625 L 2 -2.28125 L 1.1875 -2.28125 L 1.1875 0 Z M 0.9375 0 "/></g></g></g><g fill="#fdc338" fill-opacity="1"><g transform="translate(35.659613, 45.429234)"><g/></g></g><g fill="#fdc338" fill-opacity="1"><g transform="translate(36.502012, 45.429234)"><g><path d="M 1.3125 0.03125 C 0.988281 0.03125 0.753906 0 0.609375 -0.0625 C 0.472656 -0.125 0.382812 -0.238281 0.34375 -0.40625 C 0.3125 -0.570312 0.296875 -0.851562 0.296875 -1.25 C 0.296875 -1.65625 0.3125 -1.941406 0.34375 -2.109375 C 0.382812 -2.273438 0.472656 -2.390625 0.609375 -2.453125 C 0.753906 -2.515625 0.988281 -2.546875 1.3125 -2.546875 C 1.644531 -2.546875 1.878906 -2.515625 2.015625 -2.453125 C 2.148438 -2.390625 2.234375 -2.273438 2.265625 -2.109375 C 2.304688 -1.941406 2.328125 -1.65625 2.328125 -1.25 C 2.328125 -0.851562 2.304688 -0.570312 2.265625 -0.40625 C 2.234375 -0.238281 2.148438 -0.125 2.015625 -0.0625 C 1.878906 0 1.644531 0.03125 1.3125 0.03125 Z M 1.3125 -0.1875 C 1.582031 -0.1875 1.765625 -0.203125 1.859375 -0.234375 C 1.953125 -0.273438 2.015625 -0.363281 2.046875 -0.5 C 2.078125 -0.632812 2.09375 -0.882812 2.09375 -1.25 C 2.09375 -1.625 2.078125 -1.878906 2.046875 -2.015625 C 2.015625 -2.148438 1.953125 -2.234375 1.859375 -2.265625 C 1.765625 -2.304688 1.582031 -2.328125 1.3125 -2.328125 C 1.039062 -2.328125 0.859375 -2.304688 0.765625 -2.265625 C 0.671875 -2.234375 0.609375 -2.148438 0.578125 -2.015625 C 0.546875 -1.878906 0.53125 -1.625 0.53125 -1.25 C 0.53125 -0.882812 0.546875 -0.632812 0.578125 -0.5 C 0.609375 -0.363281 0.671875 -0.273438 0.765625 -0.234375 C 0.859375 -0.203125 1.039062 -0.1875 1.3125 -0.1875 Z M 1.3125 -0.1875 "/></g></g></g><g fill="#fdc338" fill-opacity="1"><g transform="translate(39.139084, 45.429234)"><g><path d="M 0.390625 0 L 0.390625 -2.515625 L 1.921875 -2.515625 L 1.921875 -2.296875 L 0.625 -2.296875 L 0.625 -1.328125 L 1.78125 -1.328125 L 1.78125 -1.109375 L 0.625 -1.109375 L 0.625 0 Z M 0.390625 0 "/></g></g></g><g fill="#fdc338" fill-opacity="1"><g transform="translate(41.201128, 45.429234)"><g/></g></g><g fill="#fdc338" fill-opacity="1"><g transform="translate(42.043526, 45.429234)"><g><path d="M 2.125 0 L 1.84375 -0.734375 L 0.65625 -0.734375 L 0.359375 0 L 0.125 0 L 1.109375 -2.515625 L 1.390625 -2.515625 L 2.375 0 Z M 1.25 -2.234375 L 1.234375 -2.234375 L 0.734375 -0.953125 L 1.765625 -0.953125 Z M 1.25 -2.234375 "/></g></g></g><g fill="#fdc338" fill-opacity="1"><g transform="translate(44.54508, 45.429234)"><g><path d="M 0.390625 0 L 0.390625 -2.515625 L 0.625 -2.515625 L 0.625 -0.234375 L 1.84375 -0.234375 L 1.84375 0 Z M 0.390625 0 "/></g></g></g><g fill="#fdc338" fill-opacity="1"><g transform="translate(46.511896, 45.429234)"><g><path d="M 0.390625 0 L 0.390625 -2.515625 L 0.625 -2.515625 L 0.625 -0.234375 L 1.84375 -0.234375 L 1.84375 0 Z M 0.390625 0 "/></g></g></g></svg>