<svg xmlns="http://www.w3.org/2000/svg" xmlns:xlink="http://www.w3.org/1999/xlink" width="40" zoomAndPan="magnify" viewBox="0 0 30 30.000001" height="40" preserveAspectRatio="xMidYMid meet" version="1.0"><defs><clipPath id="c580ec1e26"><path d="M 4.867188 10 L 25.1875 10 L 25.1875 15 L 4.867188 15 Z M 4.867188 10 " clip-rule="nonzero"/></clipPath><clipPath id="d2495bec31"><path d="M 5 7.582031 L 25 7.582031 L 25 9 L 5 9 Z M 5 7.582031 " clip-rule="nonzero"/></clipPath><clipPath id="6da5be4a04"><path d="M 4.867188 14 L 7 14 L 7 18 L 4.867188 18 Z M 4.867188 14 " clip-rule="nonzero"/></clipPath><clipPath id="193cbc26cd"><path d="M 23 14 L 25.1875 14 L 25.1875 18 L 23 18 Z M 23 14 " clip-rule="nonzero"/></clipPath><clipPath id="967910fb59"><path d="M 4.867188 26 L 25.1875 26 L 25.1875 27.902344 L 4.867188 27.902344 Z M 4.867188 26 " clip-rule="nonzero"/></clipPath></defs><path fill="#c7463b" d="M 5.9375 15.960938 L 24.113281 15.960938 L 24.113281 26.585938 L 5.9375 26.585938 Z M 5.9375 15.960938 " fill-opacity="1" fill-rule="nonzero"/><path fill="#c7463b" d="M 5.9375 8.625 L 24.113281 8.625 L 24.113281 10.359375 L 5.9375 10.359375 Z M 5.9375 8.625 " fill-opacity="1" fill-rule="nonzero"/><g clip-path="url(#c580ec1e26)"><path fill="#e2ac7a" d="M 25.070312 14.441406 L 4.984375 14.441406 L 5.9375 10.363281 L 24.117188 10.363281 Z M 25.070312 14.441406 " fill-opacity="1" fill-rule="nonzero"/></g><g clip-path="url(#d2495bec31)"><path fill="#e0e0e0" d="M 5.421875 7.585938 L 24.632812 7.585938 L 24.632812 8.628906 L 5.421875 8.628906 Z M 5.421875 7.585938 " fill-opacity="1" fill-rule="nonzero"/></g><path fill="#da922a" d="M 14.027344 17.121094 C 13.894531 17.121094 13.769531 17.09375 13.644531 17.042969 C 13.523438 16.992188 13.414062 16.917969 13.320312 16.824219 C 13.226562 16.726562 13.15625 16.617188 13.105469 16.496094 C 13.054688 16.371094 13.03125 16.242188 13.03125 16.105469 L 13.03125 14.441406 L 15.027344 14.441406 L 15.027344 16.105469 C 15.027344 16.242188 15.003906 16.371094 14.953125 16.496094 C 14.902344 16.617188 14.828125 16.730469 14.734375 16.824219 C 14.640625 16.917969 14.53125 16.992188 14.410156 17.042969 C 14.289062 17.09375 14.160156 17.121094 14.027344 17.121094 Z M 14.027344 17.121094 " fill-opacity="1" fill-rule="nonzero"/><path fill="#e0e0e0" d="M 11.03125 14.441406 L 13.027344 14.441406 L 13.027344 16.109375 C 13.027344 16.246094 13 16.375 12.949219 16.5 C 12.898438 16.621094 12.828125 16.734375 12.734375 16.828125 C 12.640625 16.921875 12.53125 16.996094 12.410156 17.046875 C 12.289062 17.101562 12.160156 17.125 12.027344 17.125 C 11.894531 17.125 11.765625 17.101562 11.644531 17.046875 C 11.523438 16.996094 11.414062 16.921875 11.320312 16.828125 C 11.226562 16.734375 11.152344 16.621094 11.101562 16.5 C 11.050781 16.375 11.027344 16.246094 11.027344 16.109375 L 11.027344 14.441406 Z M 11.03125 14.441406 " fill-opacity="1" fill-rule="nonzero"/><path fill="#da922a" d="M 10.035156 17.121094 C 9.902344 17.121094 9.773438 17.09375 9.652344 17.042969 C 9.527344 16.992188 9.421875 16.917969 9.328125 16.824219 C 9.234375 16.730469 9.160156 16.617188 9.109375 16.496094 C 9.058594 16.371094 9.035156 16.242188 9.035156 16.105469 L 9.035156 14.441406 L 11.03125 14.441406 L 11.03125 16.105469 C 11.03125 16.242188 11.007812 16.371094 10.957031 16.496094 C 10.90625 16.617188 10.832031 16.726562 10.742188 16.824219 C 10.648438 16.917969 10.539062 16.992188 10.417969 17.042969 C 10.292969 17.09375 10.167969 17.121094 10.035156 17.121094 Z M 10.035156 17.121094 " fill-opacity="1" fill-rule="nonzero"/><path fill="#e0e0e0" d="M 6.984375 14.441406 L 9.035156 14.441406 L 9.035156 16.109375 C 9.035156 16.246094 9.007812 16.375 8.957031 16.5 C 8.90625 16.621094 8.835938 16.734375 8.742188 16.828125 C 8.648438 16.921875 8.539062 16.996094 8.417969 17.046875 C 8.292969 17.101562 8.167969 17.125 8.035156 17.125 L 7.980469 17.125 C 7.851562 17.125 7.722656 17.101562 7.597656 17.046875 C 7.476562 16.996094 7.367188 16.921875 7.273438 16.828125 C 7.179688 16.734375 7.109375 16.621094 7.058594 16.5 C 7.007812 16.375 6.980469 16.246094 6.980469 16.109375 L 6.980469 14.441406 Z M 6.984375 14.441406 " fill-opacity="1" fill-rule="nonzero"/><g clip-path="url(#6da5be4a04)"><path fill="#da922a" d="M 5.984375 17.121094 C 5.851562 17.121094 5.726562 17.09375 5.601562 17.042969 C 5.480469 16.992188 5.371094 16.917969 5.277344 16.824219 C 5.183594 16.730469 5.113281 16.617188 5.0625 16.496094 C 5.011719 16.371094 4.984375 16.242188 4.984375 16.105469 L 4.984375 14.441406 L 6.984375 14.441406 L 6.984375 16.105469 C 6.984375 16.242188 6.960938 16.371094 6.910156 16.496094 C 6.859375 16.617188 6.785156 16.730469 6.691406 16.824219 C 6.597656 16.917969 6.492188 16.992188 6.367188 17.042969 C 6.246094 17.09375 6.117188 17.121094 5.984375 17.121094 Z M 5.984375 17.121094 " fill-opacity="1" fill-rule="nonzero"/></g><g clip-path="url(#193cbc26cd)"><path fill="#e0e0e0" d="M 23.070312 14.441406 L 25.070312 14.441406 L 25.070312 16.109375 C 25.070312 16.246094 25.042969 16.375 24.992188 16.5 C 24.941406 16.621094 24.871094 16.734375 24.777344 16.828125 C 24.683594 16.921875 24.574219 16.996094 24.453125 17.046875 C 24.328125 17.101562 24.203125 17.125 24.070312 17.125 C 23.9375 17.125 23.808594 17.101562 23.6875 17.046875 C 23.5625 16.996094 23.457031 16.921875 23.363281 16.828125 C 23.269531 16.734375 23.195312 16.621094 23.144531 16.5 C 23.09375 16.375 23.070312 16.246094 23.070312 16.109375 Z M 23.070312 14.441406 " fill-opacity="1" fill-rule="nonzero"/></g><path fill="#da922a" d="M 22.074219 17.121094 C 21.941406 17.121094 21.8125 17.09375 21.691406 17.042969 C 21.566406 16.992188 21.460938 16.917969 21.367188 16.824219 C 21.273438 16.730469 21.199219 16.617188 21.148438 16.496094 C 21.097656 16.371094 21.074219 16.242188 21.074219 16.105469 L 21.074219 14.441406 L 23.070312 14.441406 L 23.070312 16.105469 C 23.070312 16.242188 23.046875 16.371094 22.996094 16.496094 C 22.945312 16.617188 22.871094 16.726562 22.777344 16.824219 C 22.683594 16.917969 22.578125 16.992188 22.457031 17.042969 C 22.332031 17.09375 22.207031 17.121094 22.074219 17.121094 Z M 22.074219 17.121094 " fill-opacity="1" fill-rule="nonzero"/><path fill="#e0e0e0" d="M 19.023438 14.441406 L 21.074219 14.441406 L 21.074219 16.109375 C 21.074219 16.246094 21.046875 16.375 20.996094 16.5 C 20.945312 16.621094 20.875 16.734375 20.78125 16.828125 C 20.6875 16.921875 20.578125 16.996094 20.457031 17.046875 C 20.332031 17.101562 20.207031 17.125 20.074219 17.125 L 20.019531 17.125 C 19.886719 17.125 19.761719 17.101562 19.636719 17.046875 C 19.515625 16.996094 19.40625 16.921875 19.3125 16.828125 C 19.21875 16.734375 19.148438 16.621094 19.097656 16.5 C 19.046875 16.375 19.019531 16.246094 19.019531 16.109375 L 19.019531 14.441406 Z M 19.023438 14.441406 " fill-opacity="1" fill-rule="nonzero"/><path fill="#da922a" d="M 18.023438 17.121094 C 17.890625 17.121094 17.765625 17.09375 17.640625 17.042969 C 17.519531 16.992188 17.410156 16.917969 17.316406 16.824219 C 17.222656 16.730469 17.152344 16.617188 17.101562 16.496094 C 17.050781 16.371094 17.023438 16.242188 17.023438 16.105469 L 17.023438 14.441406 L 19.023438 14.441406 L 19.023438 16.105469 C 19.023438 16.242188 19 16.371094 18.949219 16.496094 C 18.898438 16.617188 18.824219 16.730469 18.730469 16.824219 C 18.636719 16.917969 18.53125 16.992188 18.40625 17.042969 C 18.285156 17.09375 18.15625 17.121094 18.023438 17.121094 Z M 18.023438 17.121094 " fill-opacity="1" fill-rule="nonzero"/><path fill="#e0e0e0" d="M 15.027344 14.441406 L 17.023438 14.441406 L 17.023438 16.109375 C 17.023438 16.246094 17 16.375 16.949219 16.5 C 16.898438 16.621094 16.824219 16.734375 16.730469 16.828125 C 16.636719 16.921875 16.527344 16.996094 16.40625 17.046875 C 16.285156 17.101562 16.15625 17.125 16.023438 17.125 C 15.890625 17.125 15.765625 17.097656 15.640625 17.046875 C 15.519531 16.996094 15.410156 16.921875 15.316406 16.824219 C 15.222656 16.730469 15.152344 16.621094 15.101562 16.496094 C 15.050781 16.371094 15.027344 16.242188 15.027344 16.105469 Z M 15.027344 14.441406 " fill-opacity="1" fill-rule="nonzero"/><path fill="#e0e0e0" d="M 20.554688 18.226562 L 20.945312 18.226562 C 21.1875 18.226562 21.421875 18.273438 21.644531 18.367188 C 21.867188 18.460938 22.066406 18.59375 22.238281 18.769531 C 22.40625 18.941406 22.539062 19.144531 22.632812 19.371094 C 22.726562 19.597656 22.773438 19.832031 22.773438 20.078125 L 22.773438 26.589844 L 18.722656 26.589844 L 18.722656 20.082031 C 18.722656 19.835938 18.769531 19.601562 18.859375 19.371094 C 18.953125 19.144531 19.085938 18.941406 19.257812 18.769531 C 19.429688 18.59375 19.628906 18.460938 19.851562 18.367188 C 20.078125 18.273438 20.308594 18.226562 20.554688 18.226562 Z M 20.554688 18.226562 " fill-opacity="1" fill-rule="nonzero"/><path fill="#777777" d="M 22.773438 26.828125 L 18.722656 26.828125 C 18.65625 26.828125 18.601562 26.804688 18.554688 26.757812 C 18.507812 26.710938 18.484375 26.65625 18.484375 26.589844 L 18.484375 20.082031 C 18.484375 19.804688 18.539062 19.539062 18.644531 19.28125 C 18.75 19.023438 18.898438 18.796875 19.089844 18.601562 C 19.285156 18.402344 19.507812 18.25 19.761719 18.144531 C 20.015625 18.039062 20.277344 17.984375 20.554688 17.984375 L 20.945312 17.984375 C 21.21875 17.984375 21.484375 18.039062 21.734375 18.144531 C 21.988281 18.25 22.210938 18.402344 22.40625 18.601562 C 22.597656 18.796875 22.75 19.023438 22.851562 19.28125 C 22.957031 19.539062 23.011719 19.804688 23.011719 20.082031 L 23.011719 26.589844 C 23.011719 26.65625 22.988281 26.710938 22.941406 26.757812 C 22.894531 26.804688 22.835938 26.828125 22.773438 26.828125 Z M 18.960938 26.347656 L 22.535156 26.347656 L 22.535156 20.082031 C 22.535156 19.871094 22.492188 19.664062 22.414062 19.464844 C 22.332031 19.269531 22.21875 19.09375 22.070312 18.941406 C 21.921875 18.789062 21.75 18.675781 21.554688 18.589844 C 21.359375 18.507812 21.15625 18.46875 20.945312 18.46875 L 20.554688 18.46875 C 20.34375 18.46875 20.140625 18.507812 19.945312 18.589844 C 19.75 18.671875 19.578125 18.789062 19.429688 18.941406 C 19.28125 19.09375 19.164062 19.269531 19.082031 19.464844 C 19.003906 19.664062 18.960938 19.871094 18.960938 20.082031 Z M 18.960938 26.347656 " fill-opacity="1" fill-rule="nonzero"/><path fill="#fbe36a" d="M 21.929688 21.058594 L 21.929688 20.433594 C 21.929688 20.273438 21.898438 20.121094 21.839844 19.976562 C 21.777344 19.828125 21.691406 19.699219 21.582031 19.585938 C 21.472656 19.476562 21.34375 19.390625 21.199219 19.328125 C 21.054688 19.269531 20.902344 19.238281 20.746094 19.238281 C 20.589844 19.238281 20.441406 19.269531 20.296875 19.328125 C 20.152344 19.390625 20.023438 19.476562 19.914062 19.585938 C 19.804688 19.699219 19.71875 19.828125 19.660156 19.976562 C 19.597656 20.121094 19.570312 20.277344 19.570312 20.433594 L 19.570312 25.582031 L 21.929688 25.582031 L 21.929688 23.6875 " fill-opacity="1" fill-rule="nonzero"/><path fill="#e0e0e0" d="M 21.929688 20.675781 L 21.929688 20.191406 L 19.570312 20.191406 L 19.570312 20.675781 L 20.507812 20.675781 L 20.507812 22.089844 L 19.570312 22.089844 L 19.570312 22.574219 L 20.507812 22.574219 L 20.507812 23.992188 L 19.570312 23.992188 L 19.570312 24.476562 L 20.507812 24.476562 L 20.507812 25.582031 L 20.984375 25.582031 L 20.984375 24.476562 L 21.929688 24.476562 L 21.929688 23.992188 L 20.984375 23.992188 L 20.984375 22.574219 L 21.929688 22.574219 L 21.929688 22.089844 L 20.984375 22.089844 L 20.984375 20.675781 Z M 21.929688 20.675781 " fill-opacity="1" fill-rule="nonzero"/><path fill="#777777" d="M 21.691406 21.691406 L 22.167969 21.691406 L 22.167969 22.976562 L 21.691406 22.976562 Z M 21.691406 21.691406 " fill-opacity="1" fill-rule="nonzero"/><path fill="#af0e0e" d="M 17.476562 20.011719 L 17.476562 25.285156 L 16.214844 25.285156 C 16.402344 24.109375 16.640625 23.003906 16.640625 23.003906 L 16.390625 22.878906 C 15.9375 22.65625 15.703125 22.285156 15.679688 21.777344 L 15.519531 18.226562 L 15.714844 18.226562 C 15.949219 18.226562 16.171875 18.269531 16.386719 18.359375 C 16.605469 18.449219 16.796875 18.578125 16.960938 18.746094 C 17.125 18.914062 17.253906 19.109375 17.34375 19.328125 C 17.433594 19.546875 17.476562 19.773438 17.476562 20.011719 Z M 17.476562 20.011719 " fill-opacity="1" fill-rule="nonzero"/><path fill="#af0e0e" d="M 9 18.226562 L 8.839844 21.777344 C 8.816406 22.285156 8.578125 22.65625 8.128906 22.878906 L 7.875 23.003906 C 7.875 23.003906 8.117188 24.109375 8.304688 25.285156 L 6.984375 25.285156 L 6.984375 20.011719 C 6.984375 19.773438 7.03125 19.546875 7.121094 19.328125 C 7.210938 19.109375 7.335938 18.917969 7.5 18.75 C 7.664062 18.582031 7.855469 18.453125 8.070312 18.363281 C 8.285156 18.269531 8.511719 18.226562 8.746094 18.226562 Z M 9 18.226562 " fill-opacity="1" fill-rule="nonzero"/><path fill="#fbe36a" d="M 16.640625 23.003906 C 16.640625 23.003906 16.402344 24.109375 16.214844 25.285156 L 8.304688 25.285156 C 8.117188 24.109375 7.875 23.003906 7.875 23.003906 L 8.128906 22.878906 C 8.578125 22.65625 8.816406 22.285156 8.839844 21.777344 L 9 18.226562 L 15.519531 18.226562 L 15.679688 21.777344 C 15.703125 22.285156 15.9375 22.65625 16.390625 22.878906 Z M 16.640625 23.003906 " fill-opacity="1" fill-rule="nonzero"/><path fill="#da922a" d="M 13.675781 20.957031 L 10.722656 20.957031 L 11.933594 20.105469 L 12.535156 20.105469 Z M 13.675781 20.957031 " fill-opacity="1" fill-rule="nonzero"/><path fill="#777777" d="M 11.960938 18.226562 L 12.4375 18.226562 L 12.4375 20.101562 L 11.960938 20.101562 Z M 11.960938 18.226562 " fill-opacity="1" fill-rule="nonzero"/><path fill="#777777" d="M 13.808594 23.867188 L 13.808594 23.382812 L 10.96875 23.382812 L 10.96875 23.867188 L 12.148438 23.867188 L 12.148438 25.285156 L 12.625 25.285156 L 12.625 23.867188 Z M 13.808594 23.867188 " fill-opacity="1" fill-rule="nonzero"/><path fill="#777777" d="M 14.789062 23.257812 L 14.789062 24.132812 L 13.703125 24.132812 C 13.636719 24.132812 13.578125 24.15625 13.535156 24.203125 C 13.488281 24.25 13.464844 24.308594 13.464844 24.375 L 13.464844 25.285156 L 13.941406 25.285156 L 13.941406 24.617188 L 14.789062 24.617188 L 14.789062 25.285156 L 15.265625 25.285156 L 15.265625 23.257812 Z M 14.789062 23.257812 " fill-opacity="1" fill-rule="nonzero"/><path fill="#777777" d="M 11.011719 24.132812 L 9.921875 24.132812 L 9.921875 23.257812 L 9.445312 23.257812 L 9.445312 25.285156 L 9.921875 25.285156 L 9.921875 24.617188 L 10.773438 24.617188 L 10.773438 25.285156 L 11.25 25.285156 L 11.25 24.375 C 11.25 24.308594 11.226562 24.25 11.179688 24.203125 C 11.132812 24.15625 11.078125 24.132812 11.011719 24.132812 Z M 11.011719 24.132812 " fill-opacity="1" fill-rule="nonzero"/><path fill="#777777" d="M 6.984375 19.769531 L 17.476562 19.769531 L 17.476562 20.253906 L 6.984375 20.253906 Z M 6.984375 19.769531 " fill-opacity="1" fill-rule="nonzero"/><path fill="#e0e0e0" d="M 17.726562 11.628906 C 17.726562 12.148438 17.589844 12.628906 17.320312 13.066406 C 17.050781 13.507812 16.6875 13.84375 16.230469 14.074219 C 16.078125 14.152344 15.917969 14.210938 15.753906 14.257812 C 15.519531 14.324219 15.28125 14.355469 15.039062 14.355469 C 14.722656 14.355469 14.417969 14.300781 14.121094 14.191406 C 13.957031 14.128906 13.796875 14.054688 13.644531 13.957031 C 13.445312 13.835938 13.265625 13.6875 13.105469 13.515625 C 12.941406 13.34375 12.804688 13.152344 12.691406 12.945312 C 12.578125 12.734375 12.496094 12.515625 12.4375 12.285156 C 12.382812 12.054688 12.355469 11.820312 12.359375 11.582031 C 12.363281 11.347656 12.398438 11.113281 12.464844 10.882812 C 12.527344 10.65625 12.621094 10.441406 12.738281 10.234375 C 12.859375 10.03125 13.003906 9.847656 13.171875 9.679688 C 13.339844 9.515625 13.523438 9.375 13.730469 9.257812 C 13.933594 9.140625 14.148438 9.054688 14.375 8.992188 C 14.601562 8.933594 14.832031 8.90625 15.066406 8.90625 C 15.300781 8.910156 15.53125 8.941406 15.753906 9.003906 C 15.980469 9.066406 16.195312 9.160156 16.398438 9.28125 C 16.597656 9.398438 16.78125 9.542969 16.949219 9.710938 C 17.113281 9.878906 17.253906 10.066406 17.371094 10.273438 C 17.488281 10.480469 17.574219 10.699219 17.636719 10.925781 C 17.695312 11.15625 17.726562 11.390625 17.726562 11.628906 Z M 17.726562 11.628906 " fill-opacity="1" fill-rule="nonzero"/><path fill="#777777" d="M 17.074219 10.378906 L 17.074219 11.867188 C 17.074219 11.933594 17.050781 11.988281 17.007812 12.039062 C 16.960938 12.085938 16.902344 12.109375 16.835938 12.109375 L 16.230469 12.109375 L 16.230469 14.074219 C 16.078125 14.152344 15.917969 14.210938 15.753906 14.257812 L 15.753906 12.109375 L 15.144531 12.109375 C 15.078125 12.109375 15.019531 12.085938 14.972656 12.039062 C 14.929688 11.988281 14.90625 11.933594 14.90625 11.867188 L 14.90625 10.378906 L 15.382812 10.378906 L 15.382812 11.625 L 15.753906 11.625 L 15.753906 10.378906 L 16.230469 10.378906 L 16.230469 11.625 L 16.597656 11.625 L 16.597656 10.378906 Z M 17.074219 10.378906 " fill-opacity="1" fill-rule="nonzero"/><path fill="#777777" d="M 14.613281 11.109375 C 14.613281 11.476562 14.410156 11.78125 14.121094 11.894531 L 14.121094 14.191406 C 13.957031 14.128906 13.796875 14.054688 13.644531 13.957031 L 13.644531 11.894531 C 13.355469 11.78125 13.148438 11.476562 13.148438 11.109375 C 13.148438 10.648438 13.480469 10.277344 13.882812 10.277344 C 14.289062 10.277344 14.613281 10.648438 14.613281 11.109375 Z M 14.613281 11.109375 " fill-opacity="1" fill-rule="nonzero"/><g clip-path="url(#967910fb59)"><path fill="#e2ac7a" d="M 4.867188 26.589844 L 25.1875 26.589844 L 25.1875 27.894531 L 4.867188 27.894531 Z M 4.867188 26.589844 " fill-opacity="1" fill-rule="nonzero"/></g></svg>