<svg xmlns="http://www.w3.org/2000/svg" xmlns:xlink="http://www.w3.org/1999/xlink" width="80" zoomAndPan="magnify" viewBox="0 0 60 60" height="80" preserveAspectRatio="xMidYMid meet" version="1.0"><defs><clipPath id="e650653a85"><path d="M 12 17 L 48.554688 17 L 48.554688 25 L 12 25 Z M 12 17 " clip-rule="nonzero"/></clipPath><clipPath id="369d750e0f"><path d="M 12 12.078125 L 48 12.078125 L 48 14 L 12 14 Z M 12 12.078125 " clip-rule="nonzero"/></clipPath><clipPath id="368671832a"><path d="M 44 24 L 48.554688 24 L 48.554688 29 L 44 29 Z M 44 24 " clip-rule="nonzero"/></clipPath><clipPath id="93c56457a3"><path d="M 11.804688 45 L 48.554688 45 L 48.554688 48.078125 L 11.804688 48.078125 Z M 11.804688 45 " clip-rule="nonzero"/></clipPath></defs><path fill="#c7463b" d="M 13.742188 26.921875 L 46.609375 26.921875 L 46.609375 45.746094 L 13.742188 45.746094 Z M 13.742188 26.921875 " fill-opacity="1" fill-rule="nonzero"/><path fill="#c7463b" d="M 13.742188 13.929688 L 46.609375 13.929688 L 46.609375 17.003906 L 13.742188 17.003906 Z M 13.742188 13.929688 " fill-opacity="1" fill-rule="nonzero"/><g clip-path="url(#e650653a85)"><path fill="#e2ac7a" d="M 48.339844 24.230469 L 12.019531 24.230469 L 13.742188 17.007812 L 46.617188 17.007812 Z M 48.339844 24.230469 " fill-opacity="1" fill-rule="nonzero"/></g><g clip-path="url(#369d750e0f)"><path fill="#e0e0e0" d="M 12.808594 12.085938 L 47.550781 12.085938 L 47.550781 13.929688 L 12.808594 13.929688 Z M 12.808594 12.085938 " fill-opacity="1" fill-rule="nonzero"/></g><path fill="#da922a" d="M 28.371094 28.980469 C 28.132812 28.980469 27.902344 28.933594 27.679688 28.84375 C 27.460938 28.75 27.265625 28.621094 27.09375 28.453125 C 26.925781 28.28125 26.796875 28.089844 26.707031 27.867188 C 26.613281 27.648438 26.570312 27.417969 26.570312 27.179688 L 26.570312 24.230469 L 30.179688 24.230469 L 30.179688 27.179688 C 30.179688 27.417969 30.132812 27.648438 30.042969 27.867188 C 29.949219 28.089844 29.820312 28.285156 29.652344 28.453125 C 29.480469 28.621094 29.285156 28.75 29.0625 28.84375 C 28.84375 28.933594 28.613281 28.980469 28.371094 28.980469 Z M 28.371094 28.980469 " fill-opacity="1" fill-rule="nonzero"/><path fill="#e0e0e0" d="M 22.953125 24.230469 L 26.5625 24.230469 L 26.5625 27.1875 C 26.5625 27.425781 26.515625 27.65625 26.425781 27.875 C 26.332031 28.097656 26.203125 28.289062 26.03125 28.460938 C 25.863281 28.628906 25.667969 28.757812 25.445312 28.847656 C 25.226562 28.941406 24.992188 28.984375 24.753906 28.984375 C 24.515625 28.984375 24.285156 28.941406 24.0625 28.847656 C 23.839844 28.757812 23.644531 28.628906 23.476562 28.460938 C 23.304688 28.289062 23.175781 28.097656 23.082031 27.875 C 22.992188 27.65625 22.945312 27.425781 22.945312 27.1875 L 22.945312 24.230469 Z M 22.953125 24.230469 " fill-opacity="1" fill-rule="nonzero"/><path fill="#da922a" d="M 21.152344 28.980469 C 20.910156 28.980469 20.679688 28.933594 20.457031 28.84375 C 20.238281 28.75 20.042969 28.621094 19.871094 28.453125 C 19.703125 28.285156 19.570312 28.089844 19.480469 27.867188 C 19.386719 27.648438 19.34375 27.417969 19.34375 27.179688 L 19.34375 24.230469 L 22.953125 24.230469 L 22.953125 27.179688 C 22.953125 27.417969 22.910156 27.648438 22.816406 27.867188 C 22.726562 28.089844 22.597656 28.28125 22.425781 28.453125 C 22.257812 28.621094 22.0625 28.75 21.84375 28.84375 C 21.621094 28.933594 21.390625 28.980469 21.152344 28.980469 Z M 21.152344 28.980469 " fill-opacity="1" fill-rule="nonzero"/><path fill="#e0e0e0" d="M 15.636719 24.230469 L 19.34375 24.230469 L 19.34375 27.1875 C 19.34375 27.425781 19.296875 27.65625 19.203125 27.875 C 19.113281 28.097656 18.980469 28.289062 18.8125 28.460938 C 18.644531 28.628906 18.445312 28.757812 18.226562 28.847656 C 18.003906 28.941406 17.773438 28.984375 17.535156 28.984375 L 17.441406 28.984375 C 17.199219 28.984375 16.96875 28.941406 16.746094 28.847656 C 16.527344 28.757812 16.332031 28.628906 16.160156 28.460938 C 15.992188 28.289062 15.859375 28.097656 15.769531 27.875 C 15.675781 27.65625 15.632812 27.425781 15.632812 27.1875 L 15.632812 24.230469 Z M 15.636719 24.230469 " fill-opacity="1" fill-rule="nonzero"/><path fill="#da922a" d="M 13.828125 28.980469 C 13.589844 28.980469 13.359375 28.933594 13.136719 28.84375 C 12.914062 28.75 12.71875 28.621094 12.550781 28.453125 C 12.382812 28.285156 12.25 28.089844 12.160156 27.867188 C 12.066406 27.648438 12.019531 27.417969 12.019531 27.179688 L 12.019531 24.230469 L 15.636719 24.230469 L 15.636719 27.179688 C 15.636719 27.417969 15.59375 27.648438 15.5 27.867188 C 15.410156 28.089844 15.277344 28.285156 15.109375 28.453125 C 14.9375 28.621094 14.742188 28.75 14.523438 28.84375 C 14.300781 28.933594 14.070312 28.980469 13.828125 28.980469 Z M 13.828125 28.980469 " fill-opacity="1" fill-rule="nonzero"/><g clip-path="url(#368671832a)"><path fill="#e0e0e0" d="M 44.722656 24.230469 L 48.339844 24.230469 L 48.339844 27.1875 C 48.339844 27.425781 48.292969 27.65625 48.203125 27.875 C 48.109375 28.097656 47.980469 28.289062 47.808594 28.460938 C 47.640625 28.628906 47.445312 28.757812 47.222656 28.847656 C 47 28.941406 46.769531 28.984375 46.53125 28.984375 C 46.292969 28.984375 46.0625 28.941406 45.839844 28.847656 C 45.617188 28.757812 45.421875 28.628906 45.253906 28.460938 C 45.082031 28.289062 44.953125 28.097656 44.859375 27.875 C 44.769531 27.65625 44.722656 27.425781 44.722656 27.1875 Z M 44.722656 24.230469 " fill-opacity="1" fill-rule="nonzero"/></g><path fill="#da922a" d="M 42.921875 28.980469 C 42.679688 28.980469 42.449219 28.933594 42.230469 28.84375 C 42.007812 28.75 41.8125 28.621094 41.640625 28.453125 C 41.472656 28.285156 41.339844 28.089844 41.25 27.867188 C 41.15625 27.648438 41.113281 27.417969 41.113281 27.179688 L 41.113281 24.230469 L 44.722656 24.230469 L 44.722656 27.179688 C 44.722656 27.417969 44.679688 27.648438 44.585938 27.867188 C 44.496094 28.089844 44.367188 28.28125 44.199219 28.453125 C 44.027344 28.621094 43.832031 28.75 43.613281 28.84375 C 43.390625 28.933594 43.160156 28.980469 42.921875 28.980469 Z M 42.921875 28.980469 " fill-opacity="1" fill-rule="nonzero"/><path fill="#e0e0e0" d="M 37.410156 24.230469 L 41.113281 24.230469 L 41.113281 27.1875 C 41.113281 27.425781 41.066406 27.65625 40.972656 27.875 C 40.882812 28.097656 40.753906 28.289062 40.582031 28.460938 C 40.414062 28.628906 40.21875 28.757812 39.996094 28.847656 C 39.773438 28.941406 39.542969 28.984375 39.304688 28.984375 L 39.210938 28.984375 C 38.96875 28.984375 38.738281 28.941406 38.519531 28.847656 C 38.296875 28.757812 38.101562 28.628906 37.929688 28.460938 C 37.761719 28.289062 37.628906 28.097656 37.539062 27.875 C 37.445312 27.65625 37.402344 27.425781 37.402344 27.1875 L 37.402344 24.230469 Z M 37.410156 24.230469 " fill-opacity="1" fill-rule="nonzero"/><path fill="#da922a" d="M 35.601562 28.980469 C 35.359375 28.980469 35.128906 28.933594 34.90625 28.84375 C 34.6875 28.75 34.492188 28.621094 34.320312 28.453125 C 34.152344 28.285156 34.019531 28.089844 33.929688 27.867188 C 33.835938 27.648438 33.789062 27.417969 33.789062 27.179688 L 33.789062 24.230469 L 37.410156 24.230469 L 37.410156 27.179688 C 37.410156 27.417969 37.363281 27.648438 37.269531 27.867188 C 37.179688 28.089844 37.046875 28.285156 36.878906 28.453125 C 36.710938 28.621094 36.511719 28.75 36.292969 28.84375 C 36.070312 28.933594 35.839844 28.980469 35.601562 28.980469 Z M 35.601562 28.980469 " fill-opacity="1" fill-rule="nonzero"/><path fill="#e0e0e0" d="M 30.179688 24.230469 L 33.789062 24.230469 L 33.789062 27.1875 C 33.789062 27.425781 33.746094 27.65625 33.652344 27.875 C 33.5625 28.097656 33.429688 28.289062 33.261719 28.460938 C 33.089844 28.628906 32.894531 28.757812 32.675781 28.847656 C 32.453125 28.941406 32.222656 28.984375 31.980469 28.984375 C 31.742188 28.984375 31.511719 28.9375 31.289062 28.847656 C 31.070312 28.753906 30.875 28.625 30.707031 28.453125 C 30.535156 28.285156 30.40625 28.089844 30.316406 27.867188 C 30.222656 27.648438 30.179688 27.417969 30.179688 27.179688 Z M 30.179688 24.230469 " fill-opacity="1" fill-rule="nonzero"/><path fill="#e0e0e0" d="M 40.171875 30.933594 L 40.882812 30.933594 C 41.320312 30.933594 41.742188 31.019531 42.144531 31.183594 C 42.550781 31.351562 42.90625 31.589844 43.21875 31.898438 C 43.527344 32.203125 43.765625 32.558594 43.933594 32.960938 C 44.101562 33.363281 44.183594 33.785156 44.183594 34.21875 L 44.183594 45.75 L 36.863281 45.75 L 36.863281 34.226562 C 36.863281 33.789062 36.945312 33.371094 37.113281 32.964844 C 37.28125 32.5625 37.519531 32.207031 37.828125 31.898438 C 38.140625 31.589844 38.5 31.351562 38.90625 31.183594 C 39.308594 31.015625 39.734375 30.933594 40.171875 30.933594 Z M 40.171875 30.933594 " fill-opacity="1" fill-rule="nonzero"/><path fill="#777777" d="M 44.183594 46.175781 L 36.863281 46.175781 C 36.742188 46.175781 36.640625 46.136719 36.558594 46.050781 C 36.472656 45.96875 36.433594 45.867188 36.433594 45.75 L 36.433594 34.226562 C 36.433594 33.734375 36.527344 33.257812 36.71875 32.804688 C 36.910156 32.347656 37.179688 31.945312 37.53125 31.597656 C 37.878906 31.25 38.285156 30.980469 38.742188 30.792969 C 39.199219 30.601562 39.675781 30.507812 40.171875 30.507812 L 40.882812 30.507812 C 41.378906 30.507812 41.855469 30.601562 42.3125 30.792969 C 42.769531 30.980469 43.171875 31.25 43.523438 31.597656 C 43.871094 31.949219 44.140625 32.347656 44.332031 32.804688 C 44.519531 33.261719 44.613281 33.734375 44.613281 34.226562 L 44.613281 45.75 C 44.613281 45.867188 44.574219 45.96875 44.488281 46.050781 C 44.40625 46.136719 44.304688 46.175781 44.183594 46.175781 Z M 37.292969 45.320312 L 43.753906 45.320312 L 43.753906 34.226562 C 43.753906 33.847656 43.679688 33.484375 43.535156 33.132812 C 43.390625 32.78125 43.183594 32.472656 42.914062 32.203125 C 42.644531 31.9375 42.332031 31.730469 41.980469 31.582031 C 41.628906 31.4375 41.261719 31.363281 40.882812 31.363281 L 40.171875 31.363281 C 39.789062 31.363281 39.421875 31.4375 39.070312 31.582031 C 38.71875 31.730469 38.410156 31.9375 38.140625 32.203125 C 37.867188 32.472656 37.660156 32.78125 37.515625 33.132812 C 37.367188 33.480469 37.292969 33.847656 37.292969 34.226562 Z M 37.292969 45.320312 " fill-opacity="1" fill-rule="nonzero"/><path fill="#fbe36a" d="M 42.664062 35.953125 L 42.664062 34.847656 C 42.660156 34.566406 42.605469 34.296875 42.496094 34.035156 C 42.390625 33.777344 42.234375 33.546875 42.035156 33.347656 C 41.832031 33.148438 41.601562 32.996094 41.339844 32.886719 C 41.078125 32.78125 40.804688 32.726562 40.523438 32.726562 C 40.242188 32.726562 39.96875 32.78125 39.707031 32.886719 C 39.445312 32.996094 39.214844 33.148438 39.015625 33.347656 C 38.816406 33.546875 38.664062 33.777344 38.554688 34.035156 C 38.445312 34.296875 38.390625 34.566406 38.390625 34.847656 L 38.390625 43.964844 L 42.664062 43.964844 L 42.664062 40.609375 " fill-opacity="1" fill-rule="nonzero"/><path fill="#e0e0e0" d="M 42.664062 35.277344 L 42.664062 34.417969 L 38.390625 34.417969 L 38.390625 35.277344 L 40.09375 35.277344 L 40.09375 37.78125 L 38.390625 37.78125 L 38.390625 38.636719 L 40.09375 38.636719 L 40.09375 41.152344 L 38.390625 41.152344 L 38.390625 42.007812 L 40.09375 42.007812 L 40.09375 43.964844 L 40.953125 43.964844 L 40.953125 42.007812 L 42.664062 42.007812 L 42.664062 41.152344 L 40.953125 41.152344 L 40.953125 38.636719 L 42.664062 38.636719 L 42.664062 37.78125 L 40.953125 37.78125 L 40.953125 35.277344 Z M 42.664062 35.277344 " fill-opacity="1" fill-rule="nonzero"/><path fill="#777777" d="M 42.230469 37.074219 L 43.09375 37.074219 L 43.09375 39.351562 L 42.230469 39.351562 Z M 42.230469 37.074219 " fill-opacity="1" fill-rule="nonzero"/><path fill="#af0e0e" d="M 34.609375 34.097656 L 34.609375 43.441406 L 32.328125 43.441406 C 32.664062 41.359375 33.09375 39.402344 33.09375 39.402344 L 32.640625 39.179688 C 32.265625 38.996094 31.960938 38.726562 31.730469 38.378906 C 31.5 38.027344 31.375 37.644531 31.359375 37.226562 L 31.070312 30.933594 L 31.421875 30.933594 C 31.84375 30.933594 32.25 31.015625 32.640625 31.171875 C 33.03125 31.332031 33.375 31.5625 33.675781 31.859375 C 33.972656 32.15625 34.203125 32.496094 34.367188 32.886719 C 34.527344 33.273438 34.609375 33.679688 34.609375 34.097656 Z M 34.609375 34.097656 " fill-opacity="1" fill-rule="nonzero"/><path fill="#af0e0e" d="M 19.277344 30.933594 L 18.992188 37.226562 C 18.972656 37.644531 18.847656 38.027344 18.617188 38.378906 C 18.386719 38.726562 18.082031 38.996094 17.707031 39.179688 L 17.246094 39.402344 C 17.246094 39.402344 17.683594 41.359375 18.019531 43.441406 L 15.636719 43.441406 L 15.636719 34.097656 C 15.636719 33.679688 15.71875 33.273438 15.878906 32.886719 C 16.042969 32.5 16.273438 32.15625 16.570312 31.863281 C 16.867188 31.566406 17.210938 31.335938 17.601562 31.175781 C 17.992188 31.015625 18.394531 30.933594 18.816406 30.933594 Z M 19.277344 30.933594 " fill-opacity="1" fill-rule="nonzero"/><path fill="#fbe36a" d="M 33.09375 39.402344 C 33.09375 39.402344 32.664062 41.359375 32.328125 43.441406 L 18.019531 43.441406 C 17.683594 41.359375 17.246094 39.402344 17.246094 39.402344 L 17.707031 39.179688 C 18.082031 38.996094 18.386719 38.726562 18.617188 38.378906 C 18.847656 38.027344 18.972656 37.644531 18.992188 37.226562 L 19.277344 30.933594 L 31.070312 30.933594 L 31.359375 37.226562 C 31.375 37.644531 31.5 38.027344 31.730469 38.378906 C 31.960938 38.726562 32.265625 38.996094 32.640625 39.179688 Z M 33.09375 39.402344 " fill-opacity="1" fill-rule="nonzero"/><path fill="#da922a" d="M 27.734375 35.777344 L 22.394531 35.777344 L 24.582031 34.261719 L 25.671875 34.261719 Z M 27.734375 35.777344 " fill-opacity="1" fill-rule="nonzero"/><path fill="#777777" d="M 24.632812 30.933594 L 25.492188 30.933594 L 25.492188 34.261719 L 24.632812 34.261719 Z M 24.632812 30.933594 " fill-opacity="1" fill-rule="nonzero"/><path fill="#777777" d="M 27.976562 40.929688 L 27.976562 40.074219 L 22.835938 40.074219 L 22.835938 40.929688 L 24.976562 40.929688 L 24.976562 43.441406 L 25.839844 43.441406 L 25.839844 40.929688 Z M 27.976562 40.929688 " fill-opacity="1" fill-rule="nonzero"/><path fill="#777777" d="M 29.75 39.851562 L 29.75 41.402344 L 27.78125 41.402344 C 27.664062 41.402344 27.5625 41.441406 27.480469 41.527344 C 27.394531 41.609375 27.351562 41.710938 27.351562 41.828125 L 27.351562 43.441406 L 28.214844 43.441406 L 28.214844 42.257812 L 29.75 42.257812 L 29.75 43.441406 L 30.609375 43.441406 L 30.609375 39.851562 Z M 29.75 39.851562 " fill-opacity="1" fill-rule="nonzero"/><path fill="#777777" d="M 22.917969 41.402344 L 20.949219 41.402344 L 20.949219 39.851562 L 20.089844 39.851562 L 20.089844 43.441406 L 20.949219 43.441406 L 20.949219 42.257812 L 22.484375 42.257812 L 22.484375 43.441406 L 23.347656 43.441406 L 23.347656 41.828125 C 23.347656 41.710938 23.304688 41.609375 23.222656 41.527344 C 23.136719 41.441406 23.035156 41.402344 22.917969 41.402344 Z M 22.917969 41.402344 " fill-opacity="1" fill-rule="nonzero"/><path fill="#777777" d="M 15.636719 33.667969 L 34.609375 33.667969 L 34.609375 34.527344 L 15.636719 34.527344 Z M 15.636719 33.667969 " fill-opacity="1" fill-rule="nonzero"/><path fill="#e0e0e0" d="M 35.0625 19.246094 C 35.0625 19.699219 35 20.140625 34.875 20.574219 C 34.75 21.007812 34.566406 21.414062 34.328125 21.796875 C 34.089844 22.179688 33.800781 22.523438 33.46875 22.828125 C 33.132812 23.128906 32.761719 23.382812 32.355469 23.582031 C 32.078125 23.71875 31.792969 23.824219 31.492188 23.902344 C 31.070312 24.019531 30.640625 24.082031 30.203125 24.082031 C 29.632812 24.078125 29.078125 23.984375 28.542969 23.789062 C 28.242188 23.679688 27.953125 23.542969 27.683594 23.375 C 27.503906 23.265625 27.332031 23.144531 27.167969 23.015625 C 27.003906 22.882812 26.847656 22.742188 26.703125 22.589844 C 26.554688 22.4375 26.421875 22.277344 26.296875 22.109375 C 26.171875 21.941406 26.058594 21.761719 25.957031 21.578125 C 25.855469 21.394531 25.765625 21.207031 25.691406 21.011719 C 25.613281 20.816406 25.550781 20.617188 25.5 20.414062 C 25.449219 20.210938 25.410156 20.003906 25.386719 19.796875 C 25.363281 19.585938 25.355469 19.378906 25.359375 19.167969 C 25.363281 18.960938 25.378906 18.75 25.410156 18.542969 C 25.441406 18.335938 25.484375 18.132812 25.542969 17.929688 C 25.601562 17.726562 25.671875 17.53125 25.753906 17.339844 C 25.839844 17.148438 25.933594 16.960938 26.042969 16.78125 C 26.152344 16.601562 26.269531 16.429688 26.402344 16.265625 C 26.53125 16.097656 26.671875 15.945312 26.824219 15.796875 C 26.972656 15.652344 27.132812 15.515625 27.300781 15.390625 C 27.472656 15.265625 27.648438 15.148438 27.832031 15.046875 C 28.015625 14.945312 28.203125 14.855469 28.398438 14.777344 C 28.59375 14.699219 28.796875 14.632812 29 14.582031 C 29.203125 14.527344 29.410156 14.488281 29.621094 14.464844 C 29.828125 14.4375 30.039062 14.425781 30.25 14.429688 C 30.460938 14.429688 30.667969 14.445312 30.878906 14.472656 C 31.085938 14.503906 31.292969 14.546875 31.496094 14.601562 C 31.699219 14.65625 31.898438 14.726562 32.09375 14.804688 C 32.285156 14.886719 32.472656 14.980469 32.65625 15.085938 C 32.839844 15.191406 33.011719 15.308594 33.179688 15.4375 C 33.347656 15.566406 33.503906 15.703125 33.652344 15.851562 C 33.800781 16.003906 33.9375 16.160156 34.066406 16.328125 C 34.195312 16.492188 34.3125 16.667969 34.414062 16.847656 C 34.519531 17.03125 34.613281 17.21875 34.695312 17.414062 C 34.773438 17.605469 34.84375 17.804688 34.894531 18.007812 C 34.949219 18.210938 34.992188 18.414062 35.019531 18.621094 C 35.046875 18.828125 35.0625 19.039062 35.0625 19.246094 Z M 35.0625 19.246094 " fill-opacity="1" fill-rule="nonzero"/><path fill="#777777" d="M 33.882812 17.035156 L 33.882812 19.667969 C 33.882812 19.789062 33.84375 19.886719 33.757812 19.972656 C 33.675781 20.054688 33.574219 20.097656 33.453125 20.097656 L 32.355469 20.097656 L 32.355469 23.582031 C 32.078125 23.71875 31.792969 23.824219 31.492188 23.902344 L 31.492188 20.097656 L 30.386719 20.097656 C 30.269531 20.097656 30.167969 20.054688 30.085938 19.972656 C 30 19.886719 29.957031 19.789062 29.957031 19.667969 L 29.957031 17.035156 L 30.820312 17.035156 L 30.820312 19.242188 L 31.492188 19.242188 L 31.492188 17.035156 L 32.355469 17.035156 L 32.355469 19.242188 L 33.023438 19.242188 L 33.023438 17.035156 Z M 33.882812 17.035156 " fill-opacity="1" fill-rule="nonzero"/><path fill="#777777" d="M 29.433594 18.328125 C 29.433594 18.976562 29.0625 19.519531 28.542969 19.71875 L 28.542969 23.789062 C 28.242188 23.679688 27.953125 23.542969 27.683594 23.375 L 27.683594 19.71875 C 27.160156 19.519531 26.785156 18.976562 26.785156 18.328125 C 26.785156 17.511719 27.382812 16.855469 28.113281 16.855469 C 28.84375 16.855469 29.433594 17.511719 29.433594 18.328125 Z M 29.433594 18.328125 " fill-opacity="1" fill-rule="nonzero"/><g clip-path="url(#93c56457a3)"><path fill="#e2ac7a" d="M 11.804688 45.75 L 48.554688 45.75 L 48.554688 48.066406 L 11.804688 48.066406 Z M 11.804688 45.75 " fill-opacity="1" fill-rule="nonzero"/></g></svg>