<svg xmlns="http://www.w3.org/2000/svg" xmlns:xlink="http://www.w3.org/1999/xlink" width="40" zoomAndPan="magnify" viewBox="0 0 30 30.000001" height="40" preserveAspectRatio="xMidYMid meet" version="1.0"><defs><clipPath id="fd8d419591"><path d="M 6.144531 8.980469 L 23.5625 8.980469 L 23.5625 19.867188 L 6.144531 19.867188 Z M 6.144531 8.980469 " clip-rule="nonzero"/></clipPath><clipPath id="4bf8992e14"><path d="M 6.144531 13 L 23.5625 13 L 23.5625 16 L 6.144531 16 Z M 6.144531 13 " clip-rule="nonzero"/></clipPath><clipPath id="b62d263e6a"><path d="M 11 8.980469 L 14 8.980469 L 14 19.867188 L 11 19.867188 Z M 11 8.980469 " clip-rule="nonzero"/></clipPath><clipPath id="59286fc5e5"><path d="M 6.144531 13 L 23.5625 13 L 23.5625 16 L 6.144531 16 Z M 6.144531 13 " clip-rule="nonzero"/></clipPath></defs><g clip-path="url(#fd8d419591)"><path fill="#005aad" d="M 6.144531 8.984375 L 23.5625 8.984375 L 23.5625 19.867188 L 6.144531 19.867188 Z M 6.144531 8.984375 " fill-opacity="1" fill-rule="evenodd"/></g><g clip-path="url(#4bf8992e14)"><path fill="#ffc200" d="M 6.144531 13.335938 L 23.5625 13.335938 L 23.5625 15.511719 L 6.144531 15.511719 Z M 6.144531 13.335938 " fill-opacity="0.498" fill-rule="evenodd"/></g><g clip-path="url(#b62d263e6a)"><path fill="#ffc200" d="M 11.585938 8.984375 L 13.765625 8.984375 L 13.765625 19.867188 L 11.585938 19.867188 Z M 11.585938 8.984375 " fill-opacity="0.498" fill-rule="evenodd"/><path fill="#ffc200" d="M 11.585938 8.984375 L 13.765625 8.984375 L 13.765625 19.867188 L 11.585938 19.867188 Z M 11.585938 8.984375 " fill-opacity="1" fill-rule="evenodd"/></g><g clip-path="url(#59286fc5e5)"><path fill="#ffc200" d="M 6.144531 13.335938 L 23.5625 13.335938 L 23.5625 15.511719 L 6.144531 15.511719 Z M 6.144531 13.335938 " fill-opacity="1" fill-rule="evenodd"/></g></svg>